<svg xmlns="http://www.w3.org/2000/svg" width="55" height="130" fill="none"><path fill="#2D78E8" fill-opacity=".11" d="M.12 130v-17.28l33.12-62.46c1.68-3.12 2.64-5.82 2.88-8.1.24-2.4.36-5.34.36-8.82 0-1.56-.06-3.18-.18-4.86 0-1.8-.3-3.36-.9-4.68-.6-1.32-1.5-2.4-2.7-3.24-1.2-.96-2.94-1.44-5.22-1.44-2.76 0-4.98.78-6.66 2.34-1.56 1.56-2.34 3.84-2.34 6.84v10.44H.12V28.66c0-3.84.72-7.44 2.16-10.8 1.44-3.36 3.42-6.3 5.94-8.82 2.4-2.52 5.28-4.5 8.64-5.94C20.22 1.54 23.82.76 27.66.76c4.8 0 8.88.9 12.24 2.7 3.48 1.68 6.36 4.02 8.64 7.02 2.16 3 3.72 6.42 4.68 10.26 1.08 3.84 1.62 7.92 1.62 12.24 0 3.12-.06 5.76-.18 7.92-.12 2.04-.36 4.02-.72 5.94-.36 1.92-.96 3.84-1.8 5.76-.84 1.92-1.98 4.26-3.42 7.02l-27 52.02h33.12V130H.12Z"/></svg>