<svg xmlns="http://www.w3.org/2000/svg" width="55" height="132" fill="none"><path fill="#2D78E8" fill-opacity=".11" d="M21.9 55.84c5.52 0 9.3-.66 11.34-1.98 2.16-1.32 3.24-4.38 3.24-9.18V28.12c0-2.64-.84-4.8-2.52-6.48-1.56-1.68-3.72-2.52-6.48-2.52-3.24 0-5.58 1.02-7.02 3.06-1.32 2.04-1.98 4.02-1.98 5.94v10.44H.12V27.94c0-3.72.72-7.26 2.16-10.62 1.44-3.36 3.42-6.24 5.94-8.64 2.52-2.4 5.46-4.32 8.82-5.76C20.4 1.48 24 .76 27.84.76c5.04 0 9.18 1.02 12.42 3.06 3.36 1.92 5.88 3.9 7.56 5.94a31.83 31.83 0 0 1 3.06 4.32c.96 1.44 1.74 3.18 2.34 5.22 1.08 3.96 1.62 9.84 1.62 17.64 0 4.44-.12 8.04-.36 10.8-.12 2.76-.54 5.04-1.26 6.84-.84 1.92-2.04 3.54-3.6 4.86-1.44 1.32-3.48 2.76-6.12 4.32 2.88 1.8 5.04 3.48 6.48 5.04 1.56 1.56 2.7 3.36 3.42 5.4.72 2.16 1.14 4.74 1.26 7.74.12 2.88.18 6.6.18 11.16 0 4.2-.12 7.68-.36 10.44-.12 2.76-.36 5.04-.72 6.84-.36 1.92-.84 3.54-1.44 4.86-.6 1.32-1.38 2.7-2.34 4.14-2.28 3.36-5.22 6.18-8.82 8.46-3.48 2.16-8.1 3.24-13.86 3.24-2.88 0-5.94-.48-9.18-1.44-3.24-.96-6.18-2.52-8.82-4.68-2.64-2.16-4.86-4.98-6.66-8.46-1.68-3.48-2.52-7.74-2.52-12.78V93.28h18.36v9.54c0 2.88.78 5.28 2.34 7.2 1.68 1.8 3.9 2.7 6.66 2.7 2.76 0 4.92-.9 6.48-2.7 1.68-1.92 2.52-4.44 2.52-7.56V84.1c0-5.04-.96-8.34-2.88-9.9-1.08-.96-2.58-1.56-4.5-1.8-1.8-.24-4.2-.36-7.2-.36v-16.2Z"/></svg>