<svg xmlns="http://www.w3.org/2000/svg" width="100" height="100" fill="none"><path fill="#E547FF" d="M0 0h100v100H0z"/><mask id="a" width="100" height="100" x="0" y="0" maskUnits="userSpaceOnUse" style="mask-type:alpha"><path fill="#03E378" d="M0 0h100v100H0z"/></mask><g mask="url(#a)"><path fill="#35F3FF" stroke="#000" stroke-linejoin="round" d="M30.752 73.721c.14-.27.425-.41.729-.41H69s2 3.5 2 12-2 12-2 12H31.48c-.303 0-.587-.142-.728-.412C30.217 95.872 29 92.72 29 85.31s1.217-10.561 1.752-11.589Z"/><path fill="#fff" fill-opacity=".44" d="M30.753 76.618c.145-.209.388-.308.642-.308H69s2 2.625 2 9-2 9-2 9H31.395c-.254 0-.497-.099-.642-.307-.536-.77-1.753-3.134-1.753-8.693 0-5.559 1.218-7.922 1.753-8.692Z"/><path fill="#627B94" d="m30.5 71.31 1.5 1.5-1 .5-1 2.5-1 6.5v8.5l1.5 6 1.5.5v1l-1.5 1-1-.5-1.5-3-.5-3.5-.5-4.5v-5.5l.5-3.5.5-4 1-2.5 1.5-1Z"/><path fill="#495B6D" d="M28.5 71.31H30l-1.5 2.5-.5 3-1 6 .5 8.5 1 5.5.5 1.5 1.5 1h-2l-14-.5-2-2.5-1-3.5-.5-4.5v-5.5l.5-3.5.5-4 1.5-2.5 2-1.5h13Z"/><path fill="#35F3FF" d="m21 71.31-.5 2-2 7v6.5l.5 6.5 2 5v1h-2.5l-1-2-1-3-1-4.5v-5.5l.5-3.5.5-4 1-3.5 1-2H21Z"/><path fill="#fff" fill-opacity=".44" d="M13 73.31h15.5l-1 5h-16l1.5-5Z"/><path fill="#fff" fill-opacity=".44" d="M12.5 74.31H28v2H11.88l.62-2Z"/><path stroke="#000" d="M32.304 73.31c-.527-1.27-1.144-2-1.804-2-1.933 0-3.5 6.268-3.5 14s1.567 14 3.5 14c.65 0 1.257-.707 1.779-1.94"/><path stroke="#000" stroke-linecap="round" stroke-linejoin="round" d="M30.5 71.31h-12s-3 3.5-3 14 3 14 3 14h12"/><path stroke="#000" stroke-linecap="round" stroke-linejoin="round" d="M21.5 71.31s-3 3.5-3 14 3 14 3 14"/><path stroke="#000" stroke-linecap="round" stroke-linejoin="round" d="M25 71.31h-9.5l-1.5 1s-3 2.5-3 13 3 13 3 13l1.5 1H25"/><path fill="#627B94" d="m69.5 99.31-1.5-1.5 1-.5 1-2.5 1-6.5v-8.5l-1.5-6-1.5-.5v-1l1.5-1 1 .5 1.5 3 .5 3.5.5 4.5v5.5l-.5 3.5-.5 4-1 2.5-1.5 1Z"/><path fill="#495B6D" d="M71.5 99.31H70l1.5-2.5.5-3 1-6-.5-8.5-1-5.5-.5-1.5-1.5-1h2l14 .5 2 2.5 1 3.5.5 4.5v5.5l-.5 3.5-.5 4-1.5 2.5-2 1.5h-13Z"/><path fill="#35F3FF" d="m79 99.31.5-2 2-7v-6.5l-.5-6.5-2-5v-1h2.5l1 2 1 3 1 4.5v5.5l-.5 3.5-.5 4-1 3.5-1 2H79Z"/><path fill="#fff" fill-opacity=".44" d="M71 73.31h16l1.5 5h-16l-1.5-5Z"/><path fill="#fff" fill-opacity=".44" d="M72 74.31h15.5l.5 2H72v-2Z"/><path stroke="#000" d="M67.696 97.31c.527 1.27 1.144 2 1.804 2 1.933 0 3.5-6.268 3.5-14s-1.567-14-3.5-14c-.65 0-1.257.708-1.779 1.94"/><path stroke="#000" stroke-linecap="round" stroke-linejoin="round" d="M69.5 99.31h12s3-3.5 3-14-3-14-3-14h-12"/><path stroke="#000" stroke-linecap="round" stroke-linejoin="round" d="M78.5 99.31s3-3.5 3-14-3-14-3-14"/><path stroke="#000" stroke-linecap="round" stroke-linejoin="round" d="M75 99.31h9.5l1.5-1s3-2.5 3-13-3-13-3-13l-1.5-1H75"/><path stroke="#000" stroke-linejoin="round" d="M30.752 73.721c.14-.27.425-.41.729-.41H69s2 3.5 2 12-2 12-2 12H31.48c-.303 0-.587-.142-.728-.412C30.217 95.872 29 92.72 29 85.31s1.217-10.561 1.752-11.589Z"/><path fill="#416BFF" d="m71.218 44.482-1.261 2.792-.57 6.495 1.693.91 4.12-4.183.862-2.666-.735-1.038-1.42-1.437-1.693-.782-.996-.091Z"/><path fill="#416BFF" d="m72.782 53.699-1.924 1.112.962.541 2.345 1.354 2.196-.872.691-1.023-.481-1.473-.842-1.083-1.353-.27-1.594 1.714Z"/><path fill="#fff" d="m76.614 56.094-2.458.633 1.24 2.645 2.318-.725v-1.265l-1.1-1.288Z"/><path fill="#FF3535" d="m77.855 57.429-1.03-1.405h2.762l-1.732 2.552V57.43Z"/><path fill="#fff" d="m76.842 49.64-2.165 1.864 1.383 1.142.782 2.045 2.285-2.285-.692-1.745-1.593-1.022Z"/><path fill="#FF3535" d="M79.578 48.045 77.052 49.4l2.285 2.556.903-3.428-.662-.482Z"/><path fill="#fff" d="m72.606 41.883-1.504 2.535 1.874.494 2.164 1.751.989.866.618-1.401-.124-2.143-1.195-1.174-1.586-.928h-1.236Z"/><path fill="#FF3535" d="m74.906 39.328-1.912 2.182 1.322.622 1.577 1.401.956.096v-1.927l-.764-1.992-1.18-.382Z"/><path stroke="#000" stroke-linecap="round" stroke-linejoin="round" d="M69.083 52.506c-.825-4.28 4.746-13.487 6.088-13.189 3.244.721 2.08 12.48-3.84 15.2"/><path stroke="#000" stroke-linecap="round" stroke-linejoin="round" d="M72.586 42.163c1.28-1.03 4.166 1.204 4.166 3.362m-5.722-.753c1.28-1.029 5.145 1.556 4.919 4.09m-1.733 3.228c1.545-2.01 4.663-4.224 5.686-3.879 1.206.407-.576 7.824-7.634 8.875"/><path stroke="#000" stroke-linecap="round" stroke-linejoin="round" d="M76.413 49.873c.963-.342 3.145 1.391 2.418 3.124m-4.686-.792c1.605-.641 3.23 1.199 2.653 2.932m-2.243 1.334c1.37-.543 4.478-.978 4.956-.304.36.505-1.493 3.324-4.956 3.134"/><path stroke="#000" stroke-linecap="round" stroke-linejoin="round" d="M76.052 55.954c.656-.328 2.424 1.72 1.681 2.568"/><path fill="#fff" d="m29.748 65.108 1.839-1.086.773.877 1.462 2.717 1.88 1.838-.125 3.657-.734.308-3.256-.308-.338-1.779-1.337 1.427-2.75-.705v-.722l.768-2.73v-3.034l1.818-.46Zm40.369 0-1.84-1.086-.772.877-1.463 2.717-1.88 1.838.125 3.657.735.308 3.256-.308.337-1.779 1.338 1.427 2.749-.705v-.722l-.768-2.73v-3.034l-1.817-.46Z"/><path stroke="#000" stroke-linecap="round" stroke-linejoin="round" d="M28.058 66.39c-.314 4.524-1.345 4.983-1.027 5.416.318.433 2.879 1.02 3.368.623.489-.397 1.143-1.66 1.344-3.27 0 0-.6 3.68 0 4.093.388.267 3.179.267 3.723-.108m36.477-6.754c.314 4.524 1.345 4.983 1.027 5.416-.318.433-2.879 1.02-3.368.623-.489-.397-1.143-1.66-1.344-3.27 0 0 .6 3.68 0 4.093-.388.267-3.179.267-3.723-.108"/><path fill="#416BFF" d="m28.782 44.482 1.261 2.792.57 6.495-1.693.91-4.12-4.183-.862-2.666.735-1.038 1.42-1.437 1.693-.782.996-.091Z"/><path fill="#416BFF" d="m27.218 53.699 1.924 1.112-.962.541-2.345 1.354-2.196-.872-.691-1.023.481-1.473.842-1.083 1.353-.27 1.594 1.714Z"/><path fill="#fff" d="m23.386 56.094 2.458.633-1.24 2.645-2.318-.725v-1.265l1.1-1.288Z"/><path fill="#FF3535" d="m22.145 57.429 1.03-1.405h-2.762l1.732 2.552V57.43Z"/><path fill="#fff" d="m23.158 49.64 2.165 1.864-1.383 1.142-.782 2.045-2.285-2.285.692-1.745 1.593-1.022Z"/><path fill="#FF3535" d="m20.422 48.045 2.526 1.354-2.285 2.556-.903-3.428.662-.482Z"/><path fill="#fff" d="m27.394 41.883 1.504 2.535-1.875.494-2.163 1.751-.989.866-.618-1.401.124-2.143 1.195-1.174 1.586-.928h1.236Z"/><path fill="#FF3535" d="m25.094 39.328 1.912 2.182-1.322.622-1.577 1.401-.956.096v-1.927l.765-1.992 1.178-.382Z"/><path stroke="#000" stroke-linecap="round" stroke-linejoin="round" d="M30.917 52.506c.825-4.28-4.746-13.487-6.088-13.189-3.244.721-2.08 12.48 3.84 15.2"/><path stroke="#000" stroke-linecap="round" stroke-linejoin="round" d="M27.414 42.163c-1.28-1.03-4.166 1.204-4.166 3.362m5.722-.753c-1.28-1.029-5.145 1.556-4.919 4.09m1.733 3.228c-1.545-2.01-4.662-4.224-5.686-3.879-1.206.407.576 7.824 7.634 8.875"/><path stroke="#000" stroke-linecap="round" stroke-linejoin="round" d="M23.587 49.873c-.963-.342-3.145 1.391-2.418 3.124m4.686-.792c-1.605-.641-3.23 1.199-2.653 2.932m2.243 1.334c-1.37-.543-4.478-.978-4.956-.304-.36.505 1.494 3.324 4.956 3.134"/><path stroke="#000" stroke-linecap="round" stroke-linejoin="round" d="M23.948 55.954c-.656-.328-2.424 1.72-1.681 2.568"/><path fill="#A49716" d="m29.5 79.81.5-2 1.5 1.5-1 1-1-.5Zm41 0-.5-2-1 1.5 1 1 .5-.5Z"/><path fill="#FFDDCF" d="m47 97.31-2.5.5.5 1 .5 2.5h9v-1.5l.5-1.5-2-1-3 1-3-1Z"/><path fill="#35F3FF" d="m35.5 44.31-4.5 1.5.5-4 2.5-4.5 3.5-3.5 5-2.5 6.5-1 6 .5 6 2 5 4 2.5 5 .5 4-1.5-.5-8-1.5-8-.5-10.5.5-5.5.5Z"/><path fill="#495B6D" d="m29 47.31 2-1.5.5 1 2 1 5.5 1 4.5.5H54l6.5-.5 4.5-.5 3.5-1 .5-1 2 1 1 2.5-.5 3-3 1.5-4 1-8.5 1H46l-9-.5-6.5-1.5-2-1.5-.5-2.5 1-3Z"/><path fill="#627B94" d="m29.5 46.81 1.5-.5 1 1 4 1 8 1h11l11.5-1.5 2.5-1.5 2 1-2.5 1.5-5.5 1.5-5.5.5-5.5.5h-4l-5-.5-5.5-.5-4.5-1-3.5-1.5v-1Z"/><path fill="#FFDDCF" d="m24 57.31 3.322-2 1.678-2 5.5 2 5.5.5 6.5.5H56l10.5-1 4.5-2 2 2 2.5 1.5 1 2v3.5l-.5 2.5-1.5 2-3 .5-2-.5-1.5-1-1.5 3.5-2.5 2.5-4 2-6 1h-7l-6.5-1-3-1-3.5-2.5-1.5-2.5-.5-2.5-1 1-2 1h-2.5l-2-1.5-1-2-.5-2.5 1-4Z"/><path fill="#FFB89B" d="m47 74.81-5-.5 1 1.5 2.5 1.5 2.5.5 1 1 1 1 1-1 1-1 2.5-.5 2-1.5 1.5-1.5-6 .5h-5Z"/><path fill="#416BFF" d="m50 74.31 8-.5 4.5-1.5-.5 3.5-12 22-.5.5-3.5-1-.5.5-.5.5.5 3h-21l-.5-.5v-5l.5-3.5 1-3.5 2-4.5 2.5-4 5-3.5 1.5-.5 1.5-1-1-3 8.5 2H50Z"/><path fill="#416BFF" d="m52 77.31-1 1.5-1 1v18l.5.5 3.5-1 1 .5-.5 1-.5 2.5h21.5l.5-.5v-5l-.5-3.5-1-3.5-2-4.5-2.5-4-5-3.5-1.5-.5-2-1-.5.5.5 1-9.5.5Z"/><path fill="#35F3FF" d="m35.211 76.843 1.883-.837L50.09 86.514l12.57-10.409 2.508.756-15.493 12.71L35.21 76.843Z"/><path stroke="#000" stroke-linecap="round" stroke-linejoin="round" d="M37.148 76.049 50 86.997l12.852-10.948m1.932 1.064L50.648 89.072a1 1 0 0 1-1.297 0l-14.026-11.96"/><path fill="#fff" d="m36.063 75.703-.357-3.645 7.188 1.786 7.471.49 7.673-.692 6.33-1.884-.277 4.252-6.255 1.642-4.962.75h-5.047l-5.365-.577-6.399-2.122Z"/><path fill="#fff" d="m49.952 74.231-2.468.27-.502 1.91.617 1.754 4.938-.115.366-1.832-.366-1.717-2.585-.27Z"/><path fill="#35F3FF" d="m67.5 82.31 1-2.5.5 2 1.5 2 2 1 1 2H72l-3-2-1.5-2.5Z"/><path fill="#FF3535" d="m69.5 82.81-.5-2.5h1l1 2 1.5 2h-1l-2-1.5Z"/><path stroke="#000" stroke-linecap="round" stroke-linejoin="round" d="M69 80.31c-.5 2.5 2 4.5 4 4.5"/><path stroke="#000" stroke-linecap="round" stroke-linejoin="round" d="M67.5 81.81c0 1 2 4.5 6 5"/><path fill="#35F3FF" d="m32.5 82.31-1-2.5-.5 2-1.5 2-2 1-1 2H28l3-2 1.5-2.5Z"/><path fill="#FF3535" d="m30.5 82.81.5-2.5h-1l-1 2-1.5 2h1l2-1.5Z"/><path stroke="#000" stroke-linecap="round" stroke-linejoin="round" d="M31 80.31c.5 2.5-2 4.5-4 4.5"/><path stroke="#000" stroke-linecap="round" stroke-linejoin="round" d="M32.5 81.81c0 1-2 4.5-6 5"/><path fill="#fff" fill-rule="evenodd" stroke="#000" stroke-linecap="round" stroke-linejoin="round" d="M33.489 80a2 2 0 0 1 2.82-.201L50 91.664l13.69-11.865a2 2 0 1 1 2.62 3.023l-15 13a2 2 0 0 1-2.62 0l-15-13a2 2 0 0 1-.2-2.822Z" clip-rule="evenodd"/><path fill="#fff" d="M48 80.31h4v17.714h-4z"/><path stroke="#000" stroke-linecap="round" stroke-linejoin="round" d="M50 78.112V98.31m-1.5-18.5v17.941m3-17.941v17.941"/><path stroke="#000" stroke-linecap="round" d="M32.28 62.31S30.274 68.678 37 72.324l.612.295M67.72 62.31s2.044 6.49-4.915 10.117l-.473.244"/><path stroke="#000" d="M47.5 74.503s-.5-.476-1.25-.476-1.25.452-1.25.952v1.904c0 .5 0 1.427 1.25 1.427s1.25-.475 1.25-.475"/><path stroke="#000" d="M45.5 74.383s-.5-.466-1.25-.466-1.25.442-1.25.932v1.864c0 .49 0 1.399 1.25 1.399.812 0 .904-.13.904-.13"/><path stroke="#000" d="M43.5 74.008s-.5-.475-1.25-.475-1.25.45-1.25.95v1.902c0 .5 0 1.425 1.25 1.425H43"/><path stroke="#000" d="M41.5 73.513s-.5-.475-1.25-.475-1.25.45-1.25.95v1.898c0 .5 0 1.424 1.25 1.424H41"/><path stroke="#000" d="M39.5 73.018s-.459-.474-1.147-.474-1.147.45-1.147.948v1.896c0 .499 0 1.422 1.147 1.422h.688m13.455-2.307s.5-.476 1.25-.476 1.25.452 1.25.952v1.904c0 .5 0 1.428-1.25 1.428s-1.25-.476-1.25-.476"/><path stroke="#000" d="M54.496 74.384s.5-.467 1.25-.467 1.25.442 1.25.932v1.865c0 .49 0 1.398-1.25 1.398-.812 0-.904-.13-.904-.13"/><path stroke="#000" d="M56.496 74.008s.5-.475 1.25-.475 1.25.45 1.25.95v1.902c0 .5 0 1.425-1.25 1.425h-.75"/><path stroke="#000" d="M58.496 73.513s.5-.475 1.25-.475 1.25.45 1.25.95v1.898c0 .5 0 1.424-1.25 1.424h-.75"/><path stroke="#000" d="M60.496 73.018s.459-.474 1.147-.474 1.147.45 1.147.948v1.896c0 .499 0 1.422-1.147 1.422h-.688"/><path stroke="#000" d="M64.37 71.376v3.012c0 .499 0 1.423-1.148 1.423h-.688M35.63 71.376v3.012c0 .499 0 1.423 1.147 1.423h.688M50 74.003c1.714 0 2.571.415 2.571.415s.429.568.429 1.815c0 1.246-.429 1.944-.429 1.944s-.857.416-2.571.416c-1.714 0-2.571-.416-2.571-.416S47 77.48 47 76.233c0-1.247.429-1.815.429-1.815s.857-.415 2.571-.415Z"/><ellipse cx="38" cy="68.199" fill="#EFCABB" rx="2" ry="3.5" transform="rotate(-60 38 68.2)"/><ellipse cx="2" cy="3.5" fill="#EFCABB" rx="2" ry="3.5" transform="scale(-1 1) rotate(-60 26.142 91.083)"/><path fill="#fff" stroke="#000" d="M72 25.197c0 1.438-2.82 5.752-4.231 5.033-1.41-.719-.706-5.033.705-6.47 1.083-1.104 3.526 0 3.526 1.437Z"/><path fill="#fff" stroke="#000" stroke-linejoin="round" d="M79.905 30.31c-1.79 0-3.23 1.354-3.727 2.032-.994-1.355-2.757-3.274-4.472-.678-2.236 3.386 1.49 4.063 2.236 2.032 2.236 3.385 4.808 3.08 6.708 1.354 2.236-2.031 1.49-4.74-.745-4.74Z"/><path fill="#fff" stroke="#000" d="M28 25.197c0 1.438 2.82 5.752 4.231 5.033 1.41-.719.706-5.033-.705-6.47-1.083-1.104-3.526 0-3.526 1.437Z"/><path fill="#fff" stroke="#000" stroke-linejoin="round" d="M20.095 30.31c1.79 0 3.23 1.354 3.727 2.032.994-1.355 2.758-3.274 4.472-.678 2.236 3.386-1.49 4.063-2.236 2.032-2.236 3.385-4.808 3.08-6.708 1.354-2.236-2.031-1.49-4.74.745-4.74Z"/><path fill="#fff" d="m36.032 55.484-1.782-.422-3.409-.732-1.925-1.284-.556-1.583-.362 2.089-.403 1.267-2.588 1.123-.54 1.13 2.31-1.588h1.883l-.3 1.198-1.215 6.845 2.627-.813.455 2.829h4.586l.357-4.775.862-5.284Zm28.036 0 1.782-.422 3.408-.732 1.925-1.284.556-1.583.363 2.089.403 1.267 2.588 1.123.54 1.13-2.311-1.588H71.44l.3 1.198 1.214 6.845-2.627-.813-.454 2.829h-4.587l-.357-4.775-.861-5.284Z"/><path stroke="#000" stroke-linecap="round" d="M28.879 55.417a4.844 4.844 0 0 0-1.879-.03c-2.96.493-4.083 4-3.5 7.5.417 2.5 1.5 4.5 4.5 4.5 1.619 0 2.927-.598 3.57-1.411"/><path stroke="#000" stroke-linecap="round" d="M25 60.387c.75-.75 1.57-1.149 2.382-1.248M29 64.387c-.473-.158-.897-.565-1.208-1.096m43.328-7.874a4.849 4.849 0 0 1 1.88-.03c2.959.493 4.083 4 3.5 7.5-.417 2.5-1.5 4.5-4.5 4.5-1.62 0-2.928-.598-3.57-1.411"/><path stroke="#000" stroke-linecap="round" d="M75 60.387c-.75-.75-1.571-1.149-2.383-1.248M71 64.387c.473-.158.897-.565 1.207-1.096"/><path stroke="#000" stroke-linecap="round" stroke-linejoin="round" d="M75.85 100.81c.97-7.765-2.77-22.125-13.05-24.79"/><path fill="#FFEA1B" d="m68.35 76.81 1.5 1-1.5 2-1 2.5-1 3.5v3l.5 3.5 1 3-3.5.5-1-2.5-1-4v-2.5l.5-2.5.5-2.5 1-3 1.5-2 1-.5 1.5.5Z"/><path stroke="#000" d="M69.85 80.31c2-1.5-1.146-4.295-3.072-3.974-3 .5-6.428 11.474-2.428 19.474"/><path stroke="#000" d="M69.778 77.835c-4.5 5-3.928 13.475-2.428 15.975"/><path stroke="#000" d="M68.778 76.835c-4.5 5-5 15-2 18.5"/><path stroke="#000" stroke-linecap="round" stroke-linejoin="round" d="M71.85 97.31c-5-2-14.5-1.5-16 0-1.265 1.265-1.5 3-1.5 3.5m12-5c.5-1.5 1-3.5 3.5-5.5"/><path stroke="#000" stroke-linecap="round" stroke-linejoin="round" d="M66.35 95.81c.5-1.5 3-4 7-3.5"/><path stroke="#000" stroke-linecap="round" stroke-linejoin="round" d="M66.35 95.81c.5-.5 2.5-2 4.5-1.5m-10.5 2c-1 2-1 3.5 0 4.5m-36.202 0C23.184 93.095 26.87 78.87 37 76.072"/><path fill="#FFEA1B" d="m31.648 76.81-1.5 1 1.5 2 1 2.5 1 3.5v3l-.5 3.5-1 3 3.5.5 1-2.5 1-4v-2.5l-.5-2.5-.5-2.5-1-3-1.5-2-1-.5-1.5.5Z"/><path stroke="#000" d="M30.148 80.31c-2-1.5 1.146-4.295 3.072-3.974 3 .5 6.428 11.474 2.428 19.474"/><path stroke="#000" d="M30.22 77.835c4.5 5 3.928 13.475 2.428 15.975"/><path stroke="#000" d="M31.22 76.835c4.5 5 5 15 2 18.5"/><path stroke="#000" stroke-linecap="round" stroke-linejoin="round" d="M28.148 97.31c5-2 14.5-1.5 16 0 1.265 1.265 1.5 3 1.5 3.5m-12-5c-.5-1.5-1-3.5-3.5-5.5"/><path stroke="#000" stroke-linecap="round" stroke-linejoin="round" d="M33.648 95.81c-.5-1.5-3-4-7-3.5"/><path stroke="#000" stroke-linecap="round" stroke-linejoin="round" d="M33.648 95.81c-.5-.5-2.5-2-4.5-1.5m10.5 2c1 2 1 3.5 0 4.5M45 98.31s1.558-1.116 2.5-.907c1.132.252 1.431.907 2.5.907 1.068 0 1.368-.655 2.5-.907.942-.21 2.5.907 2.5.907"/><path stroke="#fff" stroke-linecap="round" stroke-linejoin="round" stroke-opacity=".66" d="M66 45.31c0-1.056-.121-2.057-.352-3M34 45.31c0-8.105 7.163-13 16-13 1.746 0 3.427.191 5 .56m3.5 1.2c1.966.917 3.645 2.176 4.912 3.74"/><path stroke="#000" stroke-linejoin="round" d="M69 46.31c0-9.976-8.507-16-19-16s-19 6.024-19 16"/><ellipse cx="50" cy="46.31" fill="#35F3FF" stroke="#000" rx="19" ry="3"/><path fill="#627B94" d="m31 50.31-2.5-1.5-.5 2 1 2.5 1.5 1 3.5 1 5 .5h2v-2l-.5-1.5-1-.5h-2l-3.5-.5-3-1Z"/><path stroke="#000" d="M28.5 48.81c2.5 2 7.25 2.929 11 3.5 2.224.34 1.438 2.715 1.438 4"/><circle cx="39.228" cy="53.546" r=".5" fill="#000"/><ellipse cx="29.892" cy="52.31" fill="#000" rx=".392" ry=".5" transform="rotate(-32.008 29.892 52.31)"/><path fill="#627B94" d="m69 50.31 2.5-1.5.5 2-1 2.5-1.5 1-3.5 1-5 .5h-2v-2l.5-1.5 1-.5h2l3.5-.5 3-1Z"/><path stroke="#000" d="M71.5 48.81c-2.5 2-7.25 2.929-11 3.5-2.224.34-1.438 2.715-1.438 4"/><circle cx=".5" cy=".5" r=".5" fill="#000" transform="matrix(-1 0 0 1 61.272 53.046)"/><ellipse cx=".392" cy=".5" fill="#000" rx=".392" ry=".5" transform="scale(-1 1) rotate(-32.008 55.461 149.305)"/><path stroke="#000" d="M30.855 46.31c-2.855 0-3.24 5-2.12 6.539C29.987 54.569 36.57 56.31 50 56.31s20.014-1.741 21.265-3.461c1.12-1.539.735-6.539-2.12-6.539"/><path stroke="#000" stroke-linecap="round" stroke-linejoin="round" d="M35.843 55.677c-1.252 4.177-.875 9.76-1.252 9.93-1.253.562-2.93.486-4.309 0-.649-.228 0-5.649.695-8.64m33.185-1.29c1.252 4.177.874 9.76 1.252 9.93 1.252.562 2.929.486 4.308 0 .65-.228 0-5.649-.695-8.64m-39.659-1.873c-1.383 1.276-2.967 7.826-2.263 8.03.704.205 2.766 0 2.766 0m40.763-8.03c1.382 1.276 2.967 7.826 2.263 8.03-.704.205-2.766 0-2.766 0"/><path fill="#fff" stroke="#000" stroke-linecap="round" stroke-linejoin="round" d="M45.457 37.017a1 1 0 0 0-1.414-1.414l-4 4a1 1 0 0 0 0 1.414l4 4a1 1 0 0 0 1.414-1.414l-3.293-3.293 3.293-3.293Zm9.086 6.586a1 1 0 0 0 1.414 1.414l4-4a1 1 0 0 0 0-1.414l-4-4a1 1 0 0 0-1.414 1.414l3.293 3.293-3.293 3.293Zm-1.51-6.963a.502.502 0 0 0 .042-.112 1 1 0 0 0-1.92-.552l-4.211 7.995a.502.502 0 0 0-.043.112 1 1 0 0 0 1.921.552l4.21-7.995Z"/><path fill="#fff" fill-opacity=".44" d="M50 34.31c-7.732 0-14 4.351-14 11.556 0 0 3.316 1.444 14 1.444 10.684 0 14-1.444 14-1.444 0-7.205-6.268-11.556-14-11.556Z"/><path fill="#fff" d="M38.706 40.385c.845-2.223 2.96-4.075 5.074-4.075s1.973.741 0 2.593c-1.973 1.852-3.552 3.334-4.228 3.334-.846 0-1.269-.741-.846-1.852Z" opacity=".66"/><ellipse cx="37.587" cy="45.216" fill="#fff" opacity=".66" rx="1.061" ry="1.901" transform="rotate(17.63 37.587 45.216)"/><path stroke="#000" stroke-linecap="round" d="M29.5 46.81c-1.5 2.5 11.5 4.5 20.5 4.5s21.5-2 20.5-4.5"/><path fill="#fff" d="M26.912 84.41c.378-.766.451-.826.451-.826l-1.036-1.621L24 80.81l-2.5-.5-2 1-1.5 2-.5 1.5-1.5-.5-2.5.5-3 1.5-1.5 2.5v3.5l1.5 3 2 1.5 1.5.5 3.5.5 2-.5 2 .5 2 1h3l3-.5 3-1 2.5-2.5 1 .5 3.5 1 3.5-1h2.5l1.5-1.5-1-1-2.5-.5-2.5-1h-2l-1.5-1-3-1H32l-3 1.5-2-1.5-2-1 .736-1.231c.297-.802.812-1.93 1.176-2.668Z"/><path stroke="#000" stroke-linecap="round" stroke-linejoin="round" d="M33.856 93.724c3.158 3.519 7.598 2.404 9.313 1.284 1.35.368 3.831.493 3.831-.967s-1.914-1.777-3.044-1.556c-.564-.808-2.543-1.83-4.573-1.017"/><path stroke="#000" stroke-linecap="round" d="M40.324 92.992c-1.174-2.24-6.13-5.58-11.087-2.46m.971 1.918c-1.717-3.384-6.18-5.935-11.282-3.384m16.187 5.837c-1.324 2.256-9.957 7.603-17.707.49"/><path stroke="#000" stroke-linecap="round" stroke-linejoin="round" d="M19.172 97.356c-3.401.98-9.81.245-10.154-5.886-.395-7.053 5.74-7.424 8.584-6.72.589-4.415 6.884-5.876 10.07-1.402"/><path stroke="#000" stroke-linecap="round" d="M21.82 84.16c2.944.295 3.68 2.748 3.68 4.17m-12.379 4.893c.19 1.445 1.659 2.1 2.186 2.1"/><path fill="#fff" d="M73.088 84.41c-.378-.766-.451-.826-.451-.826l1.036-1.621L76 80.81l2.5-.5 2 1 1.5 2 .5 1.5 1.5-.5 2.5.5 3 1.5 1.5 2.5v3.5l-1.5 3-2 1.5-1.5.5-3.5.5-2-.5-2 .5-2 1h-3l-3-.5-3-1-2.5-2.5-1 .5-3.5 1-3.5-1h-2.5l-1.5-1.5 1-1 2.5-.5 2.5-1h2l1.5-1 3-1H68l3 1.5 2-1.5 2-1-.736-1.231c-.297-.802-.812-1.93-1.176-2.668Z"/><path stroke="#000" stroke-linecap="round" stroke-linejoin="round" d="M66.144 93.724c-3.158 3.519-7.598 2.404-9.313 1.284-1.35.368-3.831.493-3.831-.967s1.914-1.777 3.044-1.556c.564-.808 2.543-1.83 4.573-1.017"/><path stroke="#000" stroke-linecap="round" d="M59.676 92.992c1.174-2.24 6.13-5.58 11.087-2.46m-.971 1.918c1.717-3.384 6.18-5.935 11.282-3.384m-16.187 5.837c1.324 2.256 9.957 7.603 17.707.49"/><path stroke="#000" stroke-linecap="round" stroke-linejoin="round" d="M80.828 97.356c3.401.98 9.81.245 10.154-5.886.395-7.053-5.74-7.424-8.584-6.72-.589-4.415-6.884-5.876-10.07-1.402"/><path stroke="#000" stroke-linecap="round" d="M78.18 84.16c-2.944.295-3.68 2.748-3.68 4.17m12.379 4.893c-.19 1.445-1.659 2.1-2.186 2.1"/><rect width="11" height="10" x="37.5" y="54.81" fill="#495B6D" stroke="#000" rx="5"/><rect width="8" height="7" x="39" y="56.31" fill="url(#b)" stroke="#000" rx="3.5"/><rect width="11" height="10" x="51.5" y="54.81" fill="#495B6D" stroke="#000" rx="5"/><rect width="8" height="7" x="53" y="56.31" fill="url(#c)" stroke="#000" rx="3.5"/><path fill="#fff" stroke="#000" stroke-linejoin="round" d="M46.91 63.31c.583.018 1.416.5 1.416.5h3.302s.833-.482 1.415-.5c1.738-.052 4.07 3.674 2.36 4-.977.187-2.36-1-2.36-1s-.75 1-1.415 1c-.664 0-1.415-1-1.415-1s-.751 1-1.416 1c-.664 0-1.415-1-1.415-1s-1.758 1.484-2.83 1c-1.6-.72.62-4.052 2.358-4Z"/><path fill="#FF3535" stroke="#000" d="m50 64.81.248.001c.185.002.375.003.546-.002a2.91 2.91 0 0 0 .768-.107 1.27 1.27 0 0 0 .691-.484c.178-.256.247-.568.247-.908 0-.377-.124-.776-.285-1.138a6.262 6.262 0 0 0-.62-1.067 5.684 5.684 0 0 0-.732-.849 2.413 2.413 0 0 0-.374-.29.96.96 0 0 0-.489-.156.96.96 0 0 0-.49.157 2.413 2.413 0 0 0-.373.29 5.684 5.684 0 0 0-.731.848 6.262 6.262 0 0 0-.62 1.067c-.162.362-.286.761-.286 1.138 0 .34.069.652.247.908.181.261.435.405.691.484.246.076.516.1.768.107.171.005.36.004.546.002H50Z"/><path fill="#fff" d="M27.332 6.91c.152 0 .272.04.36.12.088.08.148.172.18.276l2.676 7.656a.264.264 0 0 1-.072.276.244.244 0 0 1-.18.072h-2.22c-.24 0-.396-.1-.468-.3l-.288-.792h-2.58l-.288.792c-.072.2-.228.3-.468.3h-2.22a.287.287 0 0 1-.192-.072.287.287 0 0 1-.06-.276l2.676-7.656a.614.614 0 0 1 .18-.276.515.515 0 0 1 .36-.12h2.604Zm-1.308 2.736-.672 2.232h1.356l-.684-2.232ZM38.376 6.91c.088 0 .164.032.228.096s.096.14.096.228v4.908c0 1.096-.348 1.92-1.044 2.472-.696.544-1.64.816-2.832.816-1.2 0-2.152-.272-2.856-.816-.696-.552-1.044-1.376-1.044-2.472V7.234c0-.088.032-.164.096-.228a.311.311 0 0 1 .228-.096H33.6c.088 0 .164.032.228.096s.096.14.096.228v4.86c0 .304.072.536.216.696.152.152.376.228.672.228.296 0 .516-.076.66-.228.152-.16.228-.392.228-.696v-4.86c0-.088.032-.164.096-.228a.311.311 0 0 1 .228-.096h2.352Zm9.361 3.3c.016.448.024.752.024.912 0 .152-.008.444-.024.876-.048 1.104-.424 1.932-1.128 2.484-.696.552-1.636.828-2.82.828h-3.516a.311.311 0 0 1-.228-.096.311.311 0 0 1-.096-.228V7.234c0-.088.032-.164.096-.228a.311.311 0 0 1 .228-.096h3.456c.76 0 1.436.128 2.028.384a3.302 3.302 0 0 1 1.416 1.128c.352.496.54 1.092.564 1.788Zm-4.788-.96v3.72h.78c.28 0 .504-.08.672-.24.176-.168.272-.412.288-.732a13.6 13.6 0 0 0 .024-.9c0-.376-.008-.672-.024-.888-.016-.32-.12-.56-.312-.72-.184-.16-.42-.24-.708-.24h-.72Zm6.207 6.06a.311.311 0 0 1-.228-.096.311.311 0 0 1-.096-.228V7.234c0-.088.032-.164.096-.228a.311.311 0 0 1 .228-.096h2.448c.088 0 .164.032.228.096s.096.14.096.228v7.752a.311.311 0 0 1-.096.228.311.311 0 0 1-.228.096h-2.448Zm10.994-8.4c.088 0 .164.032.228.096s.096.14.096.228v1.932a.311.311 0 0 1-.096.228.311.311 0 0 1-.228.096h-1.992v5.496a.311.311 0 0 1-.096.228.311.311 0 0 1-.228.096h-2.4a.311.311 0 0 1-.228-.096.311.311 0 0 1-.096-.228V9.49h-1.992a.311.311 0 0 1-.228-.096.311.311 0 0 1-.096-.228V7.234c0-.088.032-.164.096-.228a.311.311 0 0 1 .228-.096h7.032Zm8.904 5.28c-.048 1.056-.428 1.86-1.14 2.412-.712.552-1.668.828-2.868.828s-2.156-.276-2.868-.828c-.712-.552-1.092-1.356-1.14-2.412a31.75 31.75 0 0 1-.012-1.044c0-.488.004-.844.012-1.068.024-.688.204-1.28.54-1.776a3.22 3.22 0 0 1 1.404-1.128c.592-.256 1.28-.384 2.064-.384s1.472.128 2.064.384a3.142 3.142 0 0 1 1.392 1.128c.344.496.528 1.088.552 1.776.016.448.024.804.024 1.068s-.008.612-.024 1.044Zm-4.008.9c.272 0 .484-.08.636-.24.16-.16.244-.404.252-.732.016-.464.024-.804.024-1.02 0-.232-.008-.564-.024-.996-.008-.328-.092-.572-.252-.732-.16-.16-.372-.24-.636-.24s-.476.08-.636.24c-.16.16-.244.404-.252.732-.008.216-.012.548-.012.996 0 .448.004.788.012 1.02.008.328.088.572.24.732.16.16.376.24.648.24Zm12.842 1.824a.299.299 0 0 1 .036.132.264.264 0 0 1-.084.192.244.244 0 0 1-.18.072H75.2a.578.578 0 0 1-.348-.096.622.622 0 0 1-.168-.228l-1.032-2.292h-.492v2.292a.311.311 0 0 1-.096.228.311.311 0 0 1-.228.096h-2.352a.311.311 0 0 1-.228-.096.311.311 0 0 1-.096-.228V7.234c0-.088.032-.164.096-.228a.311.311 0 0 1 .228-.096h3.552c1.152 0 2.052.26 2.7.78.648.512.972 1.224.972 2.136 0 .52-.116.98-.348 1.38a2.895 2.895 0 0 1-.948.972l1.476 2.736Zm-3.852-4.5a.508.508 0 0 0 .408-.168.688.688 0 0 0 .144-.444.739.739 0 0 0-.144-.456c-.088-.136-.224-.204-.408-.204h-.876v1.272h.876Z"/><path fill="#FF3535" stroke="#000" stroke-linejoin="round" d="M48.772 76.69a1 1 0 0 1 .949-.684h.558a1 1 0 0 1 .949.684L52 79.006s.5 2-2 2-2-2-2-2l.772-2.316Z"/><path stroke="#000" stroke-linejoin="round" d="M28.304 51.707c-.303.595-.656 2.983-.656 3.656m44.047-3.656c.302.595.655 2.983.655 3.656"/></g><defs><linearGradient id="b" x1="43" x2="43" y1="55.81" y2="63.81" gradientUnits="userSpaceOnUse"><stop stop-color="#B3C3FF"/><stop offset="1" stop-color="#416BFF"/></linearGradient><linearGradient id="c" x1="57" x2="57" y1="55.81" y2="63.81" gradientUnits="userSpaceOnUse"><stop stop-color="#B3C3FF"/><stop offset="1" stop-color="#416BFF"/></linearGradient></defs></svg>