<svg xmlns="http://www.w3.org/2000/svg" width="32" height="32" fill="none"><path fill="#fff" fill-opacity=".44" fill-rule="evenodd" d="M30 16c0 7.732-6.268 14-14 14S2 23.732 2 16 8.268 2 16 2s14 6.268 14 14Zm-17.967 5.571H9.316c-.571 0-.853 0-1.025-.11a.69.69 0 0 1-.313-.54c-.01-.203.13-.45.413-.945L15.099 8.15c.286-.503.43-.754.612-.846.197-.1.43-.1.626 0 .183.092.327.343.613.846l1.379 2.407.007.012c.308.539.464.812.533 1.099a2.06 2.06 0 0 1 0 .956c-.07.289-.224.564-.537 1.11l-3.524 6.23-.009.016c-.31.543-.467.818-.685 1.026a2.053 2.053 0 0 1-.836.485c-.286.08-.606.08-1.245.08Zm6.861 0h3.893c.575 0 .864 0 1.036-.113a.688.688 0 0 0 .313-.543c.01-.197-.128-.435-.399-.901a8.152 8.152 0 0 1-.028-.049l-1.95-3.336-.022-.037c-.274-.464-.412-.698-.59-.788a.685.685 0 0 0-.623 0c-.178.093-.323.337-.608.829l-1.944 3.336-.006.011c-.285.491-.427.737-.417.938.014.22.128.423.313.543.169.11.458.11 1.032.11Z" clip-rule="evenodd"/></svg>