<svg xmlns="http://www.w3.org/2000/svg" width="32" height="32" fill="none"><g fill="#fff" opacity=".44"><path d="m5.927 15.824.016 5.914 5.025 2.957v3.462l-7.966-4.672v-9.39l2.925 1.729Zm0-5.914v3.446L3 11.625V8.178l2.927-1.73 2.94 1.73-2.94 1.732Zm7.14-1.732 2.926-1.73 2.94 1.73-2.94 1.732-2.927-1.732Z"/><path d="M8.041 20.512v-3.463l2.927 1.732v3.446L8.04 20.512Zm5.025 5.423 2.927 1.73 2.94-1.73v3.446l-2.94 1.731-2.927-1.731v-3.446ZM23.131 8.178l2.926-1.73 2.941 1.73v3.447l-2.94 1.73V9.91L23.13 8.178Zm2.926 13.56.017-5.914L29 14.092v9.391l-7.966 4.672v-3.462l5.023-2.955Z"/><path d="m23.959 20.512-2.927 1.715V18.78l2.927-1.73v3.462Z"/><path d="m23.959 11.136.016 3.462-5.04 2.957v5.928l-2.926 1.715-2.927-1.715v-5.928l-5.039-2.957v-3.463l2.94-1.73 5.008 2.97 5.04-2.97 2.94 1.73h-.012ZM8.04 5.223 15.993.535l7.966 4.688-2.927 1.732-5.04-2.972-5.024 2.972L8.04 5.223Z"/></g></svg>