<svg xmlns="http://www.w3.org/2000/svg" width="24" height="24" fill="none"><path stroke="#fff" stroke-linecap="round" stroke-linejoin="round" stroke-width="2" d="M8.575 17.45a10.924 10.924 0 0 1-.92 1.526.057.057 0 0 1-.063.021 14.816 14.816 0 0 1-4.494-2.318.063.063 0 0 1-.024-.043C2.761 13.21 3.4 9.74 5.734 6.182a.053.053 0 0 1 .024-.021A14.587 14.587 0 0 1 9.422 5a.057.057 0 0 1 .059.028c.171.31.326.63.463.957a13.433 13.433 0 0 1 4.115 0c.136-.327.288-.646.456-.957A.056.056 0 0 1 14.574 5a14.61 14.61 0 0 1 3.664 1.16c.01.004.018.012.023.021 2.033 3.051 3.037 6.493 2.662 10.455a.06.06 0 0 1-.024.042 14.765 14.765 0 0 1-4.502 2.318.056.056 0 0 1-.063-.021c-.342-.485-.65-.995-.919-1.526m-7.944-1.092c2.946 1.372 6.135 1.372 9.046 0"/><circle cx="9" cy="12" r="2" fill="#fff"/><circle cx="15" cy="12" r="2" fill="#fff"/></svg>