<svg xmlns="http://www.w3.org/2000/svg" width="32" height="32" fill="none"><rect width="30.5" height="30.5" x=".75" y=".75" stroke="#fff" stroke-width="1.5" rx="7.25"/><path fill="#fff" d="M22.261 10.182a.046.046 0 0 0-.023-.021A14.629 14.629 0 0 0 18.574 9a.054.054 0 0 0-.059.028c-.168.311-.32.63-.456.957a13.433 13.433 0 0 0-4.115 0 9.75 9.75 0 0 0-.464-.957.058.058 0 0 0-.058-.028 14.585 14.585 0 0 0-3.664 1.16.053.053 0 0 0-.024.02C7.4 13.74 6.76 17.21 7.074 20.637a.064.064 0 0 0 .024.043 14.816 14.816 0 0 0 4.494 2.319.057.057 0 0 0 .063-.021c.348-.483.655-.993.92-1.527a.059.059 0 0 0-.031-.08 9.74 9.74 0 0 1-1.404-.684.058.058 0 0 1-.029-.047c0-.01.002-.02.006-.028a.059.059 0 0 1 .017-.022c.095-.073.188-.147.279-.223a.055.055 0 0 1 .058-.008c2.946 1.372 6.135 1.372 9.046 0a.054.054 0 0 1 .03-.006c.011.002.02.006.029.013.091.077.185.151.28.224a.059.059 0 0 1 .023.05.06.06 0 0 1-.028.047 9.158 9.158 0 0 1-1.405.683.056.056 0 0 0-.033.033.058.058 0 0 0 .002.048c.27.53.577 1.04.919 1.526a.05.05 0 0 0 .028.02.056.056 0 0 0 .035.001A14.765 14.765 0 0 0 24.9 20.68a.06.06 0 0 0 .023-.042c.376-3.962-.628-7.404-2.66-10.455Zm-9.246 8.367c-.887 0-1.618-.83-1.618-1.85 0-1.021.717-1.852 1.618-1.852.908 0 1.632.838 1.618 1.851 0 1.02-.717 1.851-1.618 1.851Zm5.981 0c-.887 0-1.618-.83-1.618-1.85 0-1.021.717-1.852 1.618-1.852.908 0 1.632.838 1.618 1.851 0 1.02-.71 1.851-1.618 1.851Z"/></svg>