<svg xmlns="http://www.w3.org/2000/svg" width="32" height="32" fill="none"><rect width="30.5" height="30.5" x=".75" y=".75" stroke="#fff" stroke-width="1.5" rx="7.25"/><path fill="#fff" d="M15.551 21.505a.531.531 0 0 1 .393.179.618.618 0 0 1 .121.198.661.661 0 0 1-.121.665.555.555 0 0 1-.181.132.514.514 0 0 1-.213.046.533.533 0 0 1-.394-.18.64.64 0 0 1-.162-.43.64.64 0 0 1 .164-.432.533.533 0 0 1 .393-.178Zm8.728-3.77a.514.514 0 0 1-.213-.047.555.555 0 0 1-.18-.133.618.618 0 0 1-.121-.197.663.663 0 0 1 0-.467.617.617 0 0 1 .121-.198.556.556 0 0 1 .18-.132.514.514 0 0 1 .214-.046.53.53 0 0 1 .393.179.64.64 0 0 1 .163.43.64.64 0 0 1-.163.432.533.533 0 0 1-.394.178Zm0-2.495c-.456 0-.894.199-1.217.552a1.983 1.983 0 0 0-.504 1.333c0 .203.03.404.09.6l-5.684 3.316a1.777 1.777 0 0 0-.615-.597 1.595 1.595 0 0 0-.798-.216c-.656 0-1.254.412-1.543 1.055L8.9 18.332c-.54-.31-.944-1.284-.901-2.17.022-.463.167-.822.39-.96.14-.087.31-.08.49.023l.034.02c1.354.78 5.782 3.337 5.97 3.431.287.147.447.206.937-.05l9.155-5.216c.135-.056.292-.197.292-.411 0-.297-.28-.414-.281-.414-.521-.273-1.322-.684-2.102-1.084-1.67-.856-3.56-1.826-4.39-2.303-.718-.412-1.295-.065-1.398.005l-.2.108c-3.738 2.026-8.741 4.74-9.026 4.93-.51.341-.825 1.018-.867 1.859-.063 1.333.557 2.724 1.444 3.233l5.401 3.052c.06.448.264.858.577 1.154.313.297.712.46 1.125.461a1.65 1.65 0 0 0 1.207-.543 1.98 1.98 0 0 0 .514-1.313l5.948-3.534c.301.259.676.4 1.059.4.456 0 .894-.199 1.216-.553.323-.353.505-.832.505-1.332 0-.5-.182-.98-.505-1.334a1.65 1.65 0 0 0-1.216-.552"/></svg>