<svg xmlns="http://www.w3.org/2000/svg" width="24" height="24" fill="none"><path fill="#fff" d="M11.002 17.005a.566.566 0 0 1 .413.18.612.612 0 0 1 .171.43.632.632 0 0 1-.172.432.584.584 0 0 1-.414.178.574.574 0 0 1-.414-.18.623.623 0 0 1-.171-.43c0-.163.062-.318.172-.432a.574.574 0 0 1 .415-.178Zm9.186-3.77a.565.565 0 0 1-.414-.18.612.612 0 0 1-.171-.43.63.63 0 0 1 .172-.432.584.584 0 0 1 .414-.178.57.57 0 0 1 .414.179.623.623 0 0 1 0 .862.574.574 0 0 1-.415.178Zm0-2.495c-.48 0-.94.199-1.28.552a1.928 1.928 0 0 0-.436 1.933l-5.984 3.316a1.83 1.83 0 0 0-.647-.597 1.747 1.747 0 0 0-.84-.216c-.69 0-1.32.412-1.625 1.055l-5.375-2.951c-.569-.31-.994-1.284-.949-2.17.024-.463.177-.822.411-.96.148-.087.327-.08.517.023l.035.02c1.425.78 6.087 3.337 6.283 3.431.303.147.471.206.988-.05l9.636-5.216c.142-.056.307-.197.307-.411 0-.297-.295-.414-.296-.414a307.01 307.01 0 0 0-2.212-1.084c-1.757-.856-3.748-1.826-4.622-2.303-.755-.412-1.363-.065-1.47.005l-.21.108c-3.936 2.026-9.203 4.74-9.503 4.93-.535.341-.868 1.018-.911 1.859-.067 1.333.586 2.724 1.52 3.233l5.685 3.052c.062.448.278.858.607 1.154.329.297.75.46 1.184.461.476 0 .932-.196 1.27-.543.339-.347.533-.819.541-1.313l6.262-3.533c.317.258.711.4 1.114.4.48-.001.941-.2 1.28-.553.34-.354.532-.834.532-1.334 0-.5-.192-.979-.531-1.333-.34-.353-.8-.552-1.28-.552"/></svg>