<svg xmlns="http://www.w3.org/2000/svg" width="24" height="24" fill="none"><path stroke="#fff" stroke-linecap="round" stroke-linejoin="round" stroke-width="2" d="M9.323 20v-2.473M4.5 15.512a2.292 2.292 0 0 1 1.67 1.108c.31.537.816.93 1.41 1.097.596.166 1.194.178 1.773-.21.145-1.007.696-2.436.696-2.436-2.427-.27-4.972-1.188-4.972-5.309A4.149 4.149 0 0 1 6.18 6.86a3.784 3.784 0 0 1 .109-2.834s.925-.29 2.983 1.098a10.57 10.57 0 0 1 5.47 0c2.087-1.387 2.982-1.098 2.982-1.098.403.894.442 1.91.11 2.834a4.148 4.148 0 0 1 1.163 2.884c0 4.13-2.565 5.038-4.972 5.308a2.496 2.496 0 0 1 .746 1.996v2.943"/></svg>