<svg xmlns="http://www.w3.org/2000/svg" width="39" height="40" fill="none"><path fill="#fff" d="M1.564 10.948c.775-.21 2.77.02 4.392.957 2.874 1.66 3.324 3.86 4.01 6.466l9.218-15.95a3.612 3.612 0 0 1 2.173-1.67 3.558 3.558 0 0 1 2.704.346c.593.343 1.04.84 1.341 1.41 1.121-.984 2.779-1.214 4.127-.435 1.348.779 1.974 2.33 1.685 3.79a3.493 3.493 0 0 1 1.886.459c1.352.78 1.978 2.334 1.683 3.798a3.492 3.492 0 0 1 1.893.458 3.557 3.557 0 0 1 1.65 2.17 3.61 3.61 0 0 1-.362 2.717L27.754 33.13c-3.422 5.923-10.96 7.97-16.84 4.572-2.848-1.645-4.773-4.27-5.62-7.207l-.011.014L.579 12.652a1.396 1.396 0 0 1 .985-1.705ZM7.12 29.951a10.303 10.303 0 0 0 4.751 6.093c4.964 2.869 11.35 1.135 14.24-3.865L36.32 14.514a1.67 1.67 0 0 0-.6-2.28 1.67 1.67 0 0 0-2.277.617l-5.392 9.33a.96.96 0 0 1-.58.447.946.946 0 0 1-1.162-.672.96.96 0 0 1 .098-.725l6.338-10.975a1.67 1.67 0 0 0-.6-2.28 1.655 1.655 0 0 0-1.254-.164 1.68 1.68 0 0 0-1.011.768l-6.35 10.988a.96.96 0 0 1-.58.447.946.946 0 0 1-1.162-.672.96.96 0 0 1 .098-.725c7.581-13.126 6.271-10.852 7.288-12.61a1.67 1.67 0 0 0-.601-2.282 1.67 1.67 0 0 0-2.276.618l-7.288 12.612a.96.96 0 0 1-.58.446.946.946 0 0 1-1.162-.672.96.96 0 0 1 .097-.725l6.34-10.971a1.67 1.67 0 0 0-.6-2.28 1.67 1.67 0 0 0-2.276.617l-9.68 16.749a1.891 1.891 0 0 1-1.792.939.941.941 0 0 1-.838-.703c-.86-3.263-1.044-5.362-3.52-6.793a5.658 5.658 0 0 0-2.407-.746l4.53 17.134Z"/></svg>