<svg xmlns="http://www.w3.org/2000/svg" width="146" height="34" fill="none"><path stroke="#9246FF" stroke-linecap="round" stroke-linejoin="round" stroke-width="4.721" d="M3.095 19.557v-7.535c0-1.67.882-3.215 2.32-4.065l8.262-4.882a4.721 4.721 0 0 1 4.803 0l8.263 4.882a4.721 4.721 0 0 1 2.319 4.065v9.956c0 1.67-.882 3.215-2.32 4.065l-8.262 4.882a4.721 4.721 0 0 1-4.803 0L6.34 26.59"/><circle cx="16.078" cy="17" r="5.902" stroke="#0CC4FF" stroke-width="4.721"/><path fill="#0CC4FF" fill-rule="evenodd" d="m13.345 22.923-5.338 5.338a2.36 2.36 0 1 1-3.338-3.339l5.337-5.337 3.339 3.338Z" clip-rule="evenodd"/><path fill="#fff" d="M53.09 15.06c.036.436.054 1.083.054 1.94s-.018 1.504-.055 1.941c-.146 2.29-.885 4.075-2.216 5.351-1.332 1.26-3.275 1.889-5.829 1.889H38.15a.725.725 0 0 1-.52-.21.667.667 0 0 1-.22-.499V8.528c0-.192.074-.358.22-.498a.725.725 0 0 1 .52-.21h6.758c2.61 0 4.588.638 5.938 1.915 1.35 1.259 2.098 3.034 2.244 5.324Zm-11.986-3.961v11.803h3.803c1.442 0 2.527-.359 3.257-1.076.748-.716 1.158-1.678 1.231-2.885a25.56 25.56 0 0 0 .055-1.94c0-.858-.019-1.505-.055-1.942-.073-1.206-.492-2.168-1.259-2.885-.748-.717-1.87-1.075-3.365-1.075h-3.667Zm20.224 1.18c1.332 0 2.509.306 3.53.918a6.105 6.105 0 0 1 2.354 2.413 6.725 6.725 0 0 1 .848 3.331v1.18a.667.667 0 0 1-.219.499.726.726 0 0 1-.52.21h-9.14c0 .752.31 1.355.931 1.81.62.437 1.36.655 2.216.655 1.004 0 1.78-.2 2.326-.603.201-.14.365-.236.493-.288.128-.053.301-.08.52-.08h2.189c.2 0 .374.07.52.21a.562.562 0 0 1 .219.447c0 .367-.256.83-.766 1.39-.493.56-1.213 1.049-2.162 1.469-.949.402-2.062.603-3.339.603-1.35 0-2.535-.297-3.557-.892a6.031 6.031 0 0 1-2.326-2.492c-.547-1.066-.82-2.3-.82-3.698 0-1.312.273-2.5.82-3.567a6.287 6.287 0 0 1 2.353-2.57c1.022-.63 2.199-.945 3.53-.945Zm3.038 5.56c-.2-1.608-1.213-2.412-3.038-2.412-.948 0-1.696.244-2.243.734-.53.49-.83 1.05-.903 1.679h6.184Zm20.611 1.837a.76.76 0 0 1 .547.21c.146.122.21.288.192.498-.073 1.014-.41 1.985-1.013 2.911-.584.927-1.477 1.688-2.681 2.282-1.186.577-2.673.866-4.46.866-2.445 0-4.36-.656-5.747-1.967-1.387-1.33-2.153-3.087-2.299-5.273A54.33 54.33 0 0 1 69.461 17c0-.594.019-1.329.055-2.203.146-2.186.912-3.934 2.299-5.246 1.386-1.329 3.302-1.993 5.746-1.993 1.788 0 3.275.297 4.46.891 1.205.577 2.099 1.33 2.682 2.256.602.927.94 1.897 1.013 2.912a.617.617 0 0 1-.192.524.822.822 0 0 1-.547.184H82.76a.856.856 0 0 1-.52-.184.76.76 0 0 1-.3-.498c-.147-.787-.584-1.452-1.314-1.994-.712-.542-1.733-.813-3.065-.813-1.35 0-2.399.367-3.147 1.102-.73.734-1.13 1.687-1.204 2.859A54.306 54.306 0 0 0 73.156 17c0 .595.018 1.33.054 2.203.073 1.172.475 2.125 1.204 2.86.748.734 1.797 1.101 3.147 1.101 1.332 0 2.363-.27 3.092-.813.73-.542 1.168-1.206 1.314-1.993a.806.806 0 0 1 .273-.499.856.856 0 0 1 .52-.183h2.217Zm15.942 5.796a.667.667 0 0 1-.219.499.726.726 0 0 1-.52.21H98.1c-.2 0-.374-.07-.52-.21a.667.667 0 0 1-.218-.499V18.81c0-1.084-.265-1.932-.794-2.544-.529-.612-1.304-.918-2.326-.918-.949 0-1.706.314-2.271.944-.566.63-.848 1.469-.848 2.518v6.662a.667.667 0 0 1-.22.499.726.726 0 0 1-.52.21h-2.079c-.2 0-.374-.07-.52-.21a.667.667 0 0 1-.219-.499V8.266c0-.193.073-.359.22-.499a.724.724 0 0 1 .52-.21h2.079c.2 0 .374.07.52.21.146.14.219.306.219.499v5.587c1.094-1.05 2.408-1.574 3.94-1.574 2.061 0 3.548.568 4.46 1.705.931 1.136 1.396 2.614 1.396 4.433v7.055Zm8.54-13.193c1.332 0 2.508.306 3.53.918a6.1 6.1 0 0 1 2.353 2.413 6.72 6.72 0 0 1 .849 3.331v1.18a.667.667 0 0 1-.219.499.727.727 0 0 1-.52.21h-9.14c0 .752.31 1.355.931 1.81.62.437 1.359.655 2.216.655 1.003 0 1.779-.2 2.326-.603a2.76 2.76 0 0 1 .492-.288c.128-.053.301-.08.52-.08h2.189c.201 0 .374.07.52.21a.562.562 0 0 1 .219.447c0 .367-.255.83-.766 1.39-.492.56-1.213 1.049-2.162 1.469-.948.402-2.061.603-3.338.603-1.35 0-2.536-.297-3.557-.892a6.026 6.026 0 0 1-2.326-2.492c-.548-1.066-.821-2.3-.821-3.698 0-1.312.273-2.5.821-3.567a6.28 6.28 0 0 1 2.353-2.57c1.022-.63 2.198-.945 3.53-.945Zm3.037 5.56c-.2-1.608-1.213-2.412-3.037-2.412-.949 0-1.697.244-2.244.734-.529.49-.83 1.05-.903 1.679h6.184Zm8.462 2.44c.109 1.014.465 1.775 1.067 2.282.62.49 1.35.734 2.189.734.821 0 1.432-.113 1.834-.34.401-.228.775-.586 1.121-1.076.146-.227.283-.402.411-.525a.746.746 0 0 1 .492-.183h2.08c.201 0 .374.07.52.21.164.14.237.306.219.498-.037.577-.301 1.224-.794 1.94-.492.718-1.24 1.339-2.243 1.863-.986.507-2.199.76-3.64.76-1.295 0-2.444-.27-3.448-.812a6.421 6.421 0 0 1-2.353-2.177 6.618 6.618 0 0 1-1.012-3.017 13.34 13.34 0 0 1-.028-1.049c0-.507.009-.865.028-1.075a6.625 6.625 0 0 1 .985-2.99 6.283 6.283 0 0 1 2.38-2.204c1.004-.56 2.153-.84 3.448-.84 1.441 0 2.654.263 3.64.788 1.003.507 1.751 1.119 2.243 1.836.493.717.757 1.364.794 1.94a.563.563 0 0 1-.219.5.726.726 0 0 1-.52.21h-2.08a.746.746 0 0 1-.492-.184 2.91 2.91 0 0 1-.411-.525c-.346-.49-.72-.848-1.121-1.075-.402-.228-1.013-.341-1.834-.341-.839 0-1.569.253-2.189.76-.602.49-.958 1.242-1.067 2.256-.018.175-.028.48-.028.918 0 .437.01.743.028.918Zm15.382 5.193a.667.667 0 0 1-.219.499.723.723 0 0 1-.519.21h-2.08a.726.726 0 0 1-.52-.21.667.667 0 0 1-.219-.499V8.266c0-.193.073-.359.219-.499a.725.725 0 0 1 .52-.21h2.08c.2 0 .374.07.519.21.146.14.219.306.219.499v8.262l4.57-3.54c.201-.14.374-.246.52-.316.146-.087.328-.13.547-.13h2.791c.183 0 .338.06.466.183a.597.597 0 0 1 .191.446c0 .192-.1.367-.301.524l-6.376 4.931 6.978 6.427c.183.175.274.34.274.498a.594.594 0 0 1-.192.446.645.645 0 0 1-.465.184h-2.654c-.383 0-.757-.15-1.122-.446l-5.227-4.774v4.511Z"/></svg>