<svg xmlns="http://www.w3.org/2000/svg" width="18" height="22" fill="none"><path fill="#FFD991" stroke="#A98711" stroke-width="3" d="M7.786 4.39a2.5 2.5 0 0 1 2.428 0l5 2.778A2.5 2.5 0 0 1 16.5 9.354v5.292a2.5 2.5 0 0 1-1.286 2.186l-5 2.778a2.5 2.5 0 0 1-2.428 0l-5-2.778A2.5 2.5 0 0 1 1.5 14.646V9.354a2.5 2.5 0 0 1 1.286-2.186l5-2.778Z"/><path fill="#FFAC0A" stroke="#FFCF24" stroke-width="3" d="M7.786 2.39a2.5 2.5 0 0 1 2.428 0l5 2.778A2.5 2.5 0 0 1 16.5 7.354v5.292a2.5 2.5 0 0 1-1.286 2.186l-5 2.778a2.5 2.5 0 0 1-2.428 0l-5-2.778A2.5 2.5 0 0 1 1.5 12.646V7.354a2.5 2.5 0 0 1 1.286-2.186l5-2.778Z"/><path fill="#fff" d="M6.09 13.85c-.08 0-.15-.03-.208-.088a.286.286 0 0 1-.088-.21v-1.671c0-.08.029-.15.088-.21a.285.285 0 0 1 .208-.087h1.87V9.109l-.968.715a.249.249 0 0 1-.165.055c-.095 0-.18-.048-.253-.143l-.968-1.254a.5.5 0 0 1-.043-.165c0-.051.01-.1.033-.143a.352.352 0 0 1 .11-.121l2.386-1.826a.413.413 0 0 1 .242-.077h2.08c.08 0 .15.03.209.088a.285.285 0 0 1 .088.209v5.137h1.43c.08 0 .15.03.209.088a.285.285 0 0 1 .088.209v1.672c0 .08-.03.15-.088.209a.285.285 0 0 1-.21.088H6.09Z"/></svg>