<svg xmlns="http://www.w3.org/2000/svg" width="18" height="22" fill="none"><path fill="#FFD991" stroke="#83828A" stroke-width="3" d="M7.786 4.39a2.5 2.5 0 0 1 2.428 0l5 2.778A2.5 2.5 0 0 1 16.5 9.354v5.292a2.5 2.5 0 0 1-1.286 2.186l-5 2.778a2.5 2.5 0 0 1-2.428 0l-5-2.778A2.5 2.5 0 0 1 1.5 14.646V9.354a2.5 2.5 0 0 1 1.286-2.186l5-2.778Z"/><path fill="#CECDD6" stroke="#EDECF3" stroke-width="3" d="M7.786 2.39a2.5 2.5 0 0 1 2.428 0l5 2.778A2.5 2.5 0 0 1 16.5 7.354v5.292a2.5 2.5 0 0 1-1.286 2.186l-5 2.778a2.5 2.5 0 0 1-2.428 0l-5-2.778A2.5 2.5 0 0 1 1.5 12.646V7.354a2.5 2.5 0 0 1 1.286-2.186l5-2.778Z"/><path fill="#fff" d="M12.168 11.661c.08 0 .15.03.21.088a.286.286 0 0 1 .087.21v1.671c0 .08-.03.15-.088.21a.286.286 0 0 1-.209.087H5.832a.29.29 0 0 1-.209-.088.285.285 0 0 1-.088-.209v-1.144c0-.264.092-.462.275-.594.176-.124.341-.245.495-.363a97.54 97.54 0 0 0 1.848-1.353c.396-.308.704-.583.924-.825.227-.25.341-.473.341-.67a.554.554 0 0 0-.077-.32c-.044-.08-.15-.12-.319-.12-.14 0-.25.032-.33.098a.52.52 0 0 0-.165.176l-.11.286A.348.348 0 0 1 8.252 9a.612.612 0 0 1-.275.055H5.91a.263.263 0 0 1-.176-.066.263.263 0 0 1-.066-.176c.007-.542.158-1.02.451-1.43.293-.418.69-.74 1.188-.968.506-.227 1.074-.34 1.705-.34 1.012 0 1.812.22 2.398.66.594.432.891 1.033.891 1.803 0 .58-.202 1.104-.605 1.573-.403.47-1.02.987-1.848 1.551h2.321Z"/></svg>