<svg xmlns="http://www.w3.org/2000/svg" width="18" height="22" fill="none"><path fill="#FFD991" stroke="#997B54" stroke-width="3" d="M7.786 4.39a2.5 2.5 0 0 1 2.428 0l5 2.778A2.5 2.5 0 0 1 16.5 9.354v5.292a2.5 2.5 0 0 1-1.286 2.186l-5 2.778a2.5 2.5 0 0 1-2.428 0l-5-2.778A2.5 2.5 0 0 1 1.5 14.646V9.354a2.5 2.5 0 0 1 1.286-2.186l5-2.778Z"/><path fill="#FCAA5A" stroke="#FDD199" stroke-width="3" d="M7.786 2.39a2.5 2.5 0 0 1 2.428 0l5 2.778A2.5 2.5 0 0 1 16.5 7.354v5.292a2.5 2.5 0 0 1-1.286 2.186l-5 2.778a2.5 2.5 0 0 1-2.428 0l-5-2.778A2.5 2.5 0 0 1 1.5 12.646V7.354a2.5 2.5 0 0 1 1.286-2.186l5-2.778Z"/><path fill="#fff" d="M10.606 9.11c1.32.33 1.98 1.088 1.98 2.276 0 .499-.154.939-.462 1.32-.308.382-.737.678-1.287.891-.543.206-1.159.308-1.848.308-.821 0-1.5-.12-2.035-.363-.528-.25-.913-.55-1.155-.902s-.37-.693-.385-1.023c0-.066.022-.12.066-.165a.242.242 0 0 1 .176-.077h2.211c.088 0 .158.015.21.044.05.03.105.073.164.132a.691.691 0 0 0 .275.165c.11.037.271.055.484.055.242 0 .422-.055.54-.165a.533.533 0 0 0 .186-.418c0-.322-.242-.484-.726-.484H7.625a.29.29 0 0 1-.209-.088.286.286 0 0 1-.088-.209v-.89c0-.103.022-.191.066-.265a.46.46 0 0 1 .154-.176l1.53-.836H6.183a.29.29 0 0 1-.209-.088.286.286 0 0 1-.088-.209v-1.55a.29.29 0 0 1 .088-.21.286.286 0 0 1 .21-.088h5.631c.08 0 .15.03.21.088a.286.286 0 0 1 .087.21v1.396a.542.542 0 0 1-.22.44l-1.287.88Z"/></svg>