<svg xmlns="http://www.w3.org/2000/svg" width="32" height="32" fill="none"><path fill="#fff" fill-opacity=".44" d="M16.127 7.663c2.69 0 4.87-1.267 4.87-2.831S18.816 2 16.126 2c-2.689 0-4.868 1.268-4.868 2.832 0 1.564 2.18 2.831 4.868 2.831Zm0 21.337c2.69 0 4.87-1.268 4.87-2.832 0-1.564-2.18-2.832-4.87-2.832-2.689 0-4.868 1.268-4.868 2.832 0 1.564 2.18 2.832 4.868 2.832ZM9.342 11.583c1.345-2.329 1.336-4.85-.02-5.633-1.354-.783-3.543.47-4.888 2.8-1.344 2.328-1.335 4.85.02 5.633 1.355.782 3.544-.471 4.888-2.8ZM27.819 22.25c1.344-2.329 1.336-4.85-.018-5.632-1.355-.782-3.543.472-4.887 2.8-1.345 2.329-1.337 4.85.018 5.633 1.354.782 3.542-.472 4.887-2.801Zm-18.495 2.8c1.355-.782 1.364-3.304.02-5.633-1.345-2.329-3.534-3.582-4.89-2.8-1.355.783-1.363 3.305-.019 5.634 1.345 2.328 3.533 3.582 4.889 2.8Zm18.478-10.666c1.354-.782 1.362-3.304.018-5.633-1.345-2.328-3.533-3.582-4.887-2.8-1.355.782-1.363 3.303-.018 5.632 1.344 2.329 3.532 3.583 4.887 2.8Z"/></svg>