<svg xmlns="http://www.w3.org/2000/svg" width="32" height="32" fill="none"><path fill="#fff" fill-opacity=".44" d="M23.715 11.068c-.548-.313-1.253-.313-1.88 0l-4.386 2.585-2.976 1.645-4.309 2.585c-.548.313-1.253.313-1.88 0l-3.368-2.037a1.91 1.91 0 0 1-.94-1.645v-3.916c0-.627.314-1.254.94-1.645l3.369-1.96c.548-.313 1.253-.313 1.88 0l3.368 2.037c.548.313.94.94.94 1.645v2.585l2.976-1.723V8.56c0-.626-.313-1.253-.94-1.645l-6.266-3.681c-.548-.313-1.253-.313-1.88 0L1.94 6.995c-.627.313-.94.94-.94 1.566v7.363c0 .627.313 1.253.94 1.645l6.345 3.682c.548.313 1.253.313 1.88 0l4.308-2.507 2.976-1.723 4.308-2.507c.548-.313 1.253-.313 1.88 0l3.368 1.959c.549.313.94.94.94 1.645v3.916c0 .627-.313 1.253-.94 1.645l-3.29 1.958c-.548.313-1.253.313-1.88 0l-3.368-1.958a1.91 1.91 0 0 1-.94-1.645v-2.507l-2.976 1.724v2.584c0 .627.313 1.254.94 1.645l6.345 3.682c.548.313 1.253.313 1.88 0l6.344-3.682c.548-.313.94-.94.94-1.645v-7.44c0-.627-.313-1.254-.94-1.646l-6.345-3.681Z"/></svg>