<svg xmlns="http://www.w3.org/2000/svg" width="100" height="100" fill="none"><path fill="#00C2FF" d="M0 0h100v100H0z"/><mask id="a" width="100" height="100" x="0" y="0" maskUnits="userSpaceOnUse" style="mask-type:alpha"><path fill="#1BC8FF" d="M0 0h100v100H0z"/></mask><g mask="url(#a)"><path fill="#656D89" d="m20.567 74.885-1.683-4.202s-1.058-7.34 4.26-11.58c6.406-5.108 23.339-7.463 30.945-6.077 9.87 1.8 21.907 4.892 21.907 4.892l3.868 4.529 1.288 5.11-.42 4.83-1.844 3.984 2.53 2.706 5.505 6.833 2.262 10.347-.47 4.413h-77.56l-.266-2.431.266-2.964 4.3-12.884 3.43-3.753 2.652-2.62-.97-1.133Z"/><path stroke="#000" stroke-linecap="round" stroke-linejoin="round" d="M24.662 57.44c-6.864 4.523-7.363 14.475-3.12 18.717-5.511 4.368-14.881 16.503-8.267 30.105"/><path stroke="#000" stroke-linecap="round" stroke-linejoin="round" d="M21.39 76.031c1.214.434 4.633 1.172 8.589.651"/><path stroke="#000" stroke-linecap="round" stroke-linejoin="round" d="M26.02 61.58c-3.56 2.519-3.3 9.9-1.303 14.849m-3.354 7.805c-2.646 3.312-4.985 10.563-3.712 16.893M75.338 57.44c6.864 4.523 7.363 14.475 3.12 18.717 5.511 4.368 14.881 16.503 8.267 30.105"/><path stroke="#000" stroke-linecap="round" stroke-linejoin="round" d="M78.61 76.031c-1.214.434-4.633 1.172-8.589.651"/><path stroke="#000" stroke-linecap="round" stroke-linejoin="round" d="M73.98 61.58c3.56 2.519 3.3 9.9 1.303 14.849m3.354 7.805c2.646 3.312 4.985 10.563 3.712 16.893"/><path fill="#00D6AC" d="m74.254 69.87-.395-3.04-1.428.244-2.675-.244-1.885-1.61v1.185l-1.185 2.34-1.368 1.855 2.036.395 1.338.638v.82l-1.611 2.28v1.004l1.185.304 1.49-.487.608-1.52v-1.58h.547l1.52 1.094 1.216-.273.79-1.156-.183-2.249Zm-48.572 0 .395-3.04 1.428.244 2.675-.244 1.885-1.61v1.185l1.185 2.34 1.368 1.855-2.036.395-1.338.638v.82l1.611 2.28v1.004l-1.185.304-1.49-.487-.607-1.52v-1.58h-.548l-1.52 1.094-1.215-.273-.79-1.156.182-2.249Z"/><path fill="#fff" d="M44 71h11v29H44z"/><path fill="#2E3035" d="m29.5 79.5.5-2 1.5 1.5-1 1-1-.5Zm41 0-.5-2-1 1.5 1 1 .5-.5Z"/><path fill="#FFDDCF" d="m47 97-2.5.5.5 1 .5 2.5h9v-1.5L55 98l-2-1-3 1-3-1Z"/><path fill="#00D6AC" d="M35.5 44 31 45.5l.5-4L34 37l3.5-3.5 5-2.5 6.5-1 6 .5 6 2 5 4 2.5 5 .5 4-1.5-.5-8-1.5-8-.5-10.5.5-5.5.5Z"/><path fill="#495B6D" d="m29 47 2-1.5.5 1 2 1 5.5 1 4.5.5H54l6.5-.5L65 48l3.5-1 .5-1 2 1 1 2.5-.5 3-3 1.5-4 1-8.5 1H46l-9-.5-6.5-1.5-2-1.5L28 50l1-3Z"/><path fill="#627B94" d="M29.5 46.5 31 46l1 1 4 1 8 1h11l11.5-1.5L69 46l2 1-2.5 1.5L63 50l-5.5.5-5.5.5h-4l-5-.5-5.5-.5-4.5-1-3.5-1.5v-1Z"/><path fill="#fff" d="m24 57 2.5-2 2.5-2 5.5 2 5.5.5 6.5.5H56l10.5-1 4.5-2 2 2 2.5 1.5 1 2V62l-.5 2.5-1.5 2-3 .5-2-.5-1.5-1-1.5 3.5-2.5 2.5-4 2-6 1h-7l-6.5-1-3-1L34 70l-1.5-2.5L32 65l-1 1-2 1h-2.5l-2-1.5-1-2L23 61l1-4Z"/><path fill="#00D6AC" d="m27.221 54.764 1.738-1.697 1.757.739 7.368 1.617 8.407.52 12.56-.26 7.01-.958 4.971-1.858 1.019.72.739.838-.46.5-3.035.818-1.118 2.077-.32 1.537-.519 3.017-1.078.799h-1.538l-1.258-1.458-.439-2.657-.759-1.358-1.637 1.358h-1.737l-1.219-.939-.878-.679-.64.959-1.956 1.038-3.315.44H47.89l-3.055-.8-1.718-1.856-.439.539-1.058 1.058-.999.26h-1.417l-1.119-.779-.759-1.078-.16 1.378-.62 2.841-.99 1.815-1.898.248-1.113-1.65-.63-3.894-1.198-1.956-2.137-.899-1.358-.34Z"/><path fill="#FFDDCF" d="m32.177 62.69-.32 2.817-1.962 1.32-2.64.32-2.21-.785-1.463-2.425-.392-3.709.856-3.174 1.961-1.747 2.568-.428 1.926 1.034 1.355 1.462.321 2.069v3.246Zm35.463.025.32 2.817 1.963 1.32 2.639.32 2.21-.784 1.463-2.425.392-3.71-.856-3.173-1.961-1.748-2.568-.428-1.926 1.034-1.355 1.462v4.009l-.321 1.306Z"/><path fill="#E9CEA5" d="m47 74.5-5-.5 1 1.5 2.5 1 2.5.5h4l2-.5 2.5-1L58 74l-6 .5h-5Z"/><path fill="#8D47FF" d="M48 77v5.742l.614 6.804L48 96.598v.902l-2-.5-.5.5-.5.5.5 3h-21l-.5-.5v-5l.5-3.5 1-3.5 2-4.5 2.5-4 5-3.5 1.5-.5 2-1 .5.5-.5 1L37 78l.5 1.5 1 .5 3-.5 4.5-2 2-.5Zm4 0 2 3-2 .252-.65 8.492L52 97.5l.57-.5H54l1 .5-.5 1-.5 2.5h21.5l.5-.5v-5l-.5-3.5-1-3.5-2-4.5-2.5-4-5-3.5-1.5-.5-2-1-.5.5.5 1L63 78l-.5 1.5-1 .5-3-.5-4.5-2-2-.5Z"/><path stroke="#000" stroke-linecap="round" d="M32.28 62S28.342 74.5 50 74.5C71.658 74.5 67.72 62 67.72 62"/><ellipse cx="38" cy="67.889" fill="#EDEBE9" rx="2" ry="3.5" transform="rotate(-60 38 67.89)"/><ellipse cx="2" cy="3.5" fill="#EDEBE9" rx="2" ry="3.5" transform="scale(-1 1) rotate(-60 25.763 91.12)"/><path fill="#FF3535" d="M50 69.676c11.562 0 12.288-6.463 12.12-9.03-.033-.518-.59-.758-1.032-.488l-.428.262c-.48.294-1.033.45-1.596.45H41.47c-.43 0-.854-.091-1.246-.266l-1.387-.618c-.437-.195-.93.057-.967.534-.192 2.475.376 9.156 12.13 9.156Z"/><path fill="#416BFF" d="M59.517 62.322H40.823l-.706.58 1.059 2.032 1.763 1.45 2.47 1.162 3.174.58h3.174l3.88-.87 2.116-1.452 1.764-2.612v-.87Z"/><path fill="#fff" d="M42.94 64.353v-2.031h14.813l-.352 1.16-.353 1.452L56.5 66l-.37.675-1.904.87-2.822.581h-2.821l-1.764-.29-1.764-.29-1.058-.871-.352-1.451-.706-.87Z"/><path stroke="#000" stroke-linecap="round" stroke-linejoin="round" d="M59.073 62.322h-18.16c-.423 0-.735.368-.594.767.56 1.577 2.594 5.037 9.675 5.037 7.08 0 9.115-3.46 9.674-5.037.142-.4-.171-.767-.595-.767Z"/><path stroke="#000" stroke-linecap="round" stroke-linejoin="round" d="M42.94 62.612c-.118.774-.265 2.322.705 2.612.705.211 5.957.03 9.876 0 0 0 1.41.87 1.763.87.538 0 .608-.21 1.411-.87.353-.29 1.058-1.451.706-2.902"/><path stroke="#000" stroke-linecap="round" stroke-linejoin="round" d="M43.645 65.224c0 .29-.148 1.216.352 1.716m12.345-1.426c0 .29.256 1.05-.117 1.346"/><path fill="#fff" stroke="#000" d="M72 24.887c0 1.438-2.82 5.752-4.231 5.033-1.41-.72-.706-5.033.705-6.47 1.083-1.105 3.526 0 3.526 1.437Z"/><path fill="#fff" stroke="#000" stroke-linejoin="round" d="M79.905 30c-1.79 0-3.23 1.354-3.727 2.031-.994-1.354-2.757-3.273-4.472-.677-2.236 3.386 1.49 4.063 2.236 2.032 2.236 3.385 4.808 3.08 6.708 1.354 2.236-2.032 1.49-4.74-.745-4.74Z"/><path fill="#fff" stroke="#000" d="M28 24.887c0 1.438 2.82 5.752 4.231 5.033 1.41-.72.706-5.033-.705-6.47-1.083-1.105-3.526 0-3.526 1.437Z"/><path fill="#fff" stroke="#000" stroke-linejoin="round" d="M20.095 30c1.79 0 3.23 1.354 3.727 2.031.994-1.354 2.758-3.273 4.472-.677 2.236 3.386-1.49 4.063-2.236 2.032-2.236 3.385-4.808 3.08-6.708 1.354-2.236-2.032-1.49-4.74.745-4.74Z"/><path stroke="#000" stroke-linecap="round" d="M68 58.077c.5-1.5 2.04-3.494 5-3 2.96.493 4.083 4 3.5 7.5-.417 2.5-1.5 4.5-4.5 4.5-2.318 0-4-1.227-4-2.556"/><path stroke="#000" stroke-linecap="round" d="M69 60.577c1.5-2 4-2.5 6-.5"/><path stroke="#000" stroke-linecap="round" d="M72 59.077c1.5 1.5.5 4.5-1 5m-39-6c-.5-1.5-2.04-3.494-5-3-2.96.493-4.083 4-3.5 7.5.417 2.5 1.5 4.5 4.5 4.5 2.318 0 4-1.227 4-2.556"/><path stroke="#000" stroke-linecap="round" d="M31 60.577c-1.5-2-4-2.5-6-.5"/><path stroke="#000" stroke-linecap="round" d="M28 59.077c-1.5 1.5-.5 4.5 1 5"/><path stroke="#000" stroke-linecap="round" stroke-linejoin="round" d="M42 74s1.94 3 8 3c6.06 0 8-3 8-3m3.85 1.5c11 2 15 17 14 25"/><path fill="#495B6D" d="m68.35 76.5 1.5 1-1.5 2-1 2.5-1 3.5v3l.5 3.5 1 3-3.5.5-1-2.5-1-4v-2.5l.5-2.5.5-2.5 1-3 1.5-2 1-.5 1.5.5Z"/><path fill="#8D47FF" d="m57.52 73.276 4.68-.475s1.013-.263 1.83-.81c.6-.401.94-.706.94-.706l1.26-.957 3.031 1.664-1.49 2.044L67 76l-1.53.354-1.17 1.534-.27 1.223-3.093.948-4.231.441H52.57l-.5-1.69.5-2.456 1.218-2.318 3.73-.76Z"/><path stroke="#000" d="M69.85 80c2-1.5-1.146-4.296-3.072-3.975-3 .5-6.428 11.475-2.428 19.475"/><path stroke="#000" d="M69.778 77.525c-4.5 5-3.928 13.475-2.428 15.975"/><path stroke="#000" d="M68.778 76.525c-4.5 5-5 15-2 18.5"/><path stroke="#000" stroke-linecap="round" stroke-linejoin="round" d="M71.85 97c-5-2-14.5-1.5-16 0-1.265 1.265-1.5 3-1.5 3.5m12-5c.5-1.5 1-3.5 3.5-5.5"/><path stroke="#000" stroke-linecap="round" stroke-linejoin="round" d="M66.35 95.5c.5-1.5 3-4 7-3.5"/><path stroke="#000" stroke-linecap="round" stroke-linejoin="round" d="M66.35 95.5c.5-.5 2.5-2 4.5-1.5m-10.5 2c-1 2-1 3.5 0 4.5m-22.202-25c-11 2-15 17-14 25"/><path fill="#495B6D" d="m31.648 76.5-1.5 1 1.5 2 1 2.5 1 3.5v3l-.5 3.5-1 3 3.5.5 1-2.5 1-4v-2.5l-.5-2.5-.5-2.5-1-3-1.5-2-1-.5-1.5.5Z"/><path fill="#8D47FF" d="m42.213 73.096-4.68-.475s-1.013-.262-1.83-.808c-.601-.403-.941-.707-.941-.707L33.5 71l-2.28.611.878 1.485.877 2.552 1.287.526 1.17 1.535 2.555 2.17h2.593l2.447.442h2.917l1.356-.441.475-2.171-.746-2.95-1.458-1.663h-3.358Z"/><path stroke="#000" d="M30.148 80c-2-1.5 1.146-4.296 3.072-3.975 3 .5 6.428 11.475 2.428 19.475"/><path stroke="#000" d="M30.22 77.525c4.5 5 3.928 13.475 2.428 15.975"/><path stroke="#000" d="M31.22 76.525c4.5 5 5 15 2 18.5"/><path stroke="#000" stroke-linecap="round" stroke-linejoin="round" d="M28.148 97c5-2 14.5-1.5 16 0 1.265 1.265 1.5 3 1.5 3.5m-12-5c-.5-1.5-1-3.5-3.5-5.5"/><path stroke="#000" stroke-linecap="round" stroke-linejoin="round" d="M33.648 95.5c-.5-1.5-3-4-7-3.5"/><path stroke="#000" stroke-linecap="round" stroke-linejoin="round" d="M33.648 95.5c-.5-.5-2.5-2-4.5-1.5m10.5 2c1 2 1 3.5 0 4.5M45 98s1.558-1.117 2.5-.907c1.132.252 1.431.907 2.5.907 1.068 0 1.368-.655 2.5-.907.942-.21 2.5.907 2.5.907"/><path stroke="#fff" stroke-linecap="round" stroke-linejoin="round" stroke-opacity=".44" d="M66 45c0-1.056-.121-2.057-.352-3M34 45c0-8.105 7.163-13 16-13 1.746 0 3.427.191 5 .56m3.5 1.2c1.966.917 3.645 2.176 4.912 3.74"/><path stroke="#000" stroke-linejoin="round" d="M69 46c0-9.976-8.507-16-19-16s-19 6.024-19 16"/><ellipse cx="50" cy="46" fill="#00D6AC" stroke="#000" rx="19" ry="3"/><path fill="#627B94" d="m31 50-2.5-1.5-.5 2 1 2.5 1.5 1 3.5 1 5 .5h2v-2l-.5-1.5-1-.5h-2L34 51l-3-1Z"/><path stroke="#000" d="M28.5 48.5c2.5 2 7.25 2.929 11 3.5 2.224.339 1.438 2.714 1.438 4"/><circle cx="39.228" cy="53.235" r=".5" fill="#000"/><ellipse cx="29.892" cy="52" fill="#000" rx=".392" ry=".5" transform="rotate(-32.008 29.892 52)"/><path fill="#627B94" d="m69 50 2.5-1.5.5 2-1 2.5-1.5 1-3.5 1-5 .5h-2v-2l.5-1.5 1-.5h2L66 51l3-1Z"/><path stroke="#000" d="M71.5 48.5c-2.5 2-7.25 2.929-11 3.5-2.224.339-1.438 2.714-1.438 4"/><circle cx=".5" cy=".5" r=".5" fill="#000" transform="matrix(-1 0 0 1 61.272 52.735)"/><ellipse cx=".392" cy=".5" fill="#000" rx=".392" ry=".5" transform="scale(-1 1) rotate(-32.008 54.92 149.15)"/><path stroke="#000" d="M30.855 46c-2.855 0-3.24 5-2.12 6.538C29.987 54.258 36.57 56 50 56s20.014-1.741 21.265-3.462C72.385 51 72 46 69.145 46"/><path fill="#fff" stroke="#000" d="m52.023 43.411 1.544-1.4 2.799 3.088a1.042 1.042 0 1 1-1.544 1.4l-2.799-3.088Z"/><circle cx="49.997" cy="39.624" r="7.292" fill="#fff" stroke="#000" transform="rotate(-42.188 49.997 39.624)"/><path fill="#AEFFEF" stroke="#000" d="M53.486 36.462a4.709 4.709 0 1 1-6.978 6.324 4.709 4.709 0 0 1 6.978-6.324Z"/><path fill="#fff" fill-opacity=".44" d="M50 34c-7.732 0-14 4.35-14 11.556 0 0 3.316 1.444 14 1.444 10.684 0 14-1.444 14-1.444C64 38.35 57.732 34 50 34Z"/><path fill="#fff" d="M38.706 40.074C39.55 37.852 41.666 36 43.78 36s1.973.74 0 2.593c-1.973 1.852-3.552 3.333-4.228 3.333-.846 0-1.269-.74-.846-1.852Z" opacity=".66"/><ellipse cx="37.587" cy="44.906" fill="#fff" opacity=".66" rx="1.061" ry="1.901" transform="rotate(17.63 37.587 44.906)"/><path stroke="#000" stroke-linecap="round" d="M29.5 46.5C28 49 41 51 50 51s21.5-2 20.5-4.5"/><path stroke="#000" stroke-linecap="round" stroke-linejoin="round" d="M43 56.906s.945 3.072 7 3.072 7-2.928 7-2.928m0-.144s.374 2.17 2.767 2.17 2.767-2.069 2.767-2.069m.056.056s0 6.431 2.941 6.431c2.942 0 2.48-5.448 2.48-5.448M43 56.906s-.374 2.17-2.767 2.17-2.767-2.069-2.767-2.069m-.056.056s0 6.431-2.941 6.431-2.48-5.448-2.48-5.448"/><path fill="#fff" d="M19.62 6.6c1.12 0 2 .248 2.64.744.648.496.972 1.228.972 2.196 0 .96-.32 1.676-.96 2.148-.64.464-1.524.696-2.652.696h-.84v2.292a.311.311 0 0 1-.096.228.311.311 0 0 1-.228.096h-2.472a.311.311 0 0 1-.228-.096.311.311 0 0 1-.096-.228V6.924c0-.088.032-.164.096-.228a.311.311 0 0 1 .228-.096h3.636Zm-.06 3.564a.548.548 0 0 0 .384-.156c.112-.112.168-.276.168-.492a.864.864 0 0 0-.132-.48c-.088-.136-.228-.204-.42-.204h-.84v1.332h.84Zm12.289 4.44a.299.299 0 0 1 .036.132.264.264 0 0 1-.084.192.244.244 0 0 1-.18.072h-2.46a.578.578 0 0 1-.348-.096.622.622 0 0 1-.168-.228l-1.032-2.292h-.492v2.292a.311.311 0 0 1-.096.228.311.311 0 0 1-.228.096h-2.352a.311.311 0 0 1-.228-.096.311.311 0 0 1-.096-.228V6.924c0-.088.032-.164.096-.228a.311.311 0 0 1 .228-.096h3.552c1.152 0 2.052.26 2.7.78.648.512.972 1.224.972 2.136 0 .52-.116.98-.348 1.38a2.895 2.895 0 0 1-.948.972l1.476 2.736Zm-3.852-4.5a.508.508 0 0 0 .408-.168.688.688 0 0 0 .144-.444.739.739 0 0 0-.144-.456c-.088-.136-.224-.204-.408-.204h-.876v1.272h.876Zm12.526 1.776c-.049 1.056-.429 1.86-1.14 2.412-.713.552-1.669.828-2.869.828-1.2 0-2.156-.276-2.867-.828-.712-.552-1.093-1.356-1.14-2.412a31.75 31.75 0 0 1-.012-1.044c0-.488.004-.844.012-1.068.024-.688.204-1.28.54-1.776a3.22 3.22 0 0 1 1.404-1.128c.591-.256 1.28-.384 2.063-.384.784 0 1.472.128 2.064.384a3.142 3.142 0 0 1 1.392 1.128c.345.496.529 1.088.553 1.776.015.448.023.804.023 1.068s-.008.612-.023 1.044Zm-4.009.9c.272 0 .484-.08.636-.24.16-.16.245-.404.253-.732.016-.464.023-.804.023-1.02 0-.232-.008-.564-.023-.996-.008-.328-.093-.572-.252-.732-.16-.16-.373-.24-.637-.24s-.476.08-.636.24c-.16.16-.243.404-.252.732a30.36 30.36 0 0 0-.011.996c0 .448.003.788.011 1.02.009.328.089.572.24.732.16.16.377.24.648.24ZM49.417 9.9c.016.448.024.752.024.912 0 .152-.008.444-.024.876-.048 1.104-.424 1.932-1.128 2.484-.696.552-1.636.828-2.82.828h-3.516a.311.311 0 0 1-.228-.096.311.311 0 0 1-.096-.228V6.924c0-.088.032-.164.096-.228a.311.311 0 0 1 .228-.096h3.456c.76 0 1.436.128 2.028.384a3.302 3.302 0 0 1 1.416 1.128c.352.496.54 1.092.564 1.788Zm-4.788-.96v3.72h.78c.28 0 .504-.08.672-.24.176-.168.272-.412.288-.732a13.6 13.6 0 0 0 .024-.9c0-.376-.008-.672-.024-.888-.016-.32-.12-.56-.312-.72-.184-.16-.42-.24-.708-.24h-.72ZM57.892 6.6c.088 0 .164.032.228.096s.096.14.096.228v4.908c0 1.096-.348 1.92-1.044 2.472-.696.544-1.64.816-2.832.816-1.2 0-2.152-.272-2.856-.816-.696-.552-1.044-1.376-1.044-2.472V6.924c0-.088.032-.164.096-.228a.311.311 0 0 1 .228-.096h2.352c.088 0 .164.032.228.096s.096.14.096.228v4.86c0 .304.072.536.216.696.152.152.376.228.672.228.296 0 .516-.076.66-.228.152-.16.228-.392.228-.696v-4.86c0-.088.032-.164.096-.228a.311.311 0 0 1 .228-.096h2.352Zm4.477 5.208c.008.352.088.604.24.756.152.144.368.216.648.216.456 0 .756-.216.9-.648.04-.136.088-.228.144-.276.064-.048.164-.072.3-.072h2.448c.072 0 .132.028.18.084a.227.227 0 0 1 .084.18c-.008.696-.204 1.276-.588 1.74-.376.456-.868.792-1.476 1.008-.6.216-1.26.324-1.98.324-1.208 0-2.168-.264-2.88-.792-.712-.536-1.092-1.356-1.14-2.46a32.274 32.274 0 0 1-.012-1.056c0-.496.004-.856.012-1.08.048-1.072.436-1.88 1.164-2.424.728-.552 1.68-.828 2.856-.828.72 0 1.38.108 1.98.324.608.216 1.1.556 1.476 1.02.384.456.58 1.032.588 1.728a.264.264 0 0 1-.084.192.244.244 0 0 1-.18.072H64.6c-.128 0-.224-.024-.288-.072-.056-.048-.108-.14-.156-.276-.088-.24-.204-.408-.348-.504a.976.976 0 0 0-.552-.144c-.28 0-.496.076-.648.228-.152.144-.232.392-.24.744-.008.216-.012.548-.012.996 0 .448.004.788.012 1.02Zm8.776.096h3.337a.311.311 0 0 0 .228-.096.311.311 0 0 0 .096-.228v-1.56a.311.311 0 0 0-.096-.228.311.311 0 0 0-.228-.096h-3.337V8.94h3.6a.311.311 0 0 0 .228-.096.311.311 0 0 0 .097-.228V6.924a.311.311 0 0 0-.096-.228.311.311 0 0 0-.228-.096H68.59a.311.311 0 0 0-.228.096.311.311 0 0 0-.096.228v7.752c0 .088.031.164.096.228.064.064.14.096.228.096h6.251a.311.311 0 0 0 .229-.096.311.311 0 0 0 .096-.228v-1.692a.311.311 0 0 0-.096-.228.311.311 0 0 0-.228-.096h-3.697v-.756Zm12.852 2.7a.299.299 0 0 1 .036.132.264.264 0 0 1-.084.192.244.244 0 0 1-.18.072h-2.46a.578.578 0 0 1-.348-.096.622.622 0 0 1-.168-.228l-1.032-2.292h-.492v2.292a.311.311 0 0 1-.096.228.311.311 0 0 1-.228.096h-2.352a.311.311 0 0 1-.228-.096.311.311 0 0 1-.096-.228V6.924c0-.088.032-.164.096-.228a.311.311 0 0 1 .228-.096h3.552c1.152 0 2.052.26 2.7.78.648.512.972 1.224.972 2.136 0 .52-.116.98-.348 1.38a2.895 2.895 0 0 1-.948.972l1.476 2.736Zm-3.852-4.5a.508.508 0 0 0 .408-.168.688.688 0 0 0 .144-.444.739.739 0 0 0-.144-.456c-.088-.136-.224-.204-.408-.204h-.876v1.272h.876Z"/><path stroke="#000" stroke-linecap="round" stroke-linejoin="round" d="M46 97.102c1.299-3.875.578-13.068 0-16.602 0 0 .5-4-1-5.5-8.946 0-11.5-1-13.945-3 .984-1.108 2.81-1.397 3.81-1.397"/><path stroke="#000" stroke-linecap="round" stroke-linejoin="round" d="M38.097 79.59c2.177 1.235 5.789 1.263 7.892.897.718 0 1.469-.157 1.753-.915"/><path stroke="#000" stroke-linecap="round" stroke-linejoin="round" d="M33.907 71.988c1.52.84 3.514 1.512 11.28 1.512 1.858 0 2.893 3.775 2.524 6.602.827 4.751 1.236 14.65 0 16.92m-16.635-24.99c.667.667 1.886 2.819 1.886 3.618m21.043 21.452c-1.3-3.875-.578-13.068 0-16.602 0 0-.5-4 1-5.5 8.945 0 11.5-1 13.945-3-.985-1.108-2.811-1.397-3.811-1.397"/><path stroke="#000" stroke-linecap="round" stroke-linejoin="round" d="M61.907 79.59c-2.176 1.235-5.788 1.263-7.891.897-.718 0-1.47-.157-1.754-.915"/><path stroke="#000" stroke-linecap="round" stroke-linejoin="round" d="M66.098 71.988c-1.52.84-3.514 1.512-11.28 1.512-1.858 0-2.893 3.775-2.524 6.602-.828 4.751-1.236 14.65 0 16.92m16.634-24.99c-.666.667-1.886 2.819-1.886 3.618"/><path fill="#fff" d="M26.912 84.1c.378-.766.451-.827.451-.827l-1.036-1.62L24 80.5l-2.5-.5-2 1-1.5 2-.5 1.5L16 84l-2.5.5-3 1.5L9 88.5V92l1.5 3 2 1.5 1.5.5 3.5.5 2-.5 2 .5 2 1h3l3-.5 3-1 2.5-2.5 1 .5 3.5 1 3.5-1h2.5l1.5-1.5-1-1-2.5-.5-2.5-1h-2l-1.5-1-3-1H32l-3 1.5-2-1.5-2-1 .736-1.232c.297-.801.812-1.929 1.176-2.668Z"/><path stroke="#000" stroke-linecap="round" stroke-linejoin="round" d="M33.856 93.413c3.158 3.52 7.598 2.405 9.313 1.285 1.35.368 3.831.492 3.831-.967 0-1.46-1.914-1.777-3.044-1.556-.564-.809-2.543-1.83-4.573-1.017"/><path stroke="#000" stroke-linecap="round" d="M40.324 92.681c-1.174-2.239-6.13-5.58-11.087-2.46m.971 1.919c-1.717-3.384-6.18-5.935-11.282-3.384m16.187 5.837c-1.324 2.256-9.957 7.603-17.707.49"/><path stroke="#000" stroke-linecap="round" stroke-linejoin="round" d="M19.172 97.045c-3.401.981-9.81.246-10.154-5.886-.395-7.052 5.74-7.423 8.584-6.72.589-4.414 6.884-5.875 10.07-1.401"/><path stroke="#000" stroke-linecap="round" d="M21.82 83.85c2.944.295 3.68 2.748 3.68 4.17m-12.379 4.893c.19 1.445 1.659 2.1 2.186 2.1"/><path fill="#fff" d="M73.088 84.1c-.378-.766-.451-.827-.451-.827l1.036-1.62L76 80.5l2.5-.5 2 1 1.5 2 .5 1.5L84 84l2.5.5 3 1.5 1.5 2.5V92l-1.5 3-2 1.5-1.5.5-3.5.5-2-.5-2 .5-2 1h-3l-3-.5-3-1-2.5-2.5-1 .5-3.5 1-3.5-1h-2.5L53 93.5l1-1 2.5-.5 2.5-1h2l1.5-1 3-1H68l3 1.5 2-1.5 2-1-.736-1.232c-.297-.801-.812-1.929-1.176-2.668Z"/><path stroke="#000" stroke-linecap="round" stroke-linejoin="round" d="M66.144 93.413c-3.158 3.52-7.598 2.405-9.313 1.285-1.35.368-3.831.492-3.831-.967 0-1.46 1.914-1.777 3.044-1.556.564-.809 2.543-1.83 4.573-1.017"/><path stroke="#000" stroke-linecap="round" d="M59.676 92.681c1.174-2.239 6.13-5.58 11.087-2.46m-.971 1.919c1.717-3.384 6.18-5.935 11.282-3.384m-16.187 5.837c1.324 2.256 9.957 7.603 17.707.49"/><path stroke="#000" stroke-linecap="round" stroke-linejoin="round" d="M80.828 97.045c3.401.981 9.81.246 10.154-5.886.395-7.052-5.74-7.423-8.584-6.72-.589-4.414-6.884-5.875-10.07-1.401"/><path stroke="#000" stroke-linecap="round" d="M78.18 83.85c-2.944.295-3.68 2.748-3.68 4.17m12.379 4.893c-.19 1.445-1.659 2.1-2.186 2.1"/><path stroke="#000" stroke-linecap="round" stroke-linejoin="round" d="M71.375 53.035c.558.388 1.195 1.184 1.514 2m-44.269-2c-.558.388-1.195 1.184-1.514 2m46.771 12.042c0 3.39 1.33 4.867 0 6.034-1.308 1.148-3.664-1.046-4.233-3.26"/><path stroke="#000" stroke-linecap="round" stroke-linejoin="round" d="M70.024 70.841c.316 1.266.802 3.096 0 4.324-.452.69-1.482.968-2.492.638m-41.407-8.726c0 3.39-1.33 4.867 0 6.034 1.308 1.148 3.664-1.046 4.233-3.26"/><path stroke="#000" stroke-linecap="round" stroke-linejoin="round" d="M29.978 70.841c-.316 1.266-.802 3.096 0 4.324.452.69 1.482.968 2.492.638"/><path fill="#FF3535" stroke="#000" d="M53.5 61.013c0 .453-.385.98-1.136 1.432-.725.435-1.637.7-2.364.7-.727 0-1.64-.265-2.364-.7-.751-.451-1.136-.979-1.136-1.432 0-.453.385-.981 1.136-1.432.725-.436 1.637-.7 2.364-.7.727 0 1.64.264 2.364.7.751.451 1.136.979 1.136 1.432Z"/><path fill="#fff" d="m71.936 41.22-.22.475-.611-1.306-1.136-.424-1.51.695-.797 1.239.305.967.271.746H67l-.424.645-.17 1.526.306 1.476.814.305.44.34-.253 1.051.916 1.052 1.662.458.848-.712.288.542h.696l1.374-.78.678-.622v-.99l-.346-1.153h1.398l.356-1.102v-1.714l-.593-.56-.9.238.289-1.12-.509-1.526-1.272-.73-.662.984Z"/><path fill="#FFEA1B" stroke="#000" d="M73.047 47.744c.801-.801 1.017-1.966.705-2.984-.673-2.194-2.848-2.05-3.785-1.268-1.055.879-1.236 2.688-.574 3.838.851 1.476 2.686 1.382 3.654.414Z"/><path stroke="#000" d="M71.668 42.936c0-.139.311-2.524-1.094-2.917-1.302-.365-3.154 1.27-2.883 2.257.243.886 1.123 1.534 1.667 1.963m2.338-2.042c0-.64.406-1.9.944-1.9.626 0 1.915 1.14 1.687 2.238-.22 1.053-.436 1.408-.714 1.704"/><path stroke="#000" d="M73.965 43.745c.248-.102 1.29-.877 1.531.175.204.89.115 2.432-.335 2.843-.45.411-1.429-.394-1.429-.394m.144.396c.61.775.59 1.9.21 2.371-.38.471-1.447 1.155-2.366 1.155-.67 0-.583-1.24-.583-1.924"/><path stroke="#000" d="M69.202 47.223c-.84.42-1.705.895-1.501 1.614.232.82 1.557 1.598 2.389 1.598.476 0 .995-.457 1.07-.779m-1.964-5.536c-.534-.355-1.632-.845-2.21-.474-.707.453-.678 3.25-.13 3.745.349.315 1.495.276 2.222-.14"/><path fill="#fff" d="m28.063 41.22.22.475.611-1.306 1.137-.424 1.51.695.797 1.239-.306.967-.27.746h1.237l.424.645.17 1.526-.305 1.476-.814.305-.441.34.254 1.051-.916 1.052-1.662.458-.849-.712-.288.542h-.695l-1.374-.78-.679-.622v-.99l.346-1.153h-1.398l-.356-1.102v-1.714l.594-.56.899.238-.288-1.12.508-1.526 1.273-.73.661.984Z"/><path fill="#FFEA1B" stroke="#000" d="M26.953 47.744c-.802-.801-1.018-1.966-.705-2.984.672-2.194 2.848-2.05 3.785-1.268 1.054.879 1.236 2.688.573 3.838-.85 1.476-2.686 1.382-3.653.414Z"/><path stroke="#000" d="M28.331 42.936c0-.139-.31-2.524 1.094-2.917 1.303-.365 3.154 1.27 2.883 2.257-.243.886-1.123 1.534-1.667 1.963m-2.338-2.042c0-.64-.406-1.9-.944-1.9-.625 0-1.915 1.14-1.686 2.238.22 1.053.436 1.408.714 1.704"/><path stroke="#000" d="M26.034 43.745c-.248-.102-1.29-.877-1.53.175-.205.89-.116 2.432.335 2.843.45.411 1.428-.394 1.428-.394m-.144.396c-.61.775-.59 1.9-.21 2.371.38.471 1.448 1.155 2.366 1.155.67 0 .583-1.24.583-1.924"/><path stroke="#000" d="M30.797 47.223c.84.42 1.706.895 1.502 1.614-.233.82-1.558 1.598-2.39 1.598-.476 0-.994-.457-1.07-.779m1.964-5.536c.534-.355 1.632-.845 2.21-.474.707.453.678 3.25.13 3.745-.348.315-1.494.276-2.221-.14"/></g></svg>