<svg xmlns="http://www.w3.org/2000/svg" width="24" height="24" fill="none"><path fill="#fff" d="M9.248 14.502a1.25 1.25 0 1 1 0-2.502 1.25 1.25 0 0 1 0 2.502Zm5.503 0a1.25 1.25 0 1 1 0-2.502 1.25 1.25 0 0 1 0 2.502Zm-6.134 2.746a.9.9 0 1 1 .77-1.626 6.076 6.076 0 0 0 2.612.584c.919 0 1.807-.201 2.617-.587a.901.901 0 0 1 .774 1.625 7.87 7.87 0 0 1-3.39.762 7.878 7.878 0 0 1-3.383-.758Zm7.051-12.305-1.907-.634-.747 3.732a11.69 11.69 0 0 1 3.283.736 3.5 3.5 0 0 1 4.144-.187 3.503 3.503 0 0 1 .544 5.378c.02.175.03.353.03.533C21.014 18.187 16.915 21 12 21c-4.916 0-9.014-2.813-9.014-6.5 0-.18.01-.355.029-.53a3.501 3.501 0 0 1 4.686-5.192 11.692 11.692 0 0 1 3.297-.736 1.002 1.002 0 0 1 .02-.235l.778-3.89a2 2 0 0 1 2.598-1.503l.9.3a3.005 3.005 0 0 1 5.72 1.289c0 1.657-1.345 3-3.004 3a1 1 0 1 1 0-2 1 1 0 1 0-1.002-1.017 1.005 1.005 0 0 1-1.34.958l-.001-.001Zm-11.67 6.559a1.5 1.5 0 0 0 .997 1.413.397.397 0 0 1 .24.512c-.163.45-.245.808-.245 1.075 0 2.387 3.076 4.5 7.01 4.5 3.935 0 7.011-2.113 7.011-4.5 0-.266-.08-.622-.244-1.068a.407.407 0 0 1 .245-.522 1.503 1.503 0 0 0-.502-2.91c-.383 0-.733.143-.998.38-.108.096-.21.248-.304.455a.507.507 0 0 1-.703.234c-1.21-.659-2.775-1.069-4.505-1.069-1.733 0-3.299.41-4.51 1.072a.502.502 0 0 1-.696-.233 1.362 1.362 0 0 0-.304-.458 1.498 1.498 0 0 0-1-.38 1.501 1.501 0 0 0-1.493 1.499h.001Z"/></svg>