<svg xmlns="http://www.w3.org/2000/svg" width="100" height="100" fill="none"><path fill="#8D47FF" d="M0 0h100v100H0z"/><mask id="a" width="100" height="100" x="0" y="0" maskUnits="userSpaceOnUse" style="mask-type:alpha"><path fill="#8D47FF" d="M0 0h100v100H0z"/></mask><g mask="url(#a)"><path fill="#FFA41B" stroke="#000" d="M71.75 74.125h9.014c.857 0 1.587.62 1.677 1.473.131 1.235.25 3.013.059 4.402-.128.93-.444 2.067-.788 3.12-.654 2.003-2.58 3.255-4.685 3.255H71.75v-12.25Z"/><path fill="#FFA41B" stroke="#000" d="M75.25 68.875s1.25-1 4.375-1c2.176 0 3.443.485 4.012.78.248.128.423.353.504.622.147.491.359 1.422.359 2.723 0 1.265-.2 2.48-.347 3.202-.089.435-.37.796-.797.915-.63.176-1.787.383-3.731.383-3.375 0-4.375-.625-4.375-.625v-7Zm-47 5.25h-9.014c-.857 0-1.587.62-1.677 1.473-.131 1.235-.25 3.013-.059 4.402.128.93.444 2.067.788 3.12.654 2.003 2.58 3.255 4.685 3.255h5.277v-12.25Z"/><path fill="#FFA41B" stroke="#000" d="M24.75 68.875s-1.25-1-4.375-1c-2.176 0-3.443.485-4.012.78a1.02 1.02 0 0 0-.504.622c-.148.491-.359 1.422-.359 2.723 0 1.265.2 2.48.347 3.202.089.435.37.796.797.915.63.176 1.787.383 3.731.383 3.375 0 4.375-.625 4.375-.625v-7Z"/><path fill="#FFEA1B" stroke="#000" d="M24.25 54.375a6.5 6.5 0 0 1 6.5-6.5h5.364a8.04 8.04 0 0 0 1.604-.166c2.1-.43 8.122-1.584 12.282-1.584s10.183 1.153 12.282 1.584a7.985 7.985 0 0 0 1.604.166h5.364a6.5 6.5 0 0 1 6.5 6.5v7a6.5 6.5 0 0 1-6.5 6.5h-38.5a6.5 6.5 0 0 1-6.5-6.5v-7Z"/><path fill="#FFEA1B" stroke="#000" d="M21.558 68.54c.497-2.657 2.894-4.415 5.667-4.415h45.549c2.773 0 5.17 1.758 5.668 4.415.714 3.806 1.388 9.694.81 16.92-.564 7.039-1.53 12.815-2.303 16.646-.57 2.828-3.09 4.769-6.008 4.769H29.059c-2.918 0-5.438-1.941-6.008-4.769-.773-3.831-1.74-9.607-2.303-16.646-.578-7.226.096-13.113.81-16.92Z"/><path fill="#416BFF" d="m69 49.5 2.5.5v17.5l-.5 1v1l.5 2.5v2l-1.5.5-1.5-1v-2l.5-2-.5-1v-12l-.5-6 1-1Z"/><path stroke="#000" stroke-linecap="round" stroke-linejoin="round" d="M71 53c1 .5 1.5 2.5 0 3.5M68.947 53c-1 .5-1.5 2.5 0 3.5m2.053 0c1 .5 1.5 2.5 0 3.5m-2.053-3.5c-1 .5-1.5 2.5 0 3.5M71 60c1 .5 1.5 2.5 0 3.5M68.947 60c-1 .5-1.5 2.5 0 3.5m2.053 0c1 .5 1.5 2.5 0 3.5m-2.053-3.5c-1 .5-1.5 2.5 0 3.5"/><rect width="3" height="2" fill="#00D6AC" stroke="#000" rx="1" transform="matrix(-1 0 0 1 71.5 66.5)"/><path stroke="#000" stroke-linecap="round" stroke-linejoin="round" d="M71 68.5s1 4 .5 5-2.5 1-3 0 .5-5 .5-5m2-19c1 .5 1.5 2.5 0 3.5m-2.053-3.5c-1 .5-1.5 2.5 0 3.5m0-7c-1 .5-1.5 2.5 0 3.5"/><path fill="#416BFF" d="m31 49.5-2.5.5v17.5l.5 1v1l-.5 2.5v2l1.5.5 1.5-1v-2l-.5-2 .5-1v-12l.5-6-1-1Z"/><path stroke="#000" stroke-linecap="round" stroke-linejoin="round" d="M29 53c-1 .5-1.5 2.5 0 3.5m2.053-3.5c1 .5 1.5 2.5 0 3.5M29 56.5c-1 .5-1.5 2.5 0 3.5m2.053-3.5c1 .5 1.5 2.5 0 3.5M29 60c-1 .5-1.5 2.5 0 3.5m2.053-3.5c1 .5 1.5 2.5 0 3.5M29 63.5c-1 .5-1.5 2.5 0 3.5m2.053-3.5c1 .5 1.5 2.5 0 3.5"/><rect width="3" height="2" x="28.5" y="66.5" fill="#00D6AC" stroke="#000" rx="1"/><path stroke="#000" stroke-linecap="round" stroke-linejoin="round" d="M29 68.5s-1 4-.5 5 2.5 1 3 0-.5-5-.5-5m-2-19c-1 .5-1.5 2.5 0 3.5m2.053-3.5c1 .5 1.5 2.5 0 3.5m0-7c1 .5 1.5 2.5 0 3.5"/><path fill="#46484F" d="m48 77 1 1.5 1 1v18l-.5.5-3.5-1-1 .5.5 1 .5 2.5H24.5l-.5-.5v-5l.5-3.5 1-3.5 2-4.5 2.5-4 5-3.5 1.5-.5 2-1 .5.5-.5 1L37 78l.5 1.5 1 .5 3-.5 4.5-2 2-.5Zm4 0-1 1.5-1 1v18l.5.5 3.5-.5h1.5l-.5.5-.5 3h21l.5-.5v-5l-.5-3.5-1-3.5-2-4.5-2.5-4-5-3.5-1.5-.5-2-1-.5.5.5 1L63 78l-.5 1.5-1 .5-3-.5-4.5-2-2-.5Z"/><path fill="#fff" d="M15.388 14.604a.299.299 0 0 1 .036.132.264.264 0 0 1-.084.192.244.244 0 0 1-.18.072H12.7a.578.578 0 0 1-.348-.096.622.622 0 0 1-.168-.228l-1.032-2.292h-.492v2.292a.311.311 0 0 1-.096.228.311.311 0 0 1-.228.096H7.984a.311.311 0 0 1-.228-.096.311.311 0 0 1-.096-.228V6.924c0-.088.032-.164.096-.228a.311.311 0 0 1 .228-.096h3.552c1.152 0 2.052.26 2.7.78.648.512.972 1.224.972 2.136 0 .52-.116.98-.348 1.38a2.895 2.895 0 0 1-.948.972l1.476 2.736Zm-3.852-4.5a.508.508 0 0 0 .408-.168.688.688 0 0 0 .144-.444.739.739 0 0 0-.144-.456c-.088-.136-.224-.204-.408-.204h-.876v1.272h.876Zm7.664 1.8h3.336a.311.311 0 0 0 .228-.096.311.311 0 0 0 .096-.228v-1.56a.311.311 0 0 0-.096-.228.311.311 0 0 0-.228-.096H19.2V8.94h3.6a.311.311 0 0 0 .228-.096.311.311 0 0 0 .096-.228V6.924a.311.311 0 0 0-.096-.228.311.311 0 0 0-.228-.096h-6.156a.311.311 0 0 0-.228.096.311.311 0 0 0-.096.228v7.752c0 .088.032.164.096.228s.14.096.228.096h6.252a.311.311 0 0 0 .228-.096.311.311 0 0 0 .096-.228v-1.692a.311.311 0 0 0-.096-.228.311.311 0 0 0-.228-.096H19.2v-.756Zm12.312-2.94a.264.264 0 0 1-.084.192.23.23 0 0 1-.168.072h-2.4a.776.776 0 0 1-.264-.036 1.02 1.02 0 0 1-.216-.156.943.943 0 0 0-.636-.216c-.384 0-.576.112-.576.336 0 .12.092.22.276.3.192.08.544.152 1.056.216.8.104 1.44.26 1.92.468.488.208.84.488 1.056.84.224.344.336.78.336 1.308 0 .568-.172 1.068-.516 1.5-.344.424-.82.752-1.428.984-.6.232-1.28.348-2.04.348-.848 0-1.568-.116-2.16-.348-.584-.232-1.024-.54-1.32-.924a2.217 2.217 0 0 1-.468-1.284c0-.072.024-.132.072-.18a.264.264 0 0 1 .192-.084h2.28c.112 0 .2.016.264.048a.83.83 0 0 1 .252.156c.232.184.528.276.888.276.272 0 .488-.028.648-.084.168-.064.252-.148.252-.252 0-.144-.108-.252-.324-.324-.216-.08-.624-.16-1.224-.24-2.064-.272-3.096-1.152-3.096-2.64 0-.536.152-1.012.456-1.428.312-.424.744-.752 1.296-.984.552-.232 1.188-.348 1.908-.348.752 0 1.412.128 1.98.384.568.256 1.004.58 1.308.972.304.384.464.76.48 1.128Zm4.06 2.94h3.335a.311.311 0 0 0 .228-.096.311.311 0 0 0 .096-.228v-1.56a.311.311 0 0 0-.096-.228.311.311 0 0 0-.228-.096h-3.336V8.94h3.6a.311.311 0 0 0 .228-.096.311.311 0 0 0 .096-.228V6.924a.311.311 0 0 0-.096-.228.311.311 0 0 0-.228-.096h-6.156a.311.311 0 0 0-.228.096.311.311 0 0 0-.096.228v7.752c0 .088.032.164.096.228s.14.096.228.096h6.252a.311.311 0 0 0 .228-.096.311.311 0 0 0 .096-.228v-1.692a.311.311 0 0 0-.096-.228.311.311 0 0 0-.228-.096h-3.696v-.756ZM45.866 6.6c.152 0 .272.04.36.12.088.08.148.172.18.276l2.676 7.656a.264.264 0 0 1-.072.276.244.244 0 0 1-.18.072h-2.22c-.24 0-.396-.1-.468-.3l-.288-.792h-2.58l-.288.792c-.072.2-.228.3-.468.3H40.3a.287.287 0 0 1-.192-.072.287.287 0 0 1-.06-.276l2.676-7.656a.614.614 0 0 1 .18-.276.515.515 0 0 1 .36-.12h2.604ZM44.56 9.336l-.672 2.232h1.356l-.684-2.232Zm12.923 5.268a.299.299 0 0 1 .036.132.264.264 0 0 1-.084.192.244.244 0 0 1-.18.072h-2.46a.578.578 0 0 1-.348-.096.622.622 0 0 1-.168-.228l-1.032-2.292h-.492v2.292a.311.311 0 0 1-.096.228.311.311 0 0 1-.228.096h-2.352a.311.311 0 0 1-.228-.096.311.311 0 0 1-.096-.228V6.924c0-.088.032-.164.096-.228a.311.311 0 0 1 .228-.096h3.552c1.152 0 2.052.26 2.7.78.648.512.972 1.224.972 2.136 0 .52-.116.98-.348 1.38a2.895 2.895 0 0 1-.948.972l1.476 2.736Zm-3.852-4.5a.508.508 0 0 0 .408-.168.688.688 0 0 0 .144-.444.739.739 0 0 0-.144-.456c-.088-.136-.224-.204-.408-.204h-.876v1.272h.876Zm7.63 1.704c.007.352.087.604.24.756.151.144.367.216.647.216.456 0 .756-.216.9-.648.04-.136.088-.228.144-.276.064-.048.164-.072.3-.072h2.448c.072 0 .132.028.18.084a.227.227 0 0 1 .084.18c-.008.696-.204 1.276-.588 1.74-.376.456-.868.792-1.476 1.008-.6.216-1.26.324-1.98.324-1.208 0-2.168-.264-2.88-.792-.712-.536-1.092-1.356-1.14-2.46a32.274 32.274 0 0 1-.012-1.056c0-.496.004-.856.012-1.08.048-1.072.436-1.88 1.164-2.424.728-.552 1.68-.828 2.856-.828.72 0 1.38.108 1.98.324.608.216 1.1.556 1.476 1.02.384.456.58 1.032.588 1.728a.264.264 0 0 1-.084.192.244.244 0 0 1-.18.072h-2.448c-.128 0-.224-.024-.288-.072-.056-.048-.108-.14-.156-.276-.088-.24-.204-.408-.348-.504a.976.976 0 0 0-.552-.144c-.28 0-.496.076-.648.228-.152.144-.232.392-.24.744-.008.216-.012.548-.012.996 0 .448.004.788.012 1.02ZM74.775 6.6c.088 0 .164.032.228.096s.096.14.096.228v7.752a.311.311 0 0 1-.096.228.311.311 0 0 1-.228.096h-2.352a.311.311 0 0 1-.228-.096.311.311 0 0 1-.096-.228v-2.592h-1.944v2.592a.311.311 0 0 1-.096.228.311.311 0 0 1-.228.096H67.48a.335.335 0 0 1-.228-.084.326.326 0 0 1-.096-.24V6.924c0-.088.032-.164.096-.228a.311.311 0 0 1 .228-.096h2.352c.088 0 .164.032.228.096s.096.14.096.228v2.52H72.1v-2.52c0-.088.032-.164.096-.228a.311.311 0 0 1 .228-.096h2.352Zm4.53 5.304h3.336a.311.311 0 0 0 .228-.096.311.311 0 0 0 .096-.228v-1.56a.311.311 0 0 0-.096-.228.311.311 0 0 0-.228-.096h-3.336V8.94h3.6a.311.311 0 0 0 .228-.096.311.311 0 0 0 .096-.228V6.924a.311.311 0 0 0-.096-.228.311.311 0 0 0-.228-.096H76.75a.311.311 0 0 0-.228.096.311.311 0 0 0-.096.228v7.752c0 .088.032.164.096.228s.14.096.228.096h6.252a.311.311 0 0 0 .228-.096.311.311 0 0 0 .096-.228v-1.692a.311.311 0 0 0-.096-.228.311.311 0 0 0-.228-.096h-3.696v-.756Zm12.852 2.7a.299.299 0 0 1 .035.132.264.264 0 0 1-.084.192.244.244 0 0 1-.18.072h-2.46a.578.578 0 0 1-.347-.096.622.622 0 0 1-.168-.228l-1.032-2.292h-.492v2.292a.311.311 0 0 1-.097.228.311.311 0 0 1-.227.096h-2.352a.311.311 0 0 1-.229-.096.311.311 0 0 1-.096-.228V6.924c0-.088.032-.164.096-.228a.311.311 0 0 1 .228-.096h3.552c1.152 0 2.052.26 2.7.78.648.512.973 1.224.973 2.136 0 .52-.116.98-.349 1.38a2.895 2.895 0 0 1-.948.972l1.477 2.736Zm-3.853-4.5a.508.508 0 0 0 .408-.168.688.688 0 0 0 .145-.444.739.739 0 0 0-.145-.456c-.087-.136-.223-.204-.407-.204h-.876v1.272h.875Z"/><path fill="#F49797" d="m47 97-2.5 1 .5.5.5 2.5h9v-1.5L55 98l-2-1-3 1-3-1ZM24 57l2.5-2 3.5.5 4.5-.5 5.5.5 6.5.5H56l10.5-1 2-1 .5 2 5-1 2.5 3.5V62l-.5 2.5-1.5 2-3 .5-2-.5-1.5-1-1.5 3.5-2.5 2.5-4 2-6 1h-7l-6.5-1-3-1L34 70l-1.5-2.5L32 65l-1 1-2 1h-2.5l-2-1.5-1-2L23 61l1-4Z"/><path stroke="#000" stroke-linecap="round" d="M32.28 62S28.342 74.5 50 74.5C71.658 74.5 67.72 62 67.72 62M45 66h10"/><path fill="#fff" stroke="#000" stroke-linecap="round" stroke-linejoin="round" d="M52.526 67.577 52 66h2l-.526 1.577a.5.5 0 0 1-.948 0Zm-6 0L46 66h2l-.526 1.577a.5.5 0 0 1-.948 0Z"/><path fill="#FFA41B" d="m31.65 76.5-1.5 1 1.5 2 1 2.5 1 3.5v3l-.5 3.5-1 3 3.5.5 1-2.5 1-4v-2.5l-.5-2.5-.5-2.5-1-3-1.5-2-1-.5-1.5.5Z"/><path stroke="#000" d="M30.15 80c-2-1.5 1.146-4.296 3.072-3.975 3 .5 6.428 11.475 2.428 19.475"/><path stroke="#000" d="M30.222 77.525c4.5 5 3.928 13.475 2.428 15.975"/><path stroke="#000" d="M31.222 76.525c4.5 5 5 15 2 18.5"/><path fill="#FFA41B" d="m68.35 76.5 1.5 1-1.5 2-1 2.5-1 3.5v3l.5 3.5 1 3-3.5.5-1-2.5-1-4v-2.5l.5-2.5.5-2.5 1-3 1.5-2 1-.5 1.5.5Z"/><path stroke="#000" d="M69.85 80c2-1.5-1.146-4.296-3.072-3.975-3 .5-6.428 11.475-2.428 19.475"/><path stroke="#000" d="M69.778 77.525c-4.5 5-3.928 13.475-2.428 15.975"/><path stroke="#000" d="M68.778 76.525c-4.5 5-5 15-2 18.5"/><ellipse cx="38" cy="67.889" fill="#DC7F7F" rx="2" ry="3.5" transform="rotate(-60 38 67.89)"/><ellipse cx="2" cy="3.5" fill="#DC7F7F" rx="2" ry="3.5" transform="scale(-1 1) rotate(-60 25.763 91.12)"/><path fill="#fff" stroke="#000" d="M72 24.887c0 1.438-2.82 5.752-4.231 5.033-1.41-.72-.706-5.033.705-6.47 1.083-1.105 3.526 0 3.526 1.437Z"/><path fill="#fff" stroke="#000" stroke-linejoin="round" d="M79.905 30c-1.79 0-3.23 1.354-3.727 2.031-.994-1.354-2.757-3.273-4.472-.677-2.236 3.386 1.49 4.063 2.236 2.032 2.236 3.385 4.808 3.08 6.708 1.354 2.236-2.032 1.49-4.74-.745-4.74Z"/><path fill="#fff" stroke="#000" d="M28 24.887c0 1.438 2.82 5.752 4.231 5.033 1.41-.72.706-5.033-.705-6.47-1.083-1.105-3.526 0-3.526 1.437Z"/><path fill="#fff" stroke="#000" stroke-linejoin="round" d="M20.095 30c1.79 0 3.23 1.354 3.727 2.031.994-1.354 2.758-3.273 4.472-.677 2.236 3.386-1.49 4.063-2.236 2.032-2.236 3.385-4.808 3.08-6.708 1.354-2.236-2.032-1.49-4.74.745-4.74Z"/><path stroke="#000" stroke-linecap="round" d="M68 58.077c.5-1.5 2.04-3.494 5-3 2.96.493 4.083 4 3.5 7.5-.417 2.5-1.5 4.5-4.5 4.5-2.318 0-4-1.227-4-2.556"/><path stroke="#000" stroke-linecap="round" d="M69 60.577c1.5-2 4-2.5 6-.5"/><path stroke="#000" stroke-linecap="round" d="M72 59.077c1.5 1.5.5 4.5-1 5m-39-6c-.5-1.5-2.04-3.494-5-3-2.96.493-4.083 4-3.5 7.5.417 2.5 1.5 4.5 4.5 4.5 2.318 0 4-1.227 4-2.556"/><path stroke="#000" stroke-linecap="round" d="M31 60.577c-1.5-2-4-2.5-6-.5"/><path stroke="#000" stroke-linecap="round" d="M28 59.077c-1.5 1.5-.5 4.5 1 5"/><path fill="#000" d="M51 63.5a1 1 0 1 1-2 0c0-.552.448-1.5 1-1.5s1 .948 1 1.5Z"/><path stroke="#000" stroke-linecap="round" stroke-linejoin="round" d="M61.85 75.5c11 2 15 17 14 25m-4-3.5c-5-2-14.5-1.5-16 0-1.265 1.265-1.5 3-1.5 3.5m12-5c.5-1.5 1-3.5 3.5-5.5"/><path stroke="#000" stroke-linecap="round" stroke-linejoin="round" d="M66.35 95.5c.5-1.5 3-4 7-3.5"/><path stroke="#000" stroke-linecap="round" stroke-linejoin="round" d="M66.35 95.5c.5-.5 2.5-2 4.5-1.5m-10.5 2c-1 2-1 3.5 0 4.5m-22.202-25c-11 2-15 17-14 25m4-3.5c5-2 14.5-1.5 16 0 1.265 1.265 1.5 3 1.5 3.5m-12-5c-.5-1.5-1-3.5-3.5-5.5"/><path stroke="#000" stroke-linecap="round" stroke-linejoin="round" d="M33.648 95.5c-.5-1.5-3-4-7-3.5"/><path stroke="#000" stroke-linecap="round" stroke-linejoin="round" d="M33.648 95.5c-.5-.5-2.5-2-4.5-1.5m10.5 2c1 2 1 3.5 0 4.5M45 98s1.558-1.117 2.5-.907c1.132.252 1.431.907 2.5.907 1.068 0 1.368-.655 2.5-.907.942-.21 2.5.907 2.5.907"/><rect width="4" height="3" x="43.5" y="59.5" fill="#fff" stroke="#000" rx="1.5"/><rect width="4" height="3" x="52.5" y="59.5" fill="#fff" stroke="#000" rx="1.5"/><path fill="#416BFF" stroke="#000" stroke-linejoin="round" d="m42.712 57.885 4.817 1.927a.749.749 0 0 1-.484 1.415l-4.988-1.425a1.014 1.014 0 1 1 .655-1.917Zm14.576 0-4.817 1.927a.749.749 0 0 0 .484 1.415l4.988-1.425a1.014 1.014 0 1 0-.655-1.917Z"/><path fill="#fff" d="M26.912 84.1c.378-.766.451-.827.451-.827l-1.036-1.62L24 80.5l-2.5-.5-2 1-1.5 2-.5 1.5L16 84l-2.5.5-3 1.5L9 88.5V92l1.5 3 2 1.5 1.5.5 3.5.5 2-.5 2 .5 2 1h3l3-.5 3-1 2.5-2.5 1 .5 3.5 1 3.5-1h2.5l1.5-1.5-1-1-2.5-.5-2.5-1h-2l-1.5-1-3-1H32l-3 1.5-2-1.5-2-1 .736-1.232c.297-.801.812-1.929 1.176-2.668Z"/><path stroke="#000" stroke-linecap="round" stroke-linejoin="round" d="M33.856 93.413c3.158 3.52 7.598 2.405 9.313 1.285 1.35.368 3.831.492 3.831-.967 0-1.46-1.914-1.777-3.044-1.556-.564-.809-2.543-1.83-4.573-1.017"/><path stroke="#000" stroke-linecap="round" d="M40.324 92.681c-1.174-2.239-6.13-5.58-11.087-2.46m.971 1.919c-1.717-3.384-6.18-5.935-11.282-3.384m16.187 5.837c-1.324 2.256-9.957 7.603-17.707.49"/><path stroke="#000" stroke-linecap="round" stroke-linejoin="round" d="M19.172 97.045c-3.401.981-9.81.246-10.154-5.886-.395-7.052 5.74-7.423 8.584-6.72.589-4.414 6.884-5.875 10.07-1.401"/><path stroke="#000" stroke-linecap="round" d="M21.82 83.85c2.944.295 3.68 2.748 3.68 4.17m-12.379 4.893c.19 1.445 1.659 2.1 2.186 2.1"/><path fill="#fff" d="M73.088 84.1c-.378-.766-.451-.827-.451-.827l1.036-1.62L76 80.5l2.5-.5 2 1 1.5 2 .5 1.5L84 84l2.5.5 3 1.5 1.5 2.5V92l-1.5 3-2 1.5-1.5.5-3.5.5-2-.5-2 .5-2 1h-3l-3-.5-3-1-2.5-2.5-1 .5-3.5 1-3.5-1h-2.5L53 93.5l1-1 2.5-.5 2.5-1h2l1.5-1 3-1H68l3 1.5 2-1.5 2-1-.736-1.232c-.297-.801-.812-1.929-1.176-2.668Z"/><path stroke="#000" stroke-linecap="round" stroke-linejoin="round" d="M66.144 93.413c-3.158 3.52-7.598 2.405-9.313 1.285-1.35.368-3.831.492-3.831-.967 0-1.46 1.914-1.777 3.044-1.556.564-.809 2.543-1.83 4.573-1.017"/><path stroke="#000" stroke-linecap="round" d="M59.676 92.681c1.174-2.239 6.13-5.58 11.087-2.46m-.971 1.919c1.717-3.384 6.18-5.935 11.282-3.384m-16.187 5.837c1.324 2.256 9.957 7.603 17.707.49"/><path stroke="#000" stroke-linecap="round" stroke-linejoin="round" d="M80.828 97.045c3.401.981 9.81.246 10.154-5.886.395-7.052-5.74-7.423-8.584-6.72-.589-4.414-6.884-5.875-10.07-1.401"/><path stroke="#000" stroke-linecap="round" d="M78.18 83.85c-2.944.295-3.68 2.748-3.68 4.17m12.379 4.893c-.19 1.445-1.659 2.1-2.186 2.1"/><path fill="#46484F" d="M31.5 68.5H33l1.5 2 4 2L43 74l7 .5 5.5-.5 6-1.5 2.5-1 2-2 1-1.5 1.5.5 1 2 .5 2v3l.5-.5H72l1.5 1.5.5 4-2 1.5-5 1.5-5 1.5h-5l-4-.5h-6.5l-4 .5-6.5-.5-6.5-2L26 81l1.5-6H30v-4l.5-1.5 1-1Z"/><path fill="#DC7F7F" d="M50 74.75 43 74l.5 1.5L50 77l6.5-1.5.5-1.5-7 .75Z"/><path fill="#fff" d="m43 74-5.5 1.5 2 1 3.5 2 5.5 1.5h3l5-1 3-1.5 3-2-4-1.5-.5-.5-.5 1L55 76l-5 1-6-1.5-1-1.5Z"/><path stroke="#000" stroke-linecap="round" stroke-linejoin="round" d="M42 74s1.94 3 8 3c6.06 0 8-3 8-3"/><path stroke="#000" stroke-linecap="round" stroke-linejoin="round" d="M57.5 74.5c1.5 0 3 0 4.5 1m-19.5-1c-1.5 0-3 0-4.5 1"/><path stroke="#000" stroke-linecap="round" d="M32.28 62S28.342 74.5 50 74.5C71.658 74.5 67.72 62 67.72 62"/><path stroke="#000" stroke-linecap="round" stroke-linejoin="round" d="M65 71s.5 0 .5 1.5S56.933 79.855 50 80m-2 1.5c-7.5 0-14.5-3.5-18-6-.5-3 0-4.5.5-6s2-1 2.5-1"/><path stroke="#000" stroke-linecap="round" stroke-linejoin="round" d="M29.5 75c-1-.5-2 0-2.495 1.096C26.51 77.194 26 78.949 26 80.743c0 .78 4.195 2.4 9.5 3.394 3.317.622 7.069 1 10.5.776m6-3.413c7.5 0 14.5-3.5 18-6 .5-3 0-4.5-.5-6s-2-1-2.5-1"/><path stroke="#000" stroke-linecap="round" stroke-linejoin="round" d="M70.5 75c1-.5 2 0 2.495 1.096C73.49 77.194 74 78.949 74 80.743c0 1.268-11.08 4.753-20 4.17M35 71s-.5 0-.5 1.5S43.067 79.855 50 80"/><path fill="#416BFF" d="m33.947 50-2.5.5v14l.5 1v1l-.5 2.5v2l1.5.5 1.5-1v-2l-.5-2 .5-1v-12l.5-2.5-1-1Z"/><path stroke="#000" stroke-linecap="round" stroke-linejoin="round" d="M31.947 50c-1 .5-1.5 2.5 0 3.5M34 50c1 .5 1.5 2.5 0 3.5m-2.053 0c-1 .5-1.5 2.5 0 3.5M34 53.5c1 .5 1.5 2.5 0 3.5m-2.053 0c-1 .5-1.5 2.5 0 3.5M34 57c1 .5 1.5 2.5 0 3.5m-2.053 0c-1 .5-1.5 2.5 0 3.5M34 60.5c1 .5 1.5 2.5 0 3.5"/><rect width="3" height="2" x="31.447" y="63.5" fill="#FF3535" stroke="#000" rx="1"/><path stroke="#000" stroke-linecap="round" stroke-linejoin="round" d="M31.947 65.5s-1 4-.5 5 2.5 1 3 0-.5-5-.5-5"/><path fill="#416BFF" d="m36.447 53-2.5.5v14l.5 1v1l-.5 2.5v2l1.5.5 1.5-1v-2l-.5-2 .5-1v-12l.5-2.5-1-1Z"/><path stroke="#000" stroke-linecap="round" stroke-linejoin="round" d="M34.447 53c-1 .5-1.5 2.5 0 3.5M36.5 53c1 .5 1.5 2.5 0 3.5m-2.053 0c-1 .5-1.5 2.5 0 3.5m2.053-3.5c1 .5 1.5 2.5 0 3.5m-2.053 0c-1 .5-1.5 2.5 0 3.5M36.5 60c1 .5 1.5 2.5 0 3.5m-2.053 0c-1 .5-1.5 2.5 0 3.5m2.053-3.5c1 .5 1.5 2.5 0 3.5"/><rect width="3" height="2" x="33.947" y="66.5" fill="#FFEA1B" stroke="#000" rx="1"/><path stroke="#000" stroke-linecap="round" stroke-linejoin="round" d="M34.447 68.5s-1 4-.5 5 2.5 1 3 0-.5-5-.5-5"/><path fill="#416BFF" d="m66.053 50 2.5.5v14l-.5 1v1l.5 2.5v2l-1.5.5-1.5-1v-2l.5-2-.5-1v-12l-.5-2.5 1-1Z"/><path stroke="#000" stroke-linecap="round" stroke-linejoin="round" d="M68.053 50c1 .5 1.5 2.5 0 3.5M66 50c-1 .5-1.5 2.5 0 3.5m2.053 0c1 .5 1.5 2.5 0 3.5M66 53.5c-1 .5-1.5 2.5 0 3.5m2.053 0c1 .5 1.5 2.5 0 3.5M66 57c-1 .5-1.5 2.5 0 3.5m2.053 0c1 .5 1.5 2.5 0 3.5M66 60.5c-1 .5-1.5 2.5 0 3.5"/><rect width="3" height="2" fill="#FF3535" stroke="#000" rx="1" transform="matrix(-1 0 0 1 68.553 63.5)"/><path stroke="#000" stroke-linecap="round" stroke-linejoin="round" d="M68.053 65.5s1 4 .5 5-2.5 1-3 0 .5-5 .5-5"/><path fill="#416BFF" d="m63.553 53 2.5.5v14l-.5 1v1l.5 2.5v2l-1.5.5-1.5-1v-2l.5-2-.5-1v-12l-.5-2.5 1-1Z"/><path stroke="#000" stroke-linecap="round" stroke-linejoin="round" d="M65.553 53c1 .5 1.5 2.5 0 3.5M63.5 53c-1 .5-1.5 2.5 0 3.5m2.053 0c1 .5 1.5 2.5 0 3.5M63.5 56.5c-1 .5-1.5 2.5 0 3.5m2.053 0c1 .5 1.5 2.5 0 3.5M63.5 60c-1 .5-1.5 2.5 0 3.5m2.053 0c1 .5 1.5 2.5 0 3.5M63.5 63.5c-1 .5-1.5 2.5 0 3.5"/><rect width="3" height="2" fill="#FFEA1B" stroke="#000" rx="1" transform="matrix(-1 0 0 1 66.053 66.5)"/><path stroke="#000" stroke-linecap="round" stroke-linejoin="round" d="M65.553 68.5s1 4 .5 5-2.5 1-3 0 .5-5 .5-5"/><path fill="#416BFF" d="M35.5 44 31 45.5l.5-4L34 37l3.5-3.5 5-2.5 6.5-1 6 .5 6 2 5 4 2.5 5 .5 4-1.5-.5-8-1.5-8-.5-10.5.5-5.5.5Z"/><path fill="#495B6D" d="m29 47 2-1.5.5 1 2 1 5.5 1 4.5.5H54l6.5-.5L65 48l3.5-1 .5-1 2 1 1 2.5-.5 3-3 1.5-4 1-8.5 1H46l-9-.5-6.5-1.5-2-1.5L28 50l1-3Z"/><path fill="#627B94" d="M29.5 46.5 31 46l1 1 4 1 8 1h11l11.5-1.5L69 46l2 1-2.5 1.5L63 50l-5.5.5-5.5.5h-4l-5-.5-5.5-.5-4.5-1-3.5-1.5v-1Zm1.5 3.508-2.5-1.5-.5 2 1 2.5 1.5 1 3.5 1 5 .5h2v-2l-.5-1.5-1-.5h-2l-3.5-.5-3-1Zm38 0 2.5-1.5.5 2-1 2.5-1.5 1-3.5 1-5 .5h-2v-2l.5-1.5 1-.5h2l3.5-.5 3-1Z"/><path stroke="#fff" stroke-linecap="round" stroke-linejoin="round" stroke-opacity=".44" d="M66 45c0-1.056-.121-2.057-.352-3M34 45c0-8.105 7.163-13 16-13 1.746 0 3.427.191 5 .56m3.5 1.2c1.966.917 3.645 2.176 4.912 3.74"/><path stroke="#000" stroke-linejoin="round" d="M69 46c0-9.976-8.507-16-19-16s-19 6.024-19 16"/><path fill="#416BFF" d="M69 46c0 1.657-8.507 3-19 3s-19-1.343-19-3c0-1.384 5.932-2.548 14-2.895 1.593-.069 3.27-.105 5-.105 2.097 0 4.114.054 6 .153 7.553.396 13 1.521 13 2.847Z"/><path stroke="#000" d="M69 46c0 1.657-8.507 3-19 3s-19-1.343-19-3c0-1.384 5.932-2.548 14-2.895 1.593-.069 3.27-.105 5-.105s3.407.036 5 .105c8.068.347 14 1.511 14 2.895Z"/><path stroke="#000" d="M30.855 46c-2.855 0-3.24 5-2.12 6.538C29.987 54.258 36.57 56 50 56s20.014-1.741 21.265-3.462C72.385 51 72 46 69.145 46"/><path fill="#F7F7F7" stroke="#000" stroke-linecap="round" stroke-linejoin="round" d="M46 39.143 50 32l4 7.143-4 2.35-4-2.35Z"/><path fill="#D0D7F2" d="M50.444 37.214v-3.556l2.584 4.656-2.584-1.1Zm-.444.444-3.556 1.333L50 41.214v-3.556Z"/><path fill="#A7B6EB" d="m50 37.658 3.556 1.333L50 41.214v-3.556Z"/><path fill="#F7F7F7" stroke="#000" stroke-linecap="round" stroke-linejoin="round" d="m54 41.078-4 4.767-4-4.767 4 2.404 4-2.404Z"/><path fill="#D0D7F2" d="M50.004 45.149v-1.224l1.947-1.1-1.947 2.324Z"/><path stroke="#000" stroke-linecap="round" stroke-linejoin="round" d="m46.5 39 3.5-1.5 3.5 1.5M50 32.5v9"/><path fill="#fff" d="M38.67 40.074C39.517 37.852 41.63 36 43.746 36c2.114 0 1.973.74 0 2.593-1.973 1.852-3.552 3.333-4.229 3.333-.845 0-1.268-.74-.845-1.852Z" opacity=".66"/><ellipse cx="37.551" cy="44.906" fill="#fff" opacity=".66" rx="1.061" ry="1.901" transform="rotate(17.63 37.551 44.906)"/><path fill="#fff" fill-opacity=".44" d="M49.965 34c-7.732 0-14 4.35-14 11.556 0 0 3.316 1.444 14 1.444 10.684 0 14-1.444 14-1.444 0-7.205-6.268-11.556-14-11.556Z"/><path stroke="#000" stroke-linecap="round" d="M29.5 46.5C28 49 41 51 50 51s21.5-2 20.5-4.5"/><path stroke="#000" d="M28.5 48.5c2.5 2 7.25 2.929 11 3.5 2.224.339 1.438 2.714 1.438 4"/><circle cx="39.228" cy="53.23" r=".5" fill="#000"/><ellipse cx="29.892" cy="51.996" fill="#000" rx=".392" ry=".5" transform="rotate(-32.008 29.892 51.996)"/><path stroke="#000" d="M71.5 48.5c-2.5 2-7.25 2.929-11 3.5-2.224.339-1.438 2.714-1.438 4"/><circle cx=".5" cy=".5" r=".5" fill="#000" transform="matrix(-1 0 0 1 61.272 52.73)"/><ellipse cx=".392" cy=".5" fill="#000" rx=".392" ry=".5" transform="scale(-1 1) rotate(-32.008 54.913 149.148)"/><path fill="#FF3535" d="m65.615 38.5 2.5-.5.5 1.5-1.41 2.93 1.226.863 2.258-1.467-.335 2.21-1.56 1.347L67 46l-1.885-2-.65-2.89 1.15-2.61Z"/><path fill="#fff" stroke="#000" stroke-linejoin="round" d="M67.945 39.475c2.342-.19 4.185-2.884 5.086-3.04 1.677-.29.433 2.68-.358 4.164-1.14 2.14-2.788 3.858-3.61 4.079-2.27.609-3.276-5.028-1.118-5.203Z"/><path stroke="#000" stroke-linejoin="round" d="M68.615 39c-.5-1.5-3.35-1.748-4 1.5-.5 2.5 1.385 8 4.881 4"/><path fill="#FF3535" d="m34.38 38.5-2.5-.5-.5 1.5 1.412 2.93-1.227.863-2.257-1.467.334 2.21 1.561 1.347 1.793.617 1.885-2 .65-2.89-1.15-2.61Z"/><path fill="#fff" stroke="#000" stroke-linejoin="round" d="M32.05 39.475c-2.34-.19-4.183-2.884-5.085-3.04-1.677-.29-.433 2.68.358 4.164 1.14 2.14 2.789 3.858 3.61 4.079 2.27.609 3.277-5.028 1.118-5.203Z"/><path stroke="#000" stroke-linejoin="round" d="M31.38 39c.501-1.5 3.351-1.748 4.001 1.5.5 2.5-1.385 8-4.881 4"/></g></svg>