<svg xmlns="http://www.w3.org/2000/svg" width="100" height="100" fill="none"><path fill="#416BFF" d="M0 0h100v100H0z"/><mask id="a" width="100" height="100" x="0" y="0" maskUnits="userSpaceOnUse" style="mask-type:alpha"><path fill="#456EFF" d="M0 0h100v100H0z"/></mask><g mask="url(#a)"><path fill="#A0632A" d="m25.619 65.095-1.524 5.334-2.285 2.285-.762 3.048 1.523 3.81-1.523 1.523-2.286 6.096L18 94.81l.762 6.095 2.286 7.619 4.571 5.333 6.095 3.81 8.381 3.047 7.62.762h6.094l8.382-1.524 9.904-4.571 3.81-3.048 3.047-4.571 2.286-6.095.762-6.096v-6.857l-2.286-6.095-2.285-3.047 1.523-3.81-.761-3.048-2.286-2.285v-2.286l-1.524-3.048-3.81-3.047-6.857-2.286L56.095 59h-9.904l-9.905.762-6.096 2.286-4.571 3.047Z"/><path stroke="#000" d="M24.095 70.429C24.095 65.095 27.143 59 50 59s25.905 6.095 25.905 11.429"/><path stroke="#000" stroke-linecap="round" stroke-linejoin="round" d="M22.108 78.81c-3.764-5.334 1.86-13.715 27.107-13.715 25.246 0 32.903 8.381 28.613 13.715"/><path stroke="#000" stroke-linecap="round" d="M35.109 72.714c-10.763 3.048-18.45 7.62-16.913 25.143 1.537 17.524 16.913 23.619 31.518 23.619m15.177-48.762c10.763 3.048 18.45 7.62 16.913 25.143-1.537 17.524-16.913 23.619-31.518 23.619"/><path fill="#8D5827" d="m29.5 79.5.5-2 1.5 1.5-1 1-1-.5Zm41 0-.5-2-1 1.5 1 1 .5-.5Z"/><path fill="#FFDDCF" d="m47 97-2.5.5.5 1 .5 2.5h9v-1.5L55 98l-2-1-3 1-3-1Z"/><path fill="#FFEA1B" d="M35.5 44 31 45.5l.5-4L34 37l3.5-3.5 5-2.5 6.5-1 6 .5 6 2 5 4 2.5 5 .5 4-1.5-.5-8-1.5-8-.5-10.5.5-5.5.5Z"/><path fill="#495B6D" d="m29 47 2-1.5.5 1 2 1 5.5 1 4.5.5H54l6.5-.5L65 48l3.5-1 .5-1 2 1 1 2.5-.5 3-3 1.5-4 1-8.5 1H46l-9-.5-6.5-1.5-2-1.5L28 50l1-3Z"/><path fill="#627B94" d="M29.5 46.5 31 46l1 1 4 1 8 1h11l11.5-1.5L69 46l2 1-2.5 1.5L63 50l-5.5.5-5.5.5h-4l-5-.5-5.5-.5-4.5-1-3.5-1.5v-1Z"/><path fill="#FFDDCF" d="m24 57 2.5-2 2.5-2 5.5 2 5.5.5 6.5.5H56l10.5-1 4.5-2 2 2 2.5 1.5 1 2V62l-.5 2.5-1.5 2-3 .5-2-.5-1.5-1-1.5 3.5-2.5 2.5-4 2-6 1h-7l-6.5-1-3-1L34 70l-1.5-2.5L32 65l-1 1-2 1h-2.5l-2-1.5-1-2L23 61l1-4Z"/><path fill="#FFB89B" d="m47 74.5-5-.5 1 1.5 2.5 1.5 2.5.5 1 1 1 1 1-1 1-1 2.5-.5 2-1.5L58 74l-6 .5h-5Z"/><path fill="#00D6AC" d="m48 77 1 1.5 1 1v18l-.5.5-3.5-1-.5.5-.5.5.5 3h-21l-.5-.5v-5l.5-3.5 1-3.5 2-4.5 2.5-4 5-3.5 1.5-.5 2-1 .5.5-.5 1L37 78l.5 1.5 1 .5 3-.5 4.5-2 2-.5Z"/><path fill="#627B94" d="M43.5 75.5 42 74l-3-1-.5.5V75l.5 1-1 1-1 1.5.5 1 2.5.5 3-1 3-2-2.5-1.5Zm13 0L58 74l3-1 .5.5V75l-.5 1 1 1 1 1.5-.5 1-2.5.5-3-1-3-2 2.5-1.5Z"/><path fill="#00D6AC" d="m52 77-1 1.5-1 1v18l.5.5 3.5-1 1 .5-.5 1-.5 2.5h21.5l.5-.5v-5l-.5-3.5-1-3.5-2-4.5-2.5-4-5-3.5-1.5-.5-2-1-.5.5.5 1L63 78l-.5 1.5-1 .5-3-.5-4.5-2-2-.5Z"/><path fill="#FFEA1B" d="m30 67 1.5-1h.5l1 2.5 2 2 2 1.5 1.5 1v1.5h-1l-2-1-1-1.5-.5 1.5-1 .5h-1l-1.5-1.5-.5-2V67Z"/><path stroke="#000" stroke-linecap="round" stroke-linejoin="round" d="M30 67c-.5 3.5.4 5.847 2 6.77 1.6.923 2.5-.616 2.5-1.77 0 0 1.5 2.5 3.5 2.5"/><path fill="#FFEA1B" d="M69.5 67 68 66h-.5l-1 2.5-2 2-2 1.5-1.5 1 .5 1 .5.5 2-1 1-1.5.5 1.5 1 .5h1l1.5-1.5.5-2V67Z"/><path stroke="#000" stroke-linecap="round" stroke-linejoin="round" d="M69.5 67c.5 3.5-.4 5.847-2 6.77-1.6.923-2.5-.616-2.5-1.77 0 0-1.5 2.5-3.5 2.5"/><path stroke="#000" stroke-linecap="round" d="M32.28 62S28.342 74.5 50 74.5C71.658 74.5 67.72 62 67.72 62"/><path stroke="#000" stroke-linecap="round" d="M46 65s1 1 4 1 4-1 4-1"/><ellipse cx="38" cy="67.889" fill="#FFB89B" rx="2" ry="3.5" transform="rotate(-60 38 67.89)"/><ellipse cx="2" cy="3.5" fill="#FFB89B" rx="2" ry="3.5" transform="scale(-1 1) rotate(-60 25.873 90.928)"/><path fill="#fff" stroke="#000" d="M72 24.887c0 1.438-2.82 5.752-4.231 5.033-1.41-.72-.706-5.033.705-6.47 1.083-1.105 3.526 0 3.526 1.437Z"/><path fill="#fff" stroke="#000" stroke-linejoin="round" d="M79.905 30c-1.79 0-3.23 1.354-3.727 2.031-.994-1.354-2.757-3.273-4.472-.677-2.236 3.386 1.49 4.063 2.236 2.032 2.236 3.385 4.808 3.08 6.708 1.354 2.236-2.032 1.49-4.74-.745-4.74Z"/><path fill="#fff" stroke="#000" d="M28 24.887c0 1.438 2.82 5.752 4.231 5.033 1.41-.72.706-5.033-.705-6.47-1.083-1.105-3.526 0-3.526 1.437Z"/><path fill="#fff" stroke="#000" stroke-linejoin="round" d="M20.095 30c1.79 0 3.23 1.354 3.727 2.031.994-1.354 2.758-3.273 4.472-.677 2.236 3.386-1.49 4.063-2.236 2.032-2.236 3.385-4.808 3.08-6.708 1.354-2.236-2.032-1.49-4.74.745-4.74Z"/><path stroke="#000" stroke-linecap="round" d="M68 58.077c.5-1.5 2.04-3.494 5-3 2.96.493 4.083 4 3.5 7.5-.417 2.5-1.5 4.5-4.5 4.5-2.318 0-4-1.227-4-2.556"/><path stroke="#000" stroke-linecap="round" d="M69 60.577c1.5-2 4-2.5 6-.5"/><path stroke="#000" stroke-linecap="round" d="M72 59.077c1.5 1.5.5 4.5-1 5m-39-6c-.5-1.5-2.04-3.494-5-3-2.96.493-4.083 4-3.5 7.5.417 2.5 1.5 4.5 4.5 4.5 2.318 0 4-1.227 4-2.556"/><path stroke="#000" stroke-linecap="round" d="M31 60.577c-1.5-2-4-2.5-6-.5"/><path stroke="#000" stroke-linecap="round" d="M28 59.077c-1.5 1.5-.5 4.5 1 5"/><path fill="#000" d="M51 63.5a1 1 0 1 1-2 0c0-.552.448-1.5 1-1.5s1 .948 1 1.5Z"/><path stroke="#000" stroke-linecap="round" stroke-linejoin="round" d="M41.674 73.855c.98.964 3.09 3.03 4.826 3.145-3.809 2.121-8.199 4.012-9.358 2.037-.821-1.398 1.566-1.88 1.786-3.634"/><path stroke="#000" stroke-linecap="round" stroke-linejoin="round" d="M38.834 72.958c-.909 1.254-.314 1.975.501 2.977m18.927-2.08c-.98.964-3.026 3.03-4.762 3.145 3.809 2.121 8.135 4.012 9.294 2.037.822-1.398-1.566-1.88-1.785-3.634"/><path stroke="#000" stroke-linecap="round" stroke-linejoin="round" d="M61.102 72.958c.91 1.254.314 1.975-.5 2.977M46.5 77c4.5 0 3.5 8.5 3.5 8.5S49 77 53.5 77m8.35-1.5c11 2 15 17 14 25"/><path fill="#BD793A" d="m68.35 76.5 1.5 1-1.5 2-1 2.5-1 3.5v3l.5 3.5 1 3-3.5.5-1-2.5-1-4v-2.5l.5-2.5.5-2.5 1-3 1.5-2 1-.5 1.5.5Z"/><path stroke="#000" d="M69.85 80c2-1.5-1.146-4.296-3.072-3.975-3 .5-6.428 11.475-2.428 19.475"/><path stroke="#000" d="M69.778 77.525c-4.5 5-3.928 13.475-2.428 15.975"/><path stroke="#000" d="M68.778 76.525c-4.5 5-5 15-2 18.5"/><path stroke="#000" stroke-linecap="round" stroke-linejoin="round" d="M71.85 97c-5-2-14.5-1.5-16 0-1.265 1.265-1.5 3-1.5 3.5m12-5c.5-1.5 1-3.5 3.5-5.5"/><path stroke="#000" stroke-linecap="round" stroke-linejoin="round" d="M66.35 95.5c.5-1.5 3-4 7-3.5"/><path stroke="#000" stroke-linecap="round" stroke-linejoin="round" d="M66.35 95.5c.5-.5 2.5-2 4.5-1.5m-10.5 2c-1 2-1 3.5 0 4.5m-22.202-25c-11 2-15 17-14 25"/><path fill="#BD793A" d="m31.648 76.5-1.5 1 1.5 2 1 2.5 1 3.5v3l-.5 3.5-1 3 3.5.5 1-2.5 1-4v-2.5l-.5-2.5-.5-2.5-1-3-1.5-2-1-.5-1.5.5Z"/><path stroke="#000" d="M30.148 80c-2-1.5 1.146-4.296 3.072-3.975 3 .5 6.428 11.475 2.428 19.475"/><path stroke="#000" d="M30.22 77.525c4.5 5 3.928 13.475 2.428 15.975"/><path stroke="#000" d="M31.22 76.525c4.5 5 5 15 2 18.5"/><path stroke="#000" stroke-linecap="round" stroke-linejoin="round" d="M28.148 97c5-2 14.5-1.5 16 0 1.265 1.265 1.5 3 1.5 3.5m-12-5c-.5-1.5-1-3.5-3.5-5.5"/><path stroke="#000" stroke-linecap="round" stroke-linejoin="round" d="M33.648 95.5c-.5-1.5-3-4-7-3.5"/><path stroke="#000" stroke-linecap="round" stroke-linejoin="round" d="M33.648 95.5c-.5-.5-2.5-2-4.5-1.5m10.5 2c1 2 1 3.5 0 4.5M45 98s1.558-1.117 2.5-.907c1.132.252 1.431.907 2.5.907 1.068 0 1.368-.655 2.5-.907.942-.21 2.5.907 2.5.907m-5 0V85"/><path fill="#fff" stroke="#000" d="M50 79.5a1.09 1.09 0 0 0-1.075.911l-.254 1.52a1.347 1.347 0 1 0 2.658 0l-.254-1.52A1.09 1.09 0 0 0 50 79.5Z"/><rect width="3" height="3" x="44" y="60" fill="#000" rx="1.5"/><rect width="3" height="3" x="53" y="60" fill="#000" rx="1.5"/><path stroke="#fff" stroke-linecap="round" stroke-linejoin="round" stroke-opacity=".66" d="M66 45c0-1.056-.121-2.057-.352-3M34 45c0-8.105 7.163-13 16-13 1.746 0 3.427.191 5 .56m3.5 1.2c1.966.917 3.645 2.176 4.912 3.74"/><path stroke="#000" stroke-linejoin="round" d="M69 46c0-9.976-8.507-16-19-16s-19 6.024-19 16"/><path fill="#627B94" stroke="#000" d="M33.722 41.499c-.263.831-.742 1.487-1.278 1.882-.536.396-1.096.512-1.574.36-.478-.152-.869-.569-1.08-1.202-.21-.632-.222-1.443.042-2.275.264-.831.742-1.487 1.278-1.883.537-.395 1.096-.51 1.575-.36.478.153.868.57 1.079 1.202.21.633.222 1.444-.042 2.276Z"/><path fill="#00D6AC" stroke="#000" stroke-linecap="round" d="m26.52 55.076.32-.384-.32.384a.75.75 0 0 0 .96-1.152l-.32.384.32-.384c-2.733-2.278-3.316-5.7-2.51-8.464.817-2.8 2.929-4.633 5.407-4.22a.75.75 0 1 0 .246-1.48c-3.524-.587-6.16 2.082-7.093 5.28-.944 3.236-.277 7.314 2.99 10.036Z"/><path fill="#627B94" stroke="#000" d="M66.274 41.499c.264.831.742 1.487 1.278 1.882.537.396 1.096.512 1.575.36.478-.152.869-.569 1.079-1.202.21-.632.223-1.443-.041-2.275-.264-.831-.742-1.487-1.278-1.883-.537-.395-1.097-.51-1.575-.36-.478.153-.869.57-1.079 1.202-.21.633-.223 1.444.041 2.276Z"/><path fill="#00D6AC" stroke="#000" stroke-linecap="round" d="m73.477 55.076-.32-.384.32.384a.75.75 0 0 1-.96-1.152l.32.384-.32-.384c2.733-2.278 3.316-5.7 2.51-8.464-.817-2.8-2.929-4.633-5.407-4.22a.75.75 0 1 1-.246-1.48c3.523-.587 6.16 2.082 7.093 5.28.944 3.236.277 7.314-2.99 10.036Z"/><mask id="b" width="16" height="12" x="25" y="49" maskUnits="userSpaceOnUse" style="mask-type:alpha"><path fill="#D9D9D9" d="m41 56-10.5-2-5-4.5L25 61h16v-5Z"/></mask><g mask="url(#b)"><path fill="#FFEA1B" d="m26.5 56 2-2.5 1-.5 5-.5 5-2.5.5.5v2l-.5 2-1 2-1.5 1-2 .5-1.5-.5-.5-2-.5 1.5-.5 1.5-1.5 1.5h-1l-.5-1v-1l-.5-.5-1 1h-1L26 58v-1l.5-1Z"/><path stroke="#000" stroke-linecap="round" stroke-linejoin="round" d="M40 50.5c0 3.5-1 6-3 7-1.844.922-4 1-4-1.5 0 0-.5 3.5-3 4-1.645.329-1-3-1-3s-2 2.5-3 1c-.877-1.316 2.5-5.5 3.5-5.5"/></g><mask id="c" width="16" height="12" x="59" y="49" maskUnits="userSpaceOnUse" style="mask-type:alpha"><path fill="#D9D9D9" d="m59 56 10.5-2 5-4.5L75 61H59v-5Z"/></mask><g mask="url(#c)"><path fill="#FFEA1B" d="m73.5 56-2-2.5-1-.5-5-.5-5-2.5-.5.5v2l.5 2 1 2 1.5 1 2 .5 1.5-.5.5-2 .5 1.5.5 1.5 1.5 1.5h1l.5-1v-1l.5-.5 1 1h1l.5-.5v-1l-.5-1Z"/><path stroke="#000" stroke-linecap="round" stroke-linejoin="round" d="M60 50.5c0 3.5 1 6 3 7 1.844.922 4 1 4-1.5 0 0 .5 3.5 3 4 1.645.329 1-3 1-3s2 2.5 3 1c.877-1.316-2.5-5.5-3.5-5.5"/></g><ellipse cx="50" cy="46" fill="#FFEA1B" stroke="#000" rx="19" ry="3"/><path fill="#627B94" d="m31 50-2.5-1.5-.5 2 1 2.5 1.5 1 3.5 1 5 .5h2v-2l-.5-1.5-1-.5h-2L34 51l-3-1Z"/><path stroke="#000" d="M28.5 48.5c2.5 2 7.25 2.929 11 3.5 2.224.339 1.438 2.714 1.438 4"/><circle cx="39.228" cy="53.235" r=".5" fill="#000"/><ellipse cx="29.892" cy="52" fill="#000" rx=".392" ry=".5" transform="rotate(-32.008 29.892 52)"/><path fill="#627B94" d="m69 50 2.5-1.5.5 2-1 2.5-1.5 1-3.5 1-5 .5h-2v-2l.5-1.5 1-.5h2L66 51l3-1Z"/><path stroke="#000" d="M71.5 48.5c-2.5 2-7.25 2.929-11 3.5-2.224.339-1.438 2.714-1.438 4"/><circle cx=".5" cy=".5" r=".5" fill="#000" transform="matrix(-1 0 0 1 61.272 52.735)"/><ellipse cx=".392" cy=".5" fill="#000" rx=".392" ry=".5" transform="scale(-1 1) rotate(-32.008 54.92 149.15)"/><path stroke="#000" d="M30.855 46c-2.855 0-3.24 5-2.12 6.538C29.987 54.258 36.57 56 50 56s20.014-1.741 21.265-3.462C72.385 51 72 46 69.145 46"/><path fill="#fff" stroke="#000" stroke-linejoin="round" d="M42 37a2 2 0 0 1 2-2h12a2 2 0 0 1 2 2v6a2 2 0 0 1-2 2h-4l-1.168 1.752a1 1 0 0 1-1.664 0L48 45h-4a2 2 0 0 1-2-2v-6Z"/><circle cx="46" cy="40" r="1" fill="#000"/><circle cx="50" cy="40" r="1" fill="#000"/><circle cx="54" cy="40" r="1" fill="#000"/><path fill="#FFEA1B" stroke="#000" stroke-linejoin="round" d="M43.929 58.245c1.808 1.109 4.408.856 4.035 2.14-.372 1.282-4.194.27-5.29-.428-1.544-.983-.14-2.568 1.255-1.712Zm12.142 0c-1.808 1.109-4.408.856-4.035 2.14.372 1.282 4.194.27 5.29-.428 1.544-.983.14-2.568-1.255-1.712Z"/><path fill="#fff" fill-opacity=".88" d="M38.706 40.074C39.55 37.852 41.666 36 43.78 36s1.973.74 0 2.593c-1.973 1.852-3.552 3.333-4.228 3.333-.846 0-1.269-.74-.846-1.852Z"/><ellipse cx="37.587" cy="44.906" fill="#fff" fill-opacity=".88" rx="1.061" ry="1.901" transform="rotate(17.63 37.587 44.906)"/><path fill="#fff" fill-opacity=".44" d="M50 34c-7.732 0-14 4.35-14 11.556 0 0 3.316 1.444 14 1.444 10.684 0 14-1.444 14-1.444C64 38.35 57.732 34 50 34Z"/><path stroke="#000" stroke-linecap="round" d="M29.5 46.5C28 49 41 51 50 51s21.5-2 20.5-4.5"/><path fill="#fff" d="M26.912 84.1c.378-.766.451-.827.451-.827l-1.036-1.62L24 80.5l-2.5-.5-2 1-1.5 2-.5 1.5L16 84l-2.5.5-3 1.5L9 88.5V92l1.5 3 2 1.5 1.5.5 3.5.5 2-.5 2 .5 2 1h3l3-.5 3-1 2.5-2.5 1 .5 3.5 1 3.5-1h2.5l1.5-1.5-1-1-2.5-.5-2.5-1h-2l-1.5-1-3-1H32l-3 1.5-2-1.5-2-1 .736-1.232c.297-.801.812-1.929 1.176-2.668Z"/><path stroke="#000" stroke-linecap="round" stroke-linejoin="round" d="M33.856 93.413c3.158 3.52 7.598 2.405 9.313 1.285 1.35.368 3.831.492 3.831-.967 0-1.46-1.914-1.777-3.044-1.556-.564-.809-2.543-1.83-4.573-1.017"/><path stroke="#000" stroke-linecap="round" d="M40.324 92.681c-1.174-2.239-6.13-5.58-11.087-2.46m.971 1.919c-1.717-3.384-6.18-5.935-11.282-3.384m16.187 5.837c-1.324 2.256-9.957 7.603-17.707.49"/><path stroke="#000" stroke-linecap="round" stroke-linejoin="round" d="M19.172 97.045c-3.401.981-9.81.246-10.154-5.886-.395-7.052 5.74-7.423 8.584-6.72.589-4.414 6.884-5.875 10.07-1.401"/><path stroke="#000" stroke-linecap="round" d="M21.82 83.85c2.944.295 3.68 2.748 3.68 4.17m-12.379 4.893c.19 1.445 1.659 2.1 2.186 2.1"/><path fill="#fff" d="M73.088 84.1c-.378-.766-.451-.827-.451-.827l1.036-1.62L76 80.5l2.5-.5 2 1 1.5 2 .5 1.5L84 84l2.5.5 3 1.5 1.5 2.5V92l-1.5 3-2 1.5-1.5.5-3.5.5-2-.5-2 .5-2 1h-3l-3-.5-3-1-2.5-2.5-1 .5-3.5 1-3.5-1h-2.5L53 93.5l1-1 2.5-.5 2.5-1h2l1.5-1 3-1H68l3 1.5 2-1.5 2-1-.736-1.232c-.297-.801-.812-1.929-1.176-2.668Z"/><path stroke="#000" stroke-linecap="round" stroke-linejoin="round" d="M66.144 93.413c-3.158 3.52-7.598 2.405-9.313 1.285-1.35.368-3.831.492-3.831-.967 0-1.46 1.914-1.777 3.044-1.556.564-.809 2.543-1.83 4.573-1.017"/><path stroke="#000" stroke-linecap="round" d="M59.676 92.681c1.174-2.239 6.13-5.58 11.087-2.46m-.971 1.919c1.717-3.384 6.18-5.935 11.282-3.384m-16.187 5.837c1.324 2.256 9.957 7.603 17.707.49"/><path stroke="#000" stroke-linecap="round" stroke-linejoin="round" d="M80.828 97.045c3.401.981 9.81.246 10.154-5.886.395-7.052-5.74-7.423-8.584-6.72-.589-4.414-6.884-5.875-10.07-1.401"/><path stroke="#000" stroke-linecap="round" d="M78.18 83.85c-2.944.295-3.68 2.748-3.68 4.17m12.379 4.893c-.19 1.445-1.659 2.1-2.186 2.1"/></g><path fill="#fff" d="M25.888 14.604a.299.299 0 0 1 .036.132.264.264 0 0 1-.084.192.244.244 0 0 1-.18.072H23.2a.578.578 0 0 1-.348-.096.622.622 0 0 1-.168-.228l-1.032-2.292h-.492v2.292a.311.311 0 0 1-.096.228.311.311 0 0 1-.228.096h-2.352a.311.311 0 0 1-.228-.096.311.311 0 0 1-.096-.228V6.924c0-.088.032-.164.096-.228a.311.311 0 0 1 .228-.096h3.552c1.152 0 2.052.26 2.7.78.648.512.972 1.224.972 2.136 0 .52-.116.98-.348 1.38a2.895 2.895 0 0 1-.948.972l1.476 2.736Zm-3.852-4.5a.508.508 0 0 0 .408-.168.688.688 0 0 0 .144-.444.739.739 0 0 0-.144-.456c-.088-.136-.224-.204-.408-.204h-.876v1.272h.876Zm7.664 1.8h3.336a.311.311 0 0 0 .228-.096.311.311 0 0 0 .096-.228v-1.56a.311.311 0 0 0-.096-.228.311.311 0 0 0-.228-.096H29.7V8.94h3.6a.311.311 0 0 0 .228-.096.311.311 0 0 0 .096-.228V6.924a.311.311 0 0 0-.096-.228.311.311 0 0 0-.228-.096h-6.156a.311.311 0 0 0-.228.096.311.311 0 0 0-.096.228v7.752c0 .088.032.164.096.228s.14.096.228.096h6.252a.311.311 0 0 0 .228-.096.311.311 0 0 0 .096-.228v-1.692a.311.311 0 0 0-.096-.228.311.311 0 0 0-.228-.096H29.7v-.756Zm7.68-4.908a.614.614 0 0 0-.18-.276.515.515 0 0 0-.36-.12h-2.232a.264.264 0 0 0-.192.084.244.244 0 0 0-.072.18l.012.084 2.256 7.656a.614.614 0 0 0 .18.276c.088.08.208.12.36.12h2.736c.152 0 .272-.04.36-.12a.614.614 0 0 0 .18-.276l2.256-7.656.012-.084a.227.227 0 0 0-.084-.18.227.227 0 0 0-.18-.084H40.2a.515.515 0 0 0-.36.12.614.614 0 0 0-.18.276l-1.14 4.464-1.14-4.464ZM43.855 15a.311.311 0 0 1-.228-.096.311.311 0 0 1-.096-.228V6.924c0-.088.032-.164.096-.228a.311.311 0 0 1 .228-.096h2.448c.088 0 .164.032.228.096s.096.14.096.228v7.752a.311.311 0 0 1-.096.228.311.311 0 0 1-.228.096h-2.448Zm6.974-3.096h3.336a.311.311 0 0 0 .228-.096.311.311 0 0 0 .096-.228v-1.56a.311.311 0 0 0-.096-.228.311.311 0 0 0-.228-.096H50.83V8.94h3.6a.311.311 0 0 0 .228-.096.311.311 0 0 0 .096-.228V6.924a.311.311 0 0 0-.096-.228.311.311 0 0 0-.228-.096h-6.156a.311.311 0 0 0-.228.096.311.311 0 0 0-.096.228v7.752c0 .088.032.164.096.228s.14.096.228.096h6.252a.311.311 0 0 0 .228-.096.311.311 0 0 0 .096-.228v-1.692a.311.311 0 0 0-.096-.228.311.311 0 0 0-.228-.096H50.83v-.756Zm10.584 2.772a.733.733 0 0 0 .156.216c.08.072.192.108.336.108h1.716a.529.529 0 0 0 .372-.132.533.533 0 0 0 .18-.324L65.277 6.9v-.036a.227.227 0 0 0-.084-.18.227.227 0 0 0-.18-.084h-2.232c-.144 0-.252.024-.324.072-.064.048-.1.132-.108.252l-.408 3.372-.492-1.488c-.08-.232-.216-.348-.408-.348h-1.224c-.192 0-.328.116-.408.348l-.492 1.5-.408-3.384c-.008-.12-.048-.204-.12-.252-.064-.048-.168-.072-.312-.072h-2.232a.264.264 0 0 0-.192.084.244.244 0 0 0-.072.18V6.9l1.104 7.644c.016.12.072.228.168.324a.574.574 0 0 0 .384.132h1.716c.144 0 .252-.036.324-.108a.662.662 0 0 0 .168-.216l.984-2.46.984 2.46Zm7.697-2.772h3.336a.311.311 0 0 0 .228-.096.311.311 0 0 0 .096-.228v-1.56a.311.311 0 0 0-.096-.228.311.311 0 0 0-.228-.096H69.11V8.94h3.6a.311.311 0 0 0 .228-.096.311.311 0 0 0 .096-.228V6.924a.311.311 0 0 0-.096-.228.311.311 0 0 0-.228-.096h-6.156a.311.311 0 0 0-.228.096.311.311 0 0 0-.096.228v7.752c0 .088.032.164.096.228s.14.096.228.096h6.252a.311.311 0 0 0 .228-.096.311.311 0 0 0 .096-.228v-1.692a.311.311 0 0 0-.096-.228.311.311 0 0 0-.228-.096H69.11v-.756Zm12.852 2.7a.299.299 0 0 1 .036.132.264.264 0 0 1-.084.192.244.244 0 0 1-.18.072h-2.46a.578.578 0 0 1-.348-.096.622.622 0 0 1-.168-.228l-1.032-2.292h-.492v2.292a.311.311 0 0 1-.096.228.311.311 0 0 1-.228.096h-2.352a.311.311 0 0 1-.228-.096.311.311 0 0 1-.096-.228V6.924c0-.088.032-.164.096-.228a.311.311 0 0 1 .228-.096h3.552c1.152 0 2.052.26 2.7.78.648.512.972 1.224.972 2.136 0 .52-.116.98-.348 1.38a2.895 2.895 0 0 1-.948.972l1.476 2.736Zm-3.852-4.5a.508.508 0 0 0 .408-.168.688.688 0 0 0 .144-.444.739.739 0 0 0-.144-.456c-.088-.136-.224-.204-.408-.204h-.876v1.272h.876Z"/></svg>