<svg xmlns="http://www.w3.org/2000/svg" width="32" height="32" fill="none"><path fill="#fff" fill-opacity=".44" d="M7.227 21.554a.84.84 0 0 1 .597-.249h20.75c.38 0 .569.459.3.723l-4.1 4.1a.844.844 0 0 1-.598.249H3.426a.422.422 0 0 1-.3-.723l4.1-4.1Zm0-15.304A.841.841 0 0 1 7.824 6h20.75c.38 0 .569.458.3.722l-4.1 4.096a.845.845 0 0 1-.598.249H3.426a.422.422 0 0 1-.3-.723l4.1-4.095Zm17.546 7.602a.845.845 0 0 0-.597-.25H3.426a.422.422 0 0 0-.3.723l4.1 4.095c.16.16.374.25.598.25h20.75a.422.422 0 0 0 .3-.723l-4.1-4.095Z"/></svg>