<svg xmlns="http://www.w3.org/2000/svg" width="48" height="48" fill="none"><rect width="48" height="48" fill="url(#a)" rx="12"/><path stroke="#fff" stroke-linejoin="round" stroke-width="2.667" d="M28 33.333c-.42 0-.815.198-1.067.534l-1.866 2.488c-.534.712-1.6.712-2.134 0l-1.866-2.488A1.333 1.333 0 0 0 20 33.333h-5.333a4 4 0 0 1-4-4V16a4 4 0 0 1 4-4h18.666a4 4 0 0 1 4 4v13.333a4 4 0 0 1-4 4H28Z"/><rect width="18.667" height="2.667" x="14.667" y="18.666" fill="#fff" rx="1.333"/><rect width="18.667" height="2.667" x="14.667" y="24" fill="#fff" rx="1.333"/><defs><linearGradient id="a" x1="23.415" x2="23.415" y1="0" y2="48" gradientUnits="userSpaceOnUse"><stop stop-color="#263B85"/><stop offset="0" stop-color="#263B85"/><stop offset="1" stop-color="#121D43"/></linearGradient></defs></svg>