<svg xmlns="http://www.w3.org/2000/svg" width="48" height="48" fill="none"><rect width="48" height="48" fill="url(#a)" rx="12"/><path stroke="#fff" stroke-width="2.667" d="M13.333 12H20c.736 0 1.333.597 1.333 1.333v8h-8A1.333 1.333 0 0 1 12 20v-6.667c0-.736.597-1.333 1.333-1.333Zm0 24H20c.736 0 1.333-.597 1.333-1.333v-8h-8c-.736 0-1.333.597-1.333 1.333v6.667c0 .736.597 1.333 1.333 1.333Zm21.334-24H28c-.736 0-1.333.597-1.333 1.333v8h8c.736 0 1.333-.597 1.333-1.333v-6.667c0-.736-.597-1.333-1.333-1.333Zm0 24H28a1.333 1.333 0 0 1-1.333-1.333v-8h8c.736 0 1.333.597 1.333 1.333v6.667c0 .736-.597 1.333-1.333 1.333Z"/><defs><linearGradient id="a" x1="23.415" x2="23.415" y1="0" y2="48" gradientUnits="userSpaceOnUse"><stop stop-color="#263B85"/><stop offset="0" stop-color="#263B85"/><stop offset="1" stop-color="#121D43"/></linearGradient></defs></svg>