<svg xmlns="http://www.w3.org/2000/svg" width="48" height="48" fill="none"><rect width="48" height="48" fill="url(#a)" rx="12"/><g fill="#fff"><mask id="b"><path fill-rule="evenodd" d="M24 37.333c7.364 0 13.333-5.97 13.333-13.333 0-7.364-5.97-13.334-13.333-13.334-7.364 0-13.333 5.97-13.333 13.334 0 2.398.633 4.648 1.74 6.592l-.98 3.663a1.333 1.333 0 0 0 1.632 1.633l3.378-.906A13.272 13.272 0 0 0 24 37.333Z" clip-rule="evenodd"/></mask><path d="m12.408 30.592 2.575.69c.182-.678.09-1.4-.258-2.01l-2.317 1.32Zm-.982 3.663 2.576.69-2.576-.69Zm1.633 1.633-.69-2.576.69 2.576Zm3.378-.906 1.515-2.195a2.667 2.667 0 0 0-2.205-.38l.69 2.575ZM34.667 24c0 5.89-4.776 10.666-10.667 10.666V40c8.837 0 16-7.164 16-16h-5.333ZM24 13.333c5.891 0 10.667 4.776 10.667 10.667H40c0-8.837-7.163-16-16-16v5.333ZM13.333 24c0-5.891 4.776-10.667 10.667-10.667V8C15.164 8 8 15.163 8 24h5.333Zm1.392 5.272A10.607 10.607 0 0 1 13.333 24H8c0 2.873.76 5.576 2.09 7.912l4.635-2.64Zm-.723 5.673.981-3.663-5.151-1.38-.982 3.662 5.152 1.38Zm-1.633-1.633a1.333 1.333 0 0 1 1.633 1.633l-5.152-1.38c-.796 2.974 1.925 5.695 4.9 4.898l-1.38-5.151Zm3.378-.905-3.378.905 1.38 5.151 3.379-.905-1.38-5.151ZM24 34.666a10.6 10.6 0 0 1-6.048-1.88l-3.029 4.39A15.938 15.938 0 0 0 24 40v-5.334Z" mask="url(#b)"/></g><path stroke="#fff" stroke-linecap="round" stroke-width="2.667" d="M18.667 28c2.666 2.667 8 2.667 10.666 0"/><defs><linearGradient id="a" x1="23.415" x2="23.415" y1="0" y2="48" gradientUnits="userSpaceOnUse"><stop stop-color="#263B85"/><stop offset="0" stop-color="#263B85"/><stop offset="1" stop-color="#121D43"/></linearGradient></defs></svg>