<svg xmlns="http://www.w3.org/2000/svg" width="68" height="68" fill="none"><path fill="#fff" d="M0 12C0 5.373 5.373 0 12 0h44c6.627 0 12 5.373 12 12v44c0 6.627-5.373 12-12 12H12C5.373 68 0 62.627 0 56V12Z" opacity=".22"/><g filter="url(#a)"><path fill="#fff" fill-rule="evenodd" d="M45.879 36.121a3 3 0 0 0 0-4.242l-9.9-9.9a3 3 0 0 0-4.242 4.243L39.514 34l-7.778 7.778a3 3 0 0 0 4.243 4.243l9.867-9.867.033-.033Z" clip-rule="evenodd"/></g><defs><filter id="a" width="23.9" height="33.799" x="26.857" y="17.101" color-interpolation-filters="sRGB" filterUnits="userSpaceOnUse"><feFlood flood-opacity="0" result="BackgroundImageFix"/><feColorMatrix in="SourceAlpha" result="hardAlpha" values="0 0 0 0 0 0 0 0 0 0 0 0 0 0 0 0 0 0 127 0"/><feOffset/><feGaussianBlur stdDeviation="2"/><feComposite in2="hardAlpha" operator="out"/><feColorMatrix values="0 0 0 0 0 0 0 0 0 0 0 0 0 0 0 0 0 0 0.25 0"/><feBlend in2="BackgroundImageFix" result="effect1_dropShadow_540_214"/><feBlend in="SourceGraphic" in2="effect1_dropShadow_540_214" result="shape"/></filter></defs></svg>