<svg xmlns="http://www.w3.org/2000/svg" width="564" height="150" fill="none"><path fill="#fff" d="M16.25 58.093H0L18.308 2.6h20.584L57.2 58.093H40.95l-12.133-40.21h-.433L16.25 58.093Zm-3.033-21.894h30.55v11.272h-30.55V36.2Zm85.861 21.894H77.736V2.6h21.126c5.705 0 10.634 1.111 14.787 3.333 4.171 2.204 7.385 5.383 9.642 9.538 2.275 4.136 3.412 9.095 3.412 14.875 0 5.78-1.128 10.748-3.385 14.902-2.257 4.137-5.453 7.316-9.588 9.538-4.134 2.204-9.018 3.306-14.652 3.306Zm-6.283-12.79h5.742c2.744 0 5.082-.442 7.014-1.327 1.95-.885 3.431-2.412 4.442-4.58 1.029-2.167 1.544-5.184 1.544-9.05 0-3.865-.524-6.881-1.571-9.049-1.029-2.168-2.546-3.694-4.55-4.58-1.986-.884-4.424-1.327-7.313-1.327h-5.308v29.913Zm51.783 12.79h-16.25L146.637 2.6h20.583l18.309 55.492h-16.25l-12.134-40.21h-.433l-12.134 40.21Zm-3.033-21.894h30.55v11.272h-30.55V36.2Zm100.453-5.852c0 6.178-1.201 11.389-3.602 15.634-2.402 4.227-5.643 7.433-9.723 9.619-4.081 2.167-8.631 3.251-13.65 3.251-5.056 0-9.624-1.093-13.705-3.278-4.062-2.204-7.294-5.42-9.696-9.646-2.383-4.245-3.575-9.439-3.575-15.58 0-6.178 1.192-11.38 3.575-15.607 2.402-4.245 5.634-7.451 9.696-9.619 4.081-2.186 8.649-3.279 13.705-3.279 5.019 0 9.569 1.093 13.65 3.279 4.08 2.168 7.321 5.374 9.723 9.619 2.401 4.227 3.602 9.43 3.602 15.607Zm-15.492 0c0-3.324-.442-6.124-1.327-8.4-.867-2.294-2.158-4.028-3.873-5.202-1.697-1.192-3.792-1.788-6.283-1.788-2.492 0-4.596.596-6.311 1.788-1.697 1.174-2.988 2.908-3.873 5.202-.867 2.276-1.3 5.076-1.3 8.4 0 3.323.433 6.132 1.3 8.426.885 2.276 2.176 4.01 3.873 5.203 1.715 1.174 3.819 1.761 6.311 1.761 2.491 0 4.586-.587 6.283-1.761 1.715-1.192 3.006-2.926 3.873-5.203.885-2.294 1.327-5.103 1.327-8.426Zm62.786-13.873v10.838H261.45V16.474h27.842Zm-22.533 41.618v-42.81c0-3.432.614-6.277 1.841-8.535 1.228-2.258 2.962-3.947 5.2-5.067C276.039.56 278.676 0 281.709 0c1.896 0 3.737.145 5.525.434 1.805.289 3.142.541 4.008.758l-2.166 10.73a11.707 11.707 0 0 0-1.896-.38 12.987 12.987 0 0 0-1.896-.162c-1.408 0-2.356.298-2.844.894-.487.596-.731 1.382-.731 2.358v43.46h-14.95Zm47.078.759c-4.514 0-8.378-.894-11.592-2.682-3.214-1.807-5.679-4.317-7.394-7.533-1.715-3.233-2.573-6.981-2.573-11.244s.858-8.003 2.573-11.218c1.715-3.233 4.18-5.744 7.394-7.532 3.214-1.807 7.078-2.71 11.592-2.71s8.377.903 11.591 2.71c3.214 1.788 5.679 4.299 7.394 7.532 1.715 3.216 2.573 6.955 2.573 11.218s-.858 8.01-2.573 11.244c-1.715 3.215-4.18 5.726-7.394 7.533-3.214 1.788-7.077 2.682-11.591 2.682Zm.108-11.055c1.264 0 2.356-.424 3.277-1.273.921-.85 1.634-2.06 2.14-3.631.505-1.572.758-3.441.758-5.609 0-2.186-.253-4.055-.758-5.609-.506-1.571-1.219-2.781-2.14-3.63-.921-.85-2.013-1.274-3.277-1.274-1.336 0-2.483.425-3.44 1.274-.957.849-1.688 2.059-2.193 3.63-.506 1.554-.759 3.423-.759 5.61 0 2.167.253 4.036.759 5.608.505 1.572 1.236 2.782 2.193 3.63.957.85 2.104 1.274 3.44 1.274Zm27.517 10.297V16.474h14.517v7.912h.433c.758-2.927 1.959-5.067 3.602-6.422 1.661-1.354 3.602-2.032 5.823-2.032.65 0 1.291.054 1.923.163.65.09 1.273.225 1.869.406v12.762c-.741-.253-1.653-.443-2.736-.569-1.083-.126-2.013-.19-2.789-.19-1.463 0-2.781.334-3.955 1.003-1.155.65-2.067 1.571-2.735 2.764-.668 1.174-1.002 2.556-1.002 4.145v21.677h-14.95Zm-339.62 76.3V78.902h23.942c4.116 0 7.718.813 10.806 2.438 3.087 1.626 5.489 3.911 7.204 6.855 1.715 2.945 2.573 6.386 2.573 10.324 0 3.974-.885 7.415-2.654 10.323-1.752 2.908-4.216 5.148-7.394 6.72-3.16 1.571-6.852 2.357-11.077 2.357h-14.3v-11.705h11.267c1.769 0 3.277-.307 4.522-.921 1.264-.633 2.23-1.527 2.898-2.683.686-1.156 1.03-2.52 1.03-4.091 0-1.59-.344-2.945-1.03-4.065-.668-1.137-1.634-2.005-2.898-2.6-1.245-.615-2.753-.922-4.523-.922H16.9v43.461H1.842Zm50.267 0V92.775h14.516v7.911h.434c.758-2.926 1.959-5.066 3.602-6.421 1.66-1.355 3.602-2.032 5.823-2.032.65 0 1.29.054 1.923.162.65.09 1.273.226 1.868.407v12.762c-.74-.253-1.652-.443-2.735-.569-1.083-.127-2.013-.19-2.79-.19-1.462 0-2.78.334-3.954 1.002-1.155.651-2.067 1.572-2.735 2.764-.668 1.174-1.002 2.556-1.002 4.146v21.676h-14.95Zm50.727.759c-4.514 0-8.378-.894-11.592-2.683-3.214-1.806-5.678-4.317-7.394-7.532-1.715-3.234-2.572-6.982-2.572-11.245 0-4.263.857-8.002 2.572-11.217 1.716-3.234 4.18-5.744 7.394-7.533 3.214-1.806 7.078-2.71 11.592-2.71s8.378.904 11.592 2.71c3.214 1.789 5.678 4.3 7.394 7.533 1.715 3.215 2.572 6.954 2.572 11.217 0 4.263-.857 8.011-2.572 11.245-1.716 3.215-4.18 5.726-7.394 7.532-3.214 1.789-7.078 2.683-11.592 2.683Zm.108-11.055c1.264 0 2.357-.425 3.277-1.274.921-.849 1.634-2.059 2.14-3.63.506-1.572.758-3.442.758-5.609 0-2.186-.252-4.055-.758-5.609-.506-1.571-1.219-2.782-2.14-3.631-.92-.849-2.013-1.273-3.277-1.273-1.336 0-2.482.424-3.44 1.273-.956.849-1.688 2.06-2.193 3.631-.506 1.554-.758 3.423-.758 5.609 0 2.167.252 4.037.758 5.609.505 1.571 1.237 2.781 2.194 3.63.957.849 2.103 1.274 3.439 1.274Zm27.517-31.322h14.95v43.027c0 3.649-.767 6.503-2.302 8.562-1.517 2.059-3.647 3.514-6.392 4.363-2.744.849-5.949 1.273-9.614 1.273-.542 0-1.038-.009-1.49-.027a60.213 60.213 0 0 1-1.544-.081v-11.055c.362.036.678.063.948.081.253.018.515.027.786.027 1.787 0 3.006-.28 3.656-.84.668-.542 1.002-1.418 1.002-2.628V92.775Zm7.475-4.336c-2.022 0-3.755-.668-5.2-2.005-1.444-1.337-2.167-2.944-2.167-4.823 0-1.878.723-3.486 2.167-4.823 1.445-1.336 3.178-2.005 5.2-2.005 2.04 0 3.774.669 5.2 2.005 1.445 1.337 2.167 2.945 2.167 4.823 0 1.879-.722 3.486-2.167 4.823-1.426 1.337-3.16 2.005-5.2 2.005Zm35.026 46.713c-4.442 0-8.27-.849-11.484-2.547-3.195-1.716-5.66-4.173-7.393-7.37-1.716-3.215-2.573-7.063-2.573-11.543 0-4.299.866-8.056 2.6-11.271 1.733-3.216 4.18-5.718 7.339-7.506 3.16-1.788 6.889-2.682 11.186-2.682 3.142 0 5.985.487 8.531 1.463 2.546.975 4.722 2.393 6.527 4.254 1.806 1.842 3.196 4.082 4.171 6.719.975 2.638 1.463 5.609 1.463 8.915v3.468H156.17v-8.237h23.4c-.018-1.192-.325-2.24-.921-3.143a5.866 5.866 0 0 0-2.356-2.141c-.975-.523-2.085-.785-3.331-.785-1.21 0-2.32.262-3.331.785a6.302 6.302 0 0 0-2.438 2.114c-.596.903-.912 1.96-.948 3.17v8.887c0 1.337.28 2.529.84 3.577a6.097 6.097 0 0 0 2.41 2.466c1.047.596 2.311.894 3.792.894 1.029 0 1.968-.145 2.817-.434.866-.289 1.607-.704 2.22-1.246a5.076 5.076 0 0 0 1.355-2.005h13.65c-.47 2.89-1.58 5.401-3.332 7.532-1.751 2.114-4.071 3.757-6.96 4.932-2.871 1.156-6.229 1.734-10.075 1.734Zm46.509 0c-4.514 0-8.378-.894-11.592-2.683-3.214-1.806-5.678-4.317-7.394-7.532-1.715-3.234-2.572-6.982-2.572-11.245 0-4.263.857-8.002 2.572-11.217 1.716-3.234 4.18-5.744 7.394-7.533 3.214-1.806 7.078-2.71 11.592-2.71 4.081 0 7.61.741 10.59 2.222 2.997 1.464 5.317 3.54 6.96 6.232 1.643 2.674 2.474 5.817 2.492 9.43h-13.867c-.199-2.186-.831-3.848-1.896-4.986-1.047-1.156-2.401-1.734-4.062-1.734-1.3 0-2.438.379-3.413 1.138-.975.741-1.733 1.87-2.275 3.387-.542 1.499-.812 3.387-.812 5.663 0 2.276.27 4.172.812 5.69.542 1.499 1.3 2.628 2.275 3.387.975.74 2.113 1.111 3.413 1.111 1.101 0 2.076-.253 2.925-.759.848-.524 1.534-1.283 2.058-2.276.542-1.012.867-2.24.975-3.685h13.867c-.054 3.667-.894 6.864-2.519 9.592-1.625 2.709-3.927 4.805-6.906 6.286-2.961 1.481-6.5 2.222-10.617 2.222Zm51.019-42.377v10.838h-27.409V92.775h27.409Zm-22.101-9.972h14.95v38.205c0 .578.1 1.066.298 1.463.199.379.506.668.921.867.416.181.948.271 1.598.271.452 0 .975-.054 1.571-.162a22.391 22.391 0 0 0 1.354-.271l2.167 10.513c-.668.198-1.625.442-2.871.731-1.228.289-2.69.479-4.388.569-3.43.181-6.31-.171-8.639-1.057-2.329-.903-4.081-2.321-5.254-4.254-1.174-1.932-1.743-4.353-1.707-7.261V82.803Zm43.178 51.59V78.902h23.942c4.117 0 7.719.75 10.806 2.249 3.088 1.499 5.489 3.657 7.205 6.475 1.715 2.818 2.572 6.196 2.572 10.134 0 3.974-.884 7.325-2.654 10.052-1.751 2.728-4.216 4.787-7.393 6.178-3.16 1.391-6.853 2.087-11.078 2.087h-14.3v-11.706h11.267c1.769 0 3.277-.216 4.523-.65 1.264-.451 2.23-1.165 2.898-2.14.686-.976 1.029-2.25 1.029-3.82 0-1.59-.343-2.882-1.029-3.876-.668-1.011-1.634-1.752-2.898-2.221-1.246-.488-2.754-.732-4.523-.732h-5.308v43.461h-15.059Zm32.5-25.47 13.867 25.47h-16.358l-13.542-25.47h16.033Zm37.701 26.229c-4.442 0-8.27-.849-11.484-2.547-3.196-1.716-5.66-4.173-7.394-7.37-1.715-3.215-2.573-7.063-2.573-11.543 0-4.299.867-8.056 2.601-11.271 1.733-3.216 4.179-5.718 7.339-7.506 3.16-1.788 6.888-2.682 11.186-2.682 3.141 0 5.985.487 8.531 1.463 2.546.975 4.721 2.393 6.527 4.254 1.806 1.842 3.196 4.082 4.171 6.719.975 2.638 1.462 5.609 1.462 8.915v3.468h-37.158v-8.237h23.4c-.018-1.192-.325-2.24-.921-3.143a5.872 5.872 0 0 0-2.356-2.141c-.975-.523-2.086-.785-3.331-.785-1.21 0-2.321.262-3.332.785a6.3 6.3 0 0 0-2.437 2.114c-.596.903-.912 1.96-.948 3.17v8.887c0 1.337.28 2.529.84 3.577a6.09 6.09 0 0 0 2.41 2.466c1.047.596 2.311.894 3.792.894 1.029 0 1.968-.145 2.816-.434.867-.289 1.607-.704 2.221-1.246a5.073 5.073 0 0 0 1.354-2.005h13.65c-.469 2.89-1.579 5.401-3.331 7.532-1.751 2.114-4.071 3.757-6.96 4.932-2.871 1.156-6.23 1.734-10.075 1.734Zm67.349-42.377-13.975 41.618h-17.333l-13.975-41.618h15.708l6.717 27.528h.433l6.717-27.528h15.708Zm4.253 41.618V92.775h14.95v41.618h-14.95Zm7.475-45.954c-2.023 0-3.756-.668-5.2-2.005-1.445-1.337-2.167-2.944-2.167-4.823 0-1.878.722-3.486 2.167-4.823 1.444-1.336 3.177-2.005 5.2-2.005 2.04 0 3.773.669 5.2 2.005 1.444 1.337 2.166 2.945 2.166 4.823 0 1.879-.722 3.486-2.166 4.823-1.427 1.337-3.16 2.005-5.2 2.005Zm35.025 46.713c-4.441 0-8.269-.849-11.483-2.547-3.196-1.716-5.66-4.173-7.394-7.37-1.715-3.215-2.573-7.063-2.573-11.543 0-4.299.867-8.056 2.6-11.271 1.734-3.216 4.18-5.718 7.34-7.506 3.16-1.788 6.888-2.682 11.185-2.682 3.142 0 5.986.487 8.532 1.463 2.545.975 4.721 2.393 6.527 4.254 1.805 1.842 3.196 4.082 4.171 6.719.975 2.638 1.462 5.609 1.462 8.915v3.468h-37.158v-8.237h23.4c-.018-1.192-.325-2.24-.921-3.143a5.872 5.872 0 0 0-2.356-2.141c-.975-.523-2.086-.785-3.332-.785-1.209 0-2.32.262-3.331.785a6.292 6.292 0 0 0-2.437 2.114c-.596.903-.912 1.96-.948 3.17v8.887c0 1.337.28 2.529.839 3.577a6.093 6.093 0 0 0 2.411 2.466c1.047.596 2.311.894 3.791.894 1.029 0 1.968-.145 2.817-.434.867-.289 1.607-.704 2.221-1.246a5.073 5.073 0 0 0 1.354-2.005h13.65c-.469 2.89-1.58 5.401-3.331 7.532-1.752 2.114-4.072 3.757-6.961 4.932-2.87 1.156-6.229 1.734-10.075 1.734Zm33.313-.759-10.4-41.618h14.95l4.767 25.361h.325l5.308-25.361h14.517l5.525 25.144h.325l4.55-25.144H564l-10.4 41.618h-16.142l-5.85-22.327h-.433l-5.85 22.327h-16.142Z"/></svg>