<svg xmlns="http://www.w3.org/2000/svg" width="24" height="24" fill="none"><path stroke="#fff" stroke-linejoin="round" stroke-width="2" d="M17.79 5.473a4.143 4.143 0 0 0-2.593-.972c-2.21-.036-3.967 1.685-4.163 3.84-1.861-.4-3.5-1.48-4.668-3a1 1 0 0 0-1.666.122 4.483 4.483 0 0 0-.258 3.765 1 1 0 0 0-.323.737v.042c0 1.153.438 2.217 1.163 3.003a1 1 0 0 0-.009.61 4.35 4.35 0 0 0 1.529 2.198 5.102 5.102 0 0 1-1.544.234h-.003a5.16 5.16 0 0 1-.633-.04 1 1 0 0 0-.681 1.822A9.64 9.64 0 0 0 9.352 19.5L17.79 5.473Zm0 0c.423-.123.825-.3 1.198-.522a1 1 0 0 1 1.467 1.157 4.22 4.22 0 0 1-1.196 1.873m-1.47-2.508 1.47 2.508M5.254 18.052h-.001l.001-.59v.59Zm0 0h.002v-.59l-.002.59ZM19.26 7.981c.085.435.096.847.096 1.22 0 4.718-3.487 10.3-10.003 10.299L19.26 7.981Z"/></svg>