<svg xmlns="http://www.w3.org/2000/svg" width="32" height="32" fill="none"><rect width="30.5" height="30.5" x=".75" y=".75" stroke="#fff" stroke-width="1.5" rx="7.25"/><path fill="#fff" d="M23.964 12.839c0-.186-.004-.37-.012-.553A8.39 8.39 0 0 0 26 10.103a7.925 7.925 0 0 1-2.357.64 4.18 4.18 0 0 0 1.805-2.337 7.927 7.927 0 0 1-2.605.996A4.096 4.096 0 0 0 19.847 8c-2.266-.038-4.103 1.861-4.103 4.24 0 .338.036.666.107.983-3.413-.218-6.437-1.98-8.46-4.634a4.475 4.475 0 0 0-.555 2.176c0 1.507.724 2.846 1.825 3.637a3.95 3.95 0 0 1-1.859-.565v.056c0 2.106 1.415 3.87 3.293 4.282a3.908 3.908 0 0 1-1.853.062c.522 1.726 2.038 2.987 3.833 3.029-1.405 1.155-3.174 1.845-5.095 1.84-.332 0-.66-.022-.98-.062A11.135 11.135 0 0 0 12.291 25c7.546.002 11.673-6.51 11.673-12.161Z"/></svg>