<svg xmlns="http://www.w3.org/2000/svg" width="24" height="24" fill="none"><mask id="a" width="24" height="24" x="0" y="0" maskUnits="userSpaceOnUse" style="mask-type:alpha"><path fill="#D9D9D9" d="M0 0h24v24H0z"/></mask><g stroke="#fff" stroke-width="2" mask="url(#a)"><path fill="#FFB524" d="M3 6a2 2 0 0 1 2-2h2l3.971-2.383a2 2 0 0 1 2.058 0L17 4h2a2 2 0 0 1 2 2v7.408a8 8 0 0 1-2.685 5.979l-2.329 2.07a6 6 0 0 1-7.972 0l-2.329-2.07A8 8 0 0 1 3 13.407V6Z"/><path stroke-linecap="round" stroke-linejoin="round" d="M8 12h8"/></g></svg>