<svg xmlns="http://www.w3.org/2000/svg" width="20" height="20" fill="none"><g stroke="#fff" stroke-width="2"><circle cx="10" cy="10" r="7"/><path d="M12 10c0 2.121-.324 3.997-.815 5.306-.247.658-.517 1.121-.766 1.402-.25.282-.394.292-.419.292-.026 0-.17-.01-.42-.292-.248-.28-.518-.744-.765-1.402C8.325 13.996 8 12.12 8 10s.324-3.997.815-5.306c.247-.658.517-1.121.766-1.402C9.83 3.01 9.974 3 10 3c.025 0 .17.01.42.292.248.28.518.744.765 1.402C11.675 6.004 12 7.88 12 10Z"/><path stroke-linecap="square" stroke-linejoin="round" d="M3.5 10h13"/></g></svg>