<svg width="24" height="24" viewBox="0 0 24 24" fill="none" xmlns="http://www.w3.org/2000/svg">
<path d="M10.5046 2.51339C11.4305 1.98101 12.5695 1.98101 13.4954 2.51339L19.4954 5.96339C20.4262 6.49859 21 7.49042 21 8.56411V15.4359C21 16.5096 20.4262 17.5014 19.4954 18.0366L13.4954 21.4866C12.5695 22.019 11.4305 22.019 10.5046 21.4866L4.50459 18.0366C3.5738 17.5014 3 16.5096 3 15.4359V8.56411C3 7.49042 3.5738 6.49859 4.50459 5.96339L10.5046 2.51339Z" stroke="white" stroke-width="2"/>
<circle cx="12" cy="11" r="4" stroke="white" stroke-width="2"/>
<path d="M19 19C19 16.7909 15.866 15 12 15C8.13401 15 5 16.7909 5 19" stroke="white" stroke-width="2"/>
</svg>
