<svg xmlns="http://www.w3.org/2000/svg" width="24" height="24" fill="none"><circle cx="12" cy="12" r="9" stroke="#fff" stroke-width="2"/><path stroke="#fff" stroke-width="2" d="M15 12c0 2.667-.434 5.035-1.1 6.7-.334.835-.707 1.444-1.07 1.827-.36.381-.641.473-.83.473-.189 0-.47-.091-.83-.473-.363-.384-.736-.992-1.07-1.827C9.434 17.035 9 14.667 9 12s.434-5.035 1.1-6.7c.334-.835.707-1.443 1.07-1.827.36-.381.641-.473.83-.473.189 0 .47.091.83.473.363.384.736.992 1.07 1.827.666 1.665 1.1 4.033 1.1 6.7Z"/><path stroke="#fff" stroke-linecap="round" stroke-width="2" d="M4 12h16"/></svg>