<svg width="20" height="20" viewBox="0 0 20 20" fill="none" xmlns="http://www.w3.org/2000/svg">
<path d="M8.55953 0.839784C9.44914 0.320846 10.5492 0.320848 11.4388 0.839785L17.1531 4.17312C18.0308 4.68515 18.5706 5.62487 18.5706 6.64106V13.3589C18.5706 14.3751 18.0308 15.3149 17.1531 15.8269L11.4388 19.1602C10.5492 19.6792 9.44914 19.6792 8.55953 19.1602L2.84524 15.8269C1.96748 15.3149 1.42773 14.3751 1.42773 13.3589V6.64106C1.42773 5.62487 1.96748 4.68515 2.84525 4.17312L8.55953 0.839784Z" fill="url(#paint0_linear_866_13963)"/>
<path d="M9.03191 1.64958C9.62962 1.30092 10.3687 1.30092 10.9664 1.64958L16.6807 4.98291C17.2705 5.32693 17.6331 5.9583 17.6331 6.64106V13.3589C17.6331 14.0417 17.2704 14.6731 16.6807 15.0171L10.9664 18.3504C10.3687 18.6991 9.62962 18.6991 9.03191 18.3504L3.31762 15.0171L2.84524 15.8269L3.31762 15.0171C2.72788 14.6731 2.36523 14.0417 2.36523 13.3589V6.64106C2.36523 5.9583 2.72788 5.32693 3.31762 4.98291L2.84525 4.17312L3.31762 4.98291L9.03191 1.64958Z" stroke="white" stroke-opacity="0.11" stroke-width="1.875"/>
<path opacity="0.88" d="M6.17969 9.57422L9.21014 12.6047L14.2609 7.55391" stroke="white" stroke-width="1.875" stroke-linecap="round" stroke-linejoin="round"/>
<defs>
<linearGradient id="paint0_linear_866_13963" x1="15.3563" y1="2.08333" x2="2.91291" y2="16.0592" gradientUnits="userSpaceOnUse">
<stop stop-color="#129CC8"/>
<stop offset="0.907599" stop-color="#56269B"/>
</linearGradient>
</defs>
</svg>
