<svg width="360" height="247" viewBox="0 0 360 247" fill="none" xmlns="http://www.w3.org/2000/svg">
<g opacity="0.15">
<rect x="57.5596" y="105.611" width="21.4679" height="60.8257" fill="white"/>
<rect x="82.6055" y="87.7207" width="21.4679" height="64.4037" fill="white"/>
<rect x="107.651" y="134.234" width="21.4679" height="41.1468" fill="white"/>
<rect x="132.697" y="116.346" width="21.4679" height="82.2936" fill="white"/>
<rect x="157.743" y="44.7852" width="21.4679" height="60.8257" fill="white"/>
<rect x="32.5137" y="57.3086" width="21.4679" height="100.183" fill="white"/>
<path d="M43.248 0.0605469V168.226" stroke="white" stroke-width="1.78899"/>
<path d="M68.2939 51.9414V186.116" stroke="white" stroke-width="1.78899"/>
<path d="M93.3398 76.9863V189.693" stroke="white" stroke-width="1.78899"/>
<path d="M118.386 105.611V218.318" stroke="white" stroke-width="1.78899"/>
<path d="M143.432 51.9414V215.634" stroke="white" stroke-width="1.78899"/>
<path d="M168.478 30.4727V133.34" stroke="white" stroke-width="1.78899"/>
<path d="M18.2021 144.969V235.313" stroke="white" stroke-width="1.78899"/>
<path d="M3.88991 219.213H-14" stroke="white" stroke-width="1.78899"/>
<rect x="7.46777" y="157.492" width="21.4679" height="60.8257" fill="white"/>
<rect width="21.4679" height="44.7248" transform="matrix(-1 0 0 1 304.44 71.6211)" fill="white"/>
<rect width="21.4679" height="41.1468" transform="matrix(-1 0 0 1 279.395 134.234)" fill="white"/>
<rect width="21.4679" height="60.8257" transform="matrix(-1 0 0 1 254.349 162.859)" fill="white"/>
<rect width="21.4679" height="110.917" transform="matrix(-1 0 0 1 229.303 57.3086)" fill="white"/>
<rect width="21.4679" height="60.8257" transform="matrix(-1 0 0 1 204.257 82.3535)" fill="white"/>
<rect width="21.4679" height="66.1927" transform="matrix(-1 0 0 1 329.486 28.6836)" fill="white"/>
<path d="M318.752 0.0605469V168.226" stroke="white" stroke-width="1.78899"/>
<path d="M293.706 26.8945V161.069" stroke="white" stroke-width="1.78899"/>
<path d="M268.66 76.9863V189.693" stroke="white" stroke-width="1.78899"/>
<path d="M243.614 134.234V246.941" stroke="white" stroke-width="1.78899"/>
<path d="M218.568 21.5293V185.222" stroke="white" stroke-width="1.78899"/>
<path d="M193.522 68.043V170.91" stroke="white" stroke-width="1.78899"/>
<path d="M343.798 144.969V235.313" stroke="white" stroke-width="1.78899"/>
<path d="M358.11 162.859H376" stroke="white" stroke-width="1.78899"/>
<rect width="21.4679" height="41.1468" transform="matrix(-1 0 0 1 354.532 157.492)" fill="white"/>
</g>
</svg>
