<svg width="140" height="149" viewBox="0 0 140 149" fill="none" xmlns="http://www.w3.org/2000/svg">
<path d="M140 78.4016C140 117.062 108.66 148.402 70 148.402C31.3401 148.402 0 117.062 0 78.4016C0 56.135 0 69.9972 0 69.9972L140 70C140 70 140 39.7416 140 78.4016Z" fill="#FF9611"/>
<ellipse cx="70" cy="70.0002" rx="70" ry="70.0002" fill="#FFF860"/>
<mask id="mask0_1015_17147" style="mask-type:alpha" maskUnits="userSpaceOnUse" x="0" y="0" width="140" height="140">
<ellipse cx="70" cy="70.0002" rx="70" ry="70.0002" fill="#FFF860"/>
</mask>
<g mask="url(#mask0_1015_17147)">
<path d="M78.6621 12.0578L80.2207 0.699219H122.388L145.483 71.6666L130.205 75.9303L78.6621 12.0578Z" fill="#FFEA2B"/>
<path d="M44.6113 61.802L43.0527 50.4434H0.885258L-22.2097 121.411L-6.9315 125.674L44.6113 61.802Z" fill="#FFEA2B"/>
<path d="M145.6 77.9634C145.6 98.0666 109.171 158.201 70.0004 158.201C30.8297 158.201 -5.59961 98.0666 -5.59961 77.9634C-5.59961 57.8602 31.3405 90.564 70.0004 90.564C108.66 90.564 145.6 57.8602 145.6 77.9634Z" fill="#FEAF11"/>
<ellipse cx="79.465" cy="6.33224" rx="5.66426" ry="5.66427" fill="#FFEA2B"/>
<ellipse cx="8.64473" cy="50.3108" rx="5.66426" ry="5.66427" fill="#FFEA2B"/>
<ellipse cx="11.6454" cy="5.82376" rx="11.6454" ry="5.82376" transform="matrix(0.805894 -0.59206 0.592058 0.805895 19 20.7891)" fill="white" fill-opacity="0.6"/>
</g>
<ellipse cx="69.9992" cy="70.0013" rx="58.8" ry="58.8002" fill="#FFDE25"/>
<mask id="mask1_1015_17147" style="mask-type:alpha" maskUnits="userSpaceOnUse" x="11" y="11" width="118" height="118">
<ellipse cx="70.0002" cy="70.0013" rx="58.8" ry="58.8002" fill="#FFDE25"/>
</mask>
<g mask="url(#mask1_1015_17147)">
<path d="M128.8 79.8008C128.8 91.3989 102.475 131.601 70.0002 131.601C37.5259 131.601 11.2002 91.3989 11.2002 79.8008C11.2002 68.2028 37.5259 58.8008 70.0002 58.8008C102.475 58.8008 128.8 68.2028 128.8 79.8008Z" fill="#FCB00F"/>
<ellipse cx="22.8647" cy="7.11373" rx="22.8647" ry="7.11373" transform="matrix(0.790674 -0.612237 0.612235 0.790676 15.2002 42.9355)" fill="white" fill-opacity="0.33"/>
</g>
<path fill-rule="evenodd" clip-rule="evenodd" d="M71.9593 128.769C103.527 127.736 128.8 101.82 128.8 70.0013C128.8 37.5269 102.475 11.2012 70.0002 11.2012C37.5259 11.2012 11.2002 37.5269 11.2002 70.0013C11.2002 101.831 36.4909 127.754 68.0735 128.771C38.038 127.755 14.001 103.086 14.001 72.8029C14.001 41.8749 39.073 16.8028 70.001 16.8028C100.929 16.8028 126.001 41.8749 126.001 72.8029C126.001 103.075 101.98 127.738 71.9593 128.769Z" fill="#FAB40C"/>
<path fill-rule="evenodd" clip-rule="evenodd" d="M22.7255 35.0289C15.4831 44.8029 11.1998 56.9015 11.1998 70.0006C11.1998 102.475 37.5255 128.801 69.9998 128.801C102.474 128.801 128.8 102.475 128.8 70.0006C128.8 56.8949 124.512 44.7906 117.263 35.014C122.794 43.6962 125.999 54.005 125.999 65.0623C125.999 95.9903 100.927 121.062 69.999 121.062C39.0711 121.062 13.999 95.9903 13.999 65.0623C13.999 54.0113 17.2001 43.7079 22.7255 35.0289Z" fill="#FFDE25"/>
<mask id="path-16-outside-1_1015_17147" maskUnits="userSpaceOnUse" x="31.3975" y="27.9043" width="77" height="84" fill="black">
<rect fill="white" x="31.3975" y="27.9043" width="77" height="84"/>
<path fill-rule="evenodd" clip-rule="evenodd" d="M67.368 96.0455C68.9902 97.0041 71.0054 97.0041 72.6275 96.0455L90.7195 85.3546C92.2934 84.4246 93.259 82.7324 93.259 80.9043L93.259 59.103C93.259 57.2748 92.2934 55.5826 90.7195 54.6526L72.6276 43.9617C71.0054 43.0032 68.9902 43.0032 67.368 43.9617L49.2759 54.6527C47.7021 55.5827 46.7365 57.2748 46.7364 59.1029L46.7359 75.6038C46.7358 78.4587 44.4214 80.773 41.5665 80.7729C38.7116 80.7728 36.3974 78.4584 36.3975 75.6035L36.398 59.1026C36.3981 53.6184 39.2949 48.5421 44.0164 45.7521L62.1085 35.0611C66.975 32.1854 73.0206 32.1854 77.8871 35.0611L95.9791 45.7519C100.701 48.542 103.597 53.6186 103.597 59.103L103.597 80.9043C103.597 86.3886 100.701 91.4652 95.979 94.2553L77.887 104.946C73.0206 107.822 66.975 107.822 62.1086 104.946L46.274 95.5895C45.8211 95.3525 45.3959 95.0436 45.0153 94.663C43.0596 92.7073 42.9986 89.5744 44.8322 87.5452C44.9124 87.4559 44.9953 87.3699 45.0807 87.2872L53.967 78.4009C52.6512 75.8926 51.9068 73.0374 51.9068 70.0084C51.9068 60.0162 60.007 51.916 69.9991 51.916C79.9912 51.916 88.0914 60.0162 88.0914 70.0084C88.0914 80.0005 79.9912 88.1008 69.9991 88.1008C66.7968 88.1008 63.7888 87.2688 61.1795 85.8092L57.0438 89.9449L67.368 96.0455ZM62.2453 70.0084C62.2453 65.726 65.7168 62.2545 69.9991 62.2545C74.2815 62.2545 77.753 65.726 77.753 70.0084C77.753 74.2907 74.2815 77.7623 69.9991 77.7623C65.7168 77.7623 62.2453 74.2907 62.2453 70.0084Z"/>
</mask>
<path fill-rule="evenodd" clip-rule="evenodd" d="M67.368 96.0455C68.9902 97.0041 71.0054 97.0041 72.6275 96.0455L90.7195 85.3546C92.2934 84.4246 93.259 82.7324 93.259 80.9043L93.259 59.103C93.259 57.2748 92.2934 55.5826 90.7195 54.6526L72.6276 43.9617C71.0054 43.0032 68.9902 43.0032 67.368 43.9617L49.2759 54.6527C47.7021 55.5827 46.7365 57.2748 46.7364 59.1029L46.7359 75.6038C46.7358 78.4587 44.4214 80.773 41.5665 80.7729C38.7116 80.7728 36.3974 78.4584 36.3975 75.6035L36.398 59.1026C36.3981 53.6184 39.2949 48.5421 44.0164 45.7521L62.1085 35.0611C66.975 32.1854 73.0206 32.1854 77.8871 35.0611L95.9791 45.7519C100.701 48.542 103.597 53.6186 103.597 59.103L103.597 80.9043C103.597 86.3886 100.701 91.4652 95.979 94.2553L77.887 104.946C73.0206 107.822 66.975 107.822 62.1086 104.946L46.274 95.5895C45.8211 95.3525 45.3959 95.0436 45.0153 94.663C43.0596 92.7073 42.9986 89.5744 44.8322 87.5452C44.9124 87.4559 44.9953 87.3699 45.0807 87.2872L53.967 78.4009C52.6512 75.8926 51.9068 73.0374 51.9068 70.0084C51.9068 60.0162 60.007 51.916 69.9991 51.916C79.9912 51.916 88.0914 60.0162 88.0914 70.0084C88.0914 80.0005 79.9912 88.1008 69.9991 88.1008C66.7968 88.1008 63.7888 87.2688 61.1795 85.8092L57.0438 89.9449L67.368 96.0455ZM62.2453 70.0084C62.2453 65.726 65.7168 62.2545 69.9991 62.2545C74.2815 62.2545 77.753 65.726 77.753 70.0084C77.753 74.2907 74.2815 77.7623 69.9991 77.7623C65.7168 77.7623 62.2453 74.2907 62.2453 70.0084Z" fill="#FEA00C"/>
<path d="M72.6275 96.0455L74.7642 99.6614H74.7642L72.6275 96.0455ZM67.368 96.0455L69.5047 92.4296L69.5047 92.4296L67.368 96.0455ZM90.7195 85.3546L88.5828 81.7387L88.5828 81.7387L90.7195 85.3546ZM93.259 80.9043H89.059H93.259ZM93.259 59.103H97.459H93.259ZM90.7195 54.6526L92.8562 51.0367L90.7195 54.6526ZM72.6276 43.9617L70.4909 47.5776V47.5776L72.6276 43.9617ZM67.368 43.9617L65.2314 40.3459V40.3459L67.368 43.9617ZM49.2759 54.6527L51.4126 58.2686L51.4126 58.2686L49.2759 54.6527ZM46.7364 59.1029L42.5364 59.1028V59.1028L46.7364 59.1029ZM46.7359 75.6038L50.9359 75.6039L46.7359 75.6038ZM41.5665 80.7729L41.5664 84.9729L41.5665 80.7729ZM36.3975 75.6035L32.1975 75.6033L36.3975 75.6035ZM36.398 59.1026L32.198 59.1024V59.1024L36.398 59.1026ZM44.0164 45.7521L46.1531 49.3679L46.1531 49.3679L44.0164 45.7521ZM62.1085 35.0611L59.9718 31.4452L59.9718 31.4452L62.1085 35.0611ZM77.8871 35.0611L75.7504 38.6769V38.6769L77.8871 35.0611ZM95.9791 45.7519L93.8424 49.3678L93.8424 49.3678L95.9791 45.7519ZM103.597 59.103L107.797 59.103V59.103H103.597ZM103.597 80.9043H99.3974H103.597ZM95.979 94.2553L93.8424 90.6394L93.8424 90.6394L95.979 94.2553ZM77.887 104.946L80.0237 108.562H80.0237L77.887 104.946ZM62.1086 104.946L59.9719 108.562L62.1086 104.946ZM46.274 95.5895L48.4107 91.9736L48.3176 91.9186L48.2218 91.8685L46.274 95.5895ZM45.0153 94.663L42.0455 97.6329H42.0455L45.0153 94.663ZM44.8322 87.5452L47.9484 90.3611L47.9569 90.3517L44.8322 87.5452ZM45.0807 87.2872L48.0022 90.3046L48.0266 90.281L48.0506 90.257L45.0807 87.2872ZM53.967 78.4009L56.9368 81.3708L59.1215 79.186L57.6863 76.4499L53.967 78.4009ZM61.1795 85.8092L63.2299 82.1437L60.4566 80.5924L58.2096 82.8394L61.1795 85.8092ZM57.0438 89.9449L54.074 86.9751L50.2438 90.8052L54.9072 93.5608L57.0438 89.9449ZM70.4908 92.4296C70.1867 92.6094 69.8088 92.6094 69.5047 92.4296L65.2314 99.6614C68.1715 101.399 71.8241 101.399 74.7642 99.6614L70.4908 92.4296ZM88.5828 81.7387L70.4908 92.4296L74.7642 99.6614L92.8562 88.9705L88.5828 81.7387ZM89.059 80.9043C89.059 81.247 88.8779 81.5643 88.5828 81.7387L92.8562 88.9705C95.7089 87.2848 97.459 84.2177 97.459 80.9043H89.059ZM89.059 59.103L89.059 80.9043H97.459L97.459 59.103H89.059ZM88.5828 58.2685C88.8779 58.4429 89.059 58.7602 89.059 59.103H97.459C97.459 55.7895 95.7089 52.7224 92.8562 51.0367L88.5828 58.2685ZM70.4909 47.5776L88.5828 58.2685L92.8562 51.0367L74.7643 40.3459L70.4909 47.5776ZM69.5047 47.5776C69.8089 47.3979 70.1867 47.3979 70.4909 47.5776L74.7643 40.3459C71.8241 38.6085 68.1715 38.6085 65.2314 40.3459L69.5047 47.5776ZM51.4126 58.2686L69.5047 47.5776L65.2314 40.3459L47.1392 51.0368L51.4126 58.2686ZM50.9364 59.103C50.9364 58.7602 51.1175 58.443 51.4126 58.2686L47.1392 51.0368C44.2866 52.7225 42.5365 55.7894 42.5364 59.1028L50.9364 59.103ZM50.9359 75.6039L50.9364 59.103L42.5364 59.1028L42.5359 75.6037L50.9359 75.6039ZM41.5664 84.9729C46.7409 84.9731 50.9358 80.7784 50.9359 75.6039L42.5359 75.6037C42.5359 76.139 42.1019 76.5729 41.5667 76.5729L41.5664 84.9729ZM32.1975 75.6033C32.1973 80.7778 36.3919 84.9727 41.5664 84.9729L41.5667 76.5729C41.0314 76.5729 40.5974 76.1389 40.5975 75.6036L32.1975 75.6033ZM32.198 59.1024L32.1975 75.6033L40.5975 75.6036L40.598 59.1027L32.198 59.1024ZM41.8797 42.1362C35.8795 45.6818 32.1982 52.1329 32.198 59.1024L40.598 59.1027C40.5981 55.1038 42.7103 51.4023 46.1531 49.3679L41.8797 42.1362ZM59.9718 31.4452L41.8797 42.1362L46.1531 49.3679L64.2452 38.6769L59.9718 31.4452ZM80.0238 31.4452C73.8393 27.7907 66.1563 27.7907 59.9718 31.4452L64.2452 38.6769C67.7937 36.5801 72.202 36.5801 75.7504 38.6769L80.0238 31.4452ZM98.1157 42.1361L80.0238 31.4452L75.7504 38.6769L93.8424 49.3678L98.1157 42.1361ZM107.797 59.103C107.797 52.1332 104.116 45.6818 98.1157 42.1361L93.8424 49.3678C97.2852 51.4023 99.3975 55.1039 99.3975 59.103H107.797ZM107.797 80.9043L107.797 59.103L99.3975 59.103L99.3974 80.9043H107.797ZM98.1157 97.8711C104.116 94.3254 107.797 87.874 107.797 80.9043H99.3974C99.3974 84.9033 97.2852 88.6049 93.8424 90.6394L98.1157 97.8711ZM80.0237 108.562L98.1157 97.8711L93.8424 90.6394L75.7503 101.33L80.0237 108.562ZM59.9719 108.562C66.1564 112.217 73.8393 112.217 80.0237 108.562L75.7503 101.33C72.2019 103.427 67.7937 103.427 64.2453 101.33L59.9719 108.562ZM44.1374 99.2054L59.9719 108.562L64.2453 101.33L48.4107 91.9736L44.1374 99.2054ZM42.0455 97.6329C42.7302 98.3176 43.5009 98.8786 44.3263 99.3106L48.2218 91.8685C48.1413 91.8263 48.0616 91.7696 47.9852 91.6932L42.0455 97.6329ZM41.716 84.7293C38.3902 88.4098 38.4999 94.0872 42.0455 97.6329L47.9852 91.6932C47.6194 91.3274 47.607 90.739 47.9484 90.3611L41.716 84.7293ZM42.1593 84.2697C42.004 84.4201 41.8532 84.5765 41.7075 84.7387L47.9569 90.3517C47.9716 90.3353 47.9867 90.3197 48.0022 90.3046L42.1593 84.2697ZM50.9971 75.4311L42.1109 84.3173L48.0506 90.257L56.9368 81.3708L50.9971 75.4311ZM57.6863 76.4499C56.6787 74.529 56.1068 72.3417 56.1068 70.0084H47.7068C47.7068 73.7331 48.6237 77.2561 50.2476 80.3519L57.6863 76.4499ZM56.1068 70.0084C56.1068 62.3358 62.3267 56.116 69.9991 56.116V47.716C57.6874 47.716 47.7068 57.6966 47.7068 70.0084H56.1068ZM69.9991 56.116C77.6716 56.116 83.8914 62.3358 83.8914 70.0084H92.2915C92.2915 57.6966 82.3109 47.716 69.9991 47.716V56.116ZM83.8914 70.0084C83.8914 77.681 77.6716 83.9008 69.9991 83.9008V92.3008C82.3109 92.3008 92.2915 82.3201 92.2915 70.0084H83.8914ZM69.9991 83.9008C67.5331 83.9008 65.2289 83.2619 63.2299 82.1437L59.1291 89.4747C62.3488 91.2757 66.0606 92.3008 69.9991 92.3008V83.9008ZM60.0137 92.9148L64.1494 88.779L58.2096 82.8394L54.074 86.9751L60.0137 92.9148ZM69.5047 92.4296L59.1805 86.329L54.9072 93.5608L65.2314 99.6614L69.5047 92.4296ZM69.9991 58.0545C63.3972 58.0545 58.0453 63.4064 58.0453 70.0084H66.4453C66.4453 68.0456 68.0364 66.4545 69.9991 66.4545V58.0545ZM81.953 70.0084C81.953 63.4064 76.6011 58.0545 69.9991 58.0545V66.4545C71.9619 66.4545 73.553 68.0456 73.553 70.0084H81.953ZM69.9991 81.9623C76.6011 81.9623 81.953 76.6103 81.953 70.0084H73.553C73.553 71.9711 71.9618 73.5623 69.9991 73.5623V81.9623ZM58.0453 70.0084C58.0453 76.6103 63.3972 81.9623 69.9991 81.9623V73.5623C68.0364 73.5623 66.4453 71.9711 66.4453 70.0084H58.0453Z" fill="#FFDE25" mask="url(#path-16-outside-1_1015_17147)"/>
<mask id="mask2_1015_17147" style="mask-type:alpha" maskUnits="userSpaceOnUse" x="36" y="32" width="68" height="76">
<path fill-rule="evenodd" clip-rule="evenodd" d="M67.368 96.0455C68.9902 97.0041 71.0054 97.0041 72.6275 96.0455L90.7195 85.3546C92.2934 84.4246 93.259 82.7324 93.259 80.9043L93.259 59.103C93.259 57.2748 92.2934 55.5826 90.7195 54.6526L72.6276 43.9617C71.0054 43.0032 68.9902 43.0032 67.368 43.9617L49.2759 54.6527C47.7021 55.5827 46.7365 57.2748 46.7364 59.1029L46.7359 75.6038C46.7358 78.4587 44.4214 80.773 41.5665 80.7729C38.7116 80.7728 36.3974 78.4584 36.3975 75.6035L36.398 59.1026C36.3981 53.6184 39.2949 48.5421 44.0164 45.7521L62.1085 35.0611C66.975 32.1854 73.0206 32.1854 77.8871 35.0611L95.9791 45.7519C100.701 48.542 103.597 53.6186 103.597 59.103L103.597 80.9043C103.597 86.3886 100.701 91.4652 95.979 94.2553L77.887 104.946C73.0206 107.822 66.975 107.822 62.1086 104.946L46.274 95.5895C45.8211 95.3525 45.3959 95.0436 45.0153 94.663C43.0596 92.7073 42.9986 89.5744 44.8322 87.5452C44.9124 87.4559 44.9953 87.3699 45.0807 87.2872L53.967 78.4009C52.6512 75.8926 51.9068 73.0374 51.9068 70.0084C51.9068 60.0162 60.007 51.916 69.9991 51.916C79.9912 51.916 88.0914 60.0162 88.0914 70.0084C88.0914 80.0005 79.9912 88.1008 69.9991 88.1008C66.7968 88.1008 63.7888 87.2688 61.1795 85.8092L57.0438 89.9449L67.368 96.0455ZM62.2453 70.0084C62.2453 65.726 65.7168 62.2545 69.9991 62.2545C74.2815 62.2545 77.753 65.726 77.753 70.0084C77.753 74.2907 74.2815 77.7623 69.9991 77.7623C65.7168 77.7623 62.2453 74.2907 62.2453 70.0084Z" fill="#FC9E09"/>
</mask>
<g mask="url(#mask2_1015_17147)">
<g filter="url(#filter0_i_1015_17147)">
<path fill-rule="evenodd" clip-rule="evenodd" d="M67.368 96.0455C68.9902 97.0041 71.0054 97.0041 72.6275 96.0455L90.7195 85.3546C92.2934 84.4246 93.259 82.7324 93.259 80.9043L93.259 59.103C93.259 57.2748 92.2934 55.5826 90.7195 54.6526L72.6276 43.9617C71.0054 43.0032 68.9902 43.0032 67.368 43.9617L49.2759 54.6527C47.7021 55.5827 46.7365 57.2748 46.7364 59.1029L46.7359 75.6038C46.7358 78.4587 44.4214 80.773 41.5665 80.7729C38.7116 80.7728 36.3974 78.4584 36.3975 75.6035L36.398 59.1026C36.3981 53.6184 39.2949 48.5421 44.0164 45.7521L62.1085 35.0611C66.975 32.1854 73.0206 32.1854 77.8871 35.0611L95.9791 45.7519C100.701 48.542 103.597 53.6186 103.597 59.103L103.597 80.9043C103.597 86.3886 100.701 91.4652 95.979 94.2553L77.887 104.946C73.0206 107.822 66.975 107.822 62.1086 104.946L46.274 95.5895C45.8211 95.3525 45.3959 95.0436 45.0153 94.663C43.0596 92.7073 42.9986 89.5744 44.8322 87.5452C44.9124 87.4559 44.9953 87.3699 45.0807 87.2872L53.967 78.4009C52.6512 75.8926 51.9068 73.0374 51.9068 70.0084C51.9068 60.0162 60.007 51.916 69.9991 51.916C79.9912 51.916 88.0914 60.0162 88.0914 70.0084C88.0914 80.0005 79.9912 88.1008 69.9991 88.1008C66.7968 88.1008 63.7888 87.2688 61.1795 85.8092L57.0438 89.9449L67.368 96.0455ZM62.2453 70.0084C62.2453 65.726 65.7168 62.2545 69.9991 62.2545C74.2815 62.2545 77.753 65.726 77.753 70.0084C77.753 74.2907 74.2815 77.7623 69.9991 77.7623C65.7168 77.7623 62.2453 74.2907 62.2453 70.0084Z" fill="#FCB00F"/>
</g>
</g>
<mask id="mask3_1015_17147" style="mask-type:alpha" maskUnits="userSpaceOnUse" x="11" y="35" width="118" height="94">
<path fill-rule="evenodd" clip-rule="evenodd" d="M22.7244 35.0309C15.4821 44.8049 11.1988 56.9035 11.1988 70.0026C11.1988 102.477 37.5245 128.803 69.9988 128.803C102.473 128.803 128.799 102.477 128.799 70.0026C128.799 56.8969 124.511 44.7926 117.262 35.016C122.793 43.6981 125.998 54.007 125.998 65.0642C125.998 95.9923 100.926 121.064 69.998 121.064C39.0701 121.064 13.998 95.9923 13.9981 65.0642C13.9981 54.0133 17.1991 43.71 22.7244 35.0309Z" fill="#FFDE25"/>
</mask>
<g mask="url(#mask3_1015_17147)">
<ellipse cx="18.2" cy="5.74025" rx="18.2" ry="5.74025" transform="matrix(0.784575 -0.620034 0.620031 0.784577 86.7998 117.771)" fill="#FEEE39"/>
</g>
<defs>
<filter id="filter0_i_1015_17147" x="36.3975" y="32.9043" width="67.2002" height="76.5992" filterUnits="userSpaceOnUse" color-interpolation-filters="sRGB">
<feFlood flood-opacity="0" result="BackgroundImageFix"/>
<feBlend mode="normal" in="SourceGraphic" in2="BackgroundImageFix" result="shape"/>
<feColorMatrix in="SourceAlpha" type="matrix" values="0 0 0 0 0 0 0 0 0 0 0 0 0 0 0 0 0 0 127 0" result="hardAlpha"/>
<feOffset dy="3.59999"/>
<feGaussianBlur stdDeviation="1.2"/>
<feComposite in2="hardAlpha" operator="arithmetic" k2="-1" k3="1"/>
<feColorMatrix type="matrix" values="0 0 0 0 0.929167 0 0 0 0 0.615556 0 0 0 0 0.065816 0 0 0 1 0"/>
<feBlend mode="normal" in2="shape" result="effect1_innerShadow_1015_17147"/>
</filter>
</defs>
</svg>
