<svg width="255" height="110" viewBox="0 0 255 110" fill="none" xmlns="http://www.w3.org/2000/svg">
<path fill-rule="evenodd" clip-rule="evenodd" d="M75.3066 0.864423C75.0638 0.846176 74.8214 0.828288 74.5795 0.810757C54.6636 -0.632023 37.3417 0.346194 24.4361 3.6766C11.6047 6.98783 2.7877 12.7257 0.546524 21.0899C-1.12083 27.3126 1.10142 34.0984 6.19574 40.945C11.2983 47.8027 19.3836 54.8682 29.7782 61.7485C50.5764 75.5151 80.8148 88.6675 115.565 97.9789C150.316 107.29 183.079 111.019 207.974 109.496C220.417 108.735 230.951 106.659 238.799 103.271C246.634 99.8888 251.952 95.1232 253.619 88.9005C255.824 80.6716 251.245 71.4621 242.098 62.3321C232.901 53.1513 218.841 43.7914 201.39 35.1758C201.196 35.0798 201.001 34.9838 200.805 34.8879L201.495 37.4605C218.377 45.8855 231.871 54.9494 240.685 63.7476C249.722 72.7679 253.598 81.2536 251.687 88.3829C250.246 93.7631 245.574 98.1681 238.007 101.435C230.452 104.696 220.171 106.746 207.852 107.5C183.225 109.006 150.683 105.318 116.083 96.047C81.4829 86.776 51.4565 73.6992 30.8821 60.0807C20.5903 53.2685 12.7122 46.3525 7.8003 39.7511C2.88014 33.1386 1.03675 26.9878 2.47838 21.6075C4.42055 14.3593 12.2441 8.88835 24.9358 5.61316C37.3409 2.41194 54.0632 1.40513 73.4375 2.73516L75.3066 0.864423Z" fill="url(#paint0_linear_966_16542)"/>
<defs>
<linearGradient id="paint0_linear_966_16542" x1="72.2539" y1="-32.168" x2="132.754" y2="113.332" gradientUnits="userSpaceOnUse">
<stop stop-color="#CFC1FF"/>
<stop offset="1" stop-color="#8FF2FF"/>
</linearGradient>
</defs>
</svg>
