<svg width="32" height="32" viewBox="0 0 32 32" fill="none" xmlns="http://www.w3.org/2000/svg">
<path d="M13.4564 4.50306C15.0254 3.57591 16.9746 3.57591 18.5436 4.50306L24.5436 8.04852C26.066 8.9481 27 10.5849 27 12.3532V19.6468C27 21.4151 26.066 23.0519 24.5436 23.9515L18.5436 27.4969C16.9746 28.4241 15.0254 28.4241 13.4564 27.4969L7.45635 23.9515C5.93399 23.0519 5 21.4151 5 19.6468V12.3532C5 10.5849 5.93399 8.94809 7.45635 8.04852L13.4564 4.50306Z" fill="url(#paint0_linear_866_15023)"/>
<path d="M13.9651 5.36399C15.2203 4.62226 16.7797 4.62226 18.0349 5.36399L24.0349 8.90945C25.2528 9.62911 26 10.9385 26 12.3532V19.6468C26 21.0615 25.2528 22.3709 24.0349 23.0906L18.0349 26.636C16.7797 27.3777 15.2203 27.3777 13.9651 26.636L7.96508 23.0906C6.74719 22.3709 6 21.0615 6 19.6468V12.3532C6 10.9385 6.74719 9.62911 7.96508 8.90945L13.9651 5.36399Z" stroke="white" stroke-opacity="0.11" stroke-width="2"/>
<path fill-rule="evenodd" clip-rule="evenodd" d="M20.068 12.9265C20.1245 12.3045 19.6035 11.7835 18.9816 11.84L14.5247 12.2452C13.6804 12.322 13.3087 13.3487 13.9082 13.9482L15.0501 15.0901L12.2217 17.9186C11.7335 18.4067 11.7335 19.1982 12.2217 19.6863C12.7098 20.1745 13.5013 20.1745 13.9895 19.6863L16.8179 16.8579L17.9598 17.9999C18.5593 18.5994 19.5861 18.2277 19.6628 17.3833L20.068 12.9265Z" fill="white" fill-opacity="0.88"/>
<defs>
<linearGradient id="paint0_linear_866_15023" x1="22.875" y1="5.70833" x2="6.67576" y2="23.6693" gradientUnits="userSpaceOnUse">
<stop stop-color="#129CC8"/>
<stop offset="0.907599" stop-color="#56269B"/>
</linearGradient>
</defs>
</svg>
