<svg xmlns="http://www.w3.org/2000/svg" width="14" height="14" fill="none"><path fill="url(#a)" d="M5.992.588a2 2 0 0 1 2.016 0l4 2.333A2 2 0 0 1 13 4.65v4.7a2 2 0 0 1-.992 1.728l-4 2.333a2 2 0 0 1-2.016 0l-4-2.333A2 2 0 0 1 1 9.35v-4.7a2 2 0 0 1 .992-1.728l4-2.333Z"/><path stroke="#fff" stroke-opacity=".11" stroke-width="1.5" d="M6.37 1.236a1.25 1.25 0 0 1 1.26 0l4 2.333c.384.224.62.635.62 1.08V9.35c0 .445-.236.856-.62 1.08l-4 2.333a1.25 1.25 0 0 1-1.26 0l-4-2.333-.378.648.378-.648a1.25 1.25 0 0 1-.62-1.08v-4.7c0-.445.236-.856.62-1.08l4-2.333Z"/><path stroke="#fff" stroke-linecap="round" stroke-linejoin="round" stroke-width="1.5" d="m4.325 6.703 2.122 2.121L9.982 5.29" opacity=".88"/><defs><linearGradient id="a" x1="10.75" x2="2.04" y1="1.458" y2="11.241" gradientUnits="userSpaceOnUse"><stop stop-color="#129CC8"/><stop offset=".908" stop-color="#56269B"/></linearGradient></defs></svg>