<svg width="24" height="24" viewBox="0 0 24 24" fill="none" xmlns="http://www.w3.org/2000/svg">
<path fill-rule="evenodd" clip-rule="evenodd" d="M1.5 9.59976C1.5 6.21192 3.86947 2.5 7.77778 2.5C9.03471 2.5 10.1497 2.97545 11.0019 3.54712C11.3726 3.79582 11.7096 4.07341 12.001 4.35805C12.2903 4.07353 12.6252 3.79633 12.994 3.54804C13.8452 2.97493 14.9606 2.5 16.2222 2.5C20.1305 2.5 22.5 6.2119 22.5 9.59959C22.5 11.8717 21.4471 13.455 20.7795 14.4589L20.7566 14.4933C19.0611 17.0409 15.6728 19.6007 13.8935 20.8519L13.8421 20.888L13.8274 20.8985C13.824 20.9009 13.8226 20.9019 13.8226 20.9019L13.8132 20.9088L13.7805 20.932C13.2548 21.2985 12.6367 21.5 11.9947 21.5C11.3327 21.5 10.6968 21.2948 10.1661 20.9013L10.0953 20.8515C8.31616 19.6034 4.92778 17.0467 3.24552 14.4964L3.24432 14.4946L3.22391 14.4639C2.55343 13.4559 1.5 11.8723 1.5 9.59976Z" fill="#FF4242"/>
</svg>
