<svg xmlns="http://www.w3.org/2000/svg" width="16" height="16" fill="none"><path fill="#FF4242" fill-rule="evenodd" d="M.917 6.4c0-2.287 1.601-4.816 4.269-4.816.859 0 1.618.325 2.195.712.227.152.436.32.62.494.183-.173.39-.341.615-.493.578-.389 1.337-.713 2.2-.713 2.666 0 4.268 2.53 4.268 4.816 0 1.54-.714 2.614-1.16 3.284l-.016.025c-1.14 1.713-3.412 3.428-4.597 4.261l-.035.024-.01.008h-.001l-.007.006-.023.016a2.161 2.161 0 0 1-1.238.393c-.459 0-.9-.142-1.268-.415l-.046-.032c-1.186-.832-3.457-2.544-4.589-4.26l.001.002v-.001l-.016-.024C1.63 9.014.917 7.941.917 6.4Z" clip-rule="evenodd"/></svg>